<svg id="Calque_1" data-name="Calque 1" xmlns="http://www.w3.org/2000/svg" viewBox="0 0 64 64"><title>all_devices</title><polygon points="45.79 42.29 44.92 42.29 43.52 42.29 45.79 42.66 45.79 42.29" style="fill:none"/><path d="M40.48,42.29H32.42a.75.75,0,1,1,0-1.51h7.35a2.87,2.87,0,0,1,0-.9l.05-.33H20.42a.74.74,0,0,1-.71-.54,2.83,2.83,0,0,1-1.78,1.55l-.65.19v0h12.1a.75.75,0,1,1,0,1.51H15.64v.46A1.28,1.28,0,0,0,16.93,44H44.51a1.27,1.27,0,0,0,.81-.29l-3.15-.51A2.88,2.88,0,0,1,40.48,42.29Z" style="fill:none"/><path d="M41.77,38.8a.75.75,0,0,1-.75.75H41l-.08.51a1.76,1.76,0,0,0,0,.72h3.25V36.53l-.72-.12a.57.57,0,0,1-.47-.65l1.19-7.37V26.82a.74.74,0,0,1,.36-.62l.5-3.08-.1,0a.75.75,0,0,1-.75-.75,2,2,0,0,0-.26-1L41.77,34.57Z" style="fill:none"/><path d="M19.27,20.38a2,2,0,0,0-2,2v5.67l2.39,8.29V23.18a.75.75,0,0,1,.75-.75H41a.75.75,0,0,1,.75.75v1.94a.75.75,0,0,1-1.51,0V23.93H21.17V38.05H40.05l.21-1.3V29.3a.75.75,0,0,1,1.29-.52l1.28-7.87a2.86,2.86,0,0,1,.1-.37,2,2,0,0,0-.76-.15Z" style="fill:none"/><path d="M18.8,37.36l-1.53-5.29V39.6l.35-.1A1.73,1.73,0,0,0,18.8,37.36Z" style="fill:none"/><path d="M19.71,39a.73.73,0,0,1,0-.21V36.35l-2.39-8.29v4l1.53,5.29a1.73,1.73,0,0,1-1.18,2.14l-.35.1v1.16l.65-.19A2.83,2.83,0,0,0,19.71,39Z" style="fill:#1d212b"/><path d="M15.7,24.64a.56.56,0,0,0-.38.69l.44,1.52V24.64Z" style="fill:#1d212b"/><path d="M14.89,40.79h.87V40l-4.44,1.28a1.73,1.73,0,0,1-2.14-1.18L4.89,25.29a1.73,1.73,0,0,1,1.18-2.14l6.29-1.82a1.73,1.73,0,0,1,2.14,1.18.56.56,0,0,0,1.07-.31,2.85,2.85,0,0,0-3.52-1.94L5.76,22.08A2.85,2.85,0,0,0,3.82,25.6L8.11,40.45a2.85,2.85,0,0,0,3.52,1.94l2.51-.72v-.12A.75.75,0,0,1,14.89,40.79Z" style="fill:#1d212b"/><path d="M14,26.21a.56.56,0,0,0-1.07.31l1.81,6.28-4.62,1.33L7.68,25.58l4.62-1.33.1.34a.56.56,0,1,0,1.07-.31l-.25-.87a.56.56,0,0,0-.69-.38L6.84,24.66a.56.56,0,0,0-.38.69L9.24,35a.56.56,0,0,0,.69.38l5.69-1.64a.55.55,0,0,0,.15-.08V32.22Z" style="fill:#1d212b"/><path d="M13.54,37.2a.56.56,0,1,0-.31-1.07,1.67,1.67,0,1,0,2.07,1.14.56.56,0,1,0-1.07.31.56.56,0,1,1-.69-.38Z" style="fill:#1d212b"/><path d="M53.84,45.12a2.91,2.91,0,0,0,3.34-2.41l2.6-16a.57.57,0,0,0-1.12-.18l-2.6,16A1.77,1.77,0,0,1,54,44L47.28,42.9A2.75,2.75,0,0,1,47,44Z" style="fill:#1d212b"/><path d="M57.85,20.39,46.17,18.5a2.9,2.9,0,0,0-2.45.76,3.51,3.51,0,0,1,.95.68A1.77,1.77,0,0,1,46,19.62l11.68,1.89a1.77,1.77,0,0,1,1.47,2,.57.57,0,0,0,1.12.18A2.91,2.91,0,0,0,57.85,20.39Z" style="fill:#1d212b"/><path d="M54.78,38.25a.57.57,0,0,0,.65-.47l1.8-11.12a.57.57,0,1,0-1.12-.18L54.4,37l-8.72-1.41v1.15Z" style="fill:#1d212b"/><path d="M45,23.12l-.5,3.08a.73.73,0,0,1,.4-.13.75.75,0,0,1,.7.48l.72-4.47,10.21,1.65-.08.47a.57.57,0,0,0,1.12.18l.17-1a.57.57,0,0,0-.47-.65L46,20.87a.56.56,0,0,0-.54.23,3.48,3.48,0,0,1,.25,1.29A.74.74,0,0,1,45,23.12Z" style="fill:#1d212b"/><path d="M49.48,40.38a.57.57,0,1,0,.18-1.12,1.71,1.71,0,1,0,1.41,2A.57.57,0,0,0,50,41a.57.57,0,1,1-.47-.65Z" style="fill:#1d212b"/><polygon points="17.27 40.76 17.17 40.79 17.27 40.79 17.27 40.76" style="fill:#1d212b"/><path d="M44,21.09l-.05.32a2,2,0,0,1,.26,1,.75.75,0,0,0,.75.75l.1,0,.29-1.78a.56.56,0,0,1,.11-.24,3.51,3.51,0,0,0-.75-1.16A1.77,1.77,0,0,0,44,21.09Z" style="fill:#1d212b"/><path d="M16.39,25l.88,3V22.38a2,2,0,0,1,2-2h22.9a2,2,0,0,1,.76.15,2.88,2.88,0,0,1,.79-1.28,3.46,3.46,0,0,0-1.56-.38H19.27a3.51,3.51,0,0,0-3.51,3.51v2.25A.55.55,0,0,1,16.39,25Z" style="fill:#1d212b"/><path d="M28.49,41.54a.75.75,0,0,1-.75.75h1.63a.75.75,0,1,0,0-1.51H27.73A.75.75,0,0,1,28.49,41.54Z" style="fill:#1d212b"/><polygon points="17.17 40.79 17.27 40.76 17.27 39.6 15.76 40.04 15.76 40.79 17.17 40.79" style="fill:#1d212b"/><path d="M17.27,28.06l-.88-3a.55.55,0,0,0-.63-.38v2.21l1.51,5.22Z" style="fill:#1d212b"/><path d="M16,33l-.23-.8v1.41A.55.55,0,0,0,16,33Z" style="fill:#1d212b"/><path d="M43.72,19.26a2.88,2.88,0,0,0-.79,1.28,2,2,0,0,1,1,.88l.05-.32a1.77,1.77,0,0,1,.71-1.15A3.51,3.51,0,0,0,43.72,19.26Z" style="fill:#1d212b"/><path d="M45,23.12a.74.74,0,0,0,.65-.73,3.48,3.48,0,0,0-.25-1.29.56.56,0,0,0-.11.24Z" style="fill:#1d212b"/><path d="M45.67,35.62v-8.8a.75.75,0,0,0-.05-.27l-1.43,8.83Z" style="fill:#1d212b"/><polygon points="44.16 40.79 45.67 40.79 45.67 36.78 44.16 36.53 44.16 40.79" style="fill:#1d212b"/><path d="M44.16,26.82V28.4l.36-2.2A.74.74,0,0,0,44.16,26.82Z" style="fill:#1d212b"/><path d="M33.29,41.54a.75.75,0,0,1,.75-.75H32.42a.75.75,0,1,0,0,1.51H34A.75.75,0,0,1,33.29,41.54Z" style="fill:#1d212b"/><path d="M44.92,26.07a.73.73,0,0,0-.4.13l-.36,2.2v8.14l1.51.24V35.62l-1.49-.24,1.43-8.83A.75.75,0,0,0,44.92,26.07Z" style="fill:#1d212b"/><path d="M44.51,44H16.93a1.28,1.28,0,0,1-1.28-1.28v-.46h.87a.75.75,0,0,1-.75-.75v-.35l-1.62.47v1.09a2.79,2.79,0,0,0,2.79,2.79H44.51A2.78,2.78,0,0,0,47,44l-1.67-.27A1.27,1.27,0,0,1,44.51,44Z" style="fill:#1d212b"/><path d="M44.92,42.29h.87v.37l1.49.24c0-.05,0-.1,0-.15V41.54a.75.75,0,0,0-.75-.75h-.87v.75A.75.75,0,0,1,44.92,42.29Z" style="fill:#1d212b"/><path d="M15.76,40.79h-.87a.75.75,0,0,0-.75.75v.12l1.62-.47Z" style="fill:#1d212b"/><path d="M45.79,42.75a1.27,1.27,0,0,1-.47,1L47,44a2.75,2.75,0,0,0,.3-1.11l-1.49-.24Z" style="fill:#1d212b"/><path d="M28.49,41.54a.75.75,0,0,0-.75-.75H17.17l-1.41.41v.35a.75.75,0,0,0,.75.75H27.73A.75.75,0,0,0,28.49,41.54Z" style="fill:#1d212b"/><polygon points="15.76 40.79 15.76 41.19 17.17 40.79 15.76 40.79" style="fill:#1d212b"/><path d="M33.29,41.54a.75.75,0,0,0,.75.75h6.43a2.9,2.9,0,0,1-.71-1.51H34A.75.75,0,0,0,33.29,41.54Z" style="fill:#1d212b"/><path d="M40.91,40.79a1.77,1.77,0,0,0,1.43,1.32l1.17.19h1.4a.75.75,0,0,0,.75-.75v-.75H40.91Z" style="fill:#1d212b"/><path d="M40.48,42.29h3l-1.17-.19a1.77,1.77,0,0,1-1.43-1.32H39.76A2.9,2.9,0,0,0,40.48,42.29Z" style="fill:#1d212b"/><path d="M19.71,39a.74.74,0,0,0,.71.54H39.81l.24-1.51H21.17V23.93H40.26v1.18a.75.75,0,0,0,1.51,0V23.18a.75.75,0,0,0-.75-.75H20.42a.75.75,0,0,0-.75.75V36.35l.2.7A2.82,2.82,0,0,1,19.71,39Z" style="fill:#1d212b"/><path d="M41,28.55a.75.75,0,0,0-.75.75v7.45l1.29-8A.75.75,0,0,0,41,28.55Z" style="fill:#1d212b"/><path d="M41,39.56a.75.75,0,0,0,.75-.75V34.57l-.81,5Z" style="fill:#1d212b"/><path d="M19.71,39a2.82,2.82,0,0,0,.16-2l-.2-.7V38.8A.73.73,0,0,0,19.71,39Z" style="fill:#1d212b"/><path d="M41,39.56l.81-5V29.3a.75.75,0,0,0-.21-.52l-1.29,8v1.3h-.21l-.24,1.51Z" style="fill:#1d212b"/></svg>