<svg id="Calque_1" data-name="Calque 1" xmlns="http://www.w3.org/2000/svg" xmlns:xlink="http://www.w3.org/1999/xlink" viewBox="0 0 64 64"><defs><clipPath id="clip-path"><polygon points="25.94 32 36.92 9.65 52.08 9.65 52.08 55.11 35.41 55.11 25.94 32" style="fill:none"/></clipPath></defs><title>audio</title><rect x="7" y="7" width="50" height="50" style="fill:none;stroke:#000;stroke-miterlimit:10;stroke-width:2px"/><path d="M26.89,41.67l-5.73-6.26H18.41a.62.62,0,0,1-.62-.62V30a.62.62,0,0,1,.62-.62h2.74l5.73-6.26" style="fill:none;stroke:#000;stroke-miterlimit:10;stroke-width:2px"/><g style="clip-path:url(#clip-path)"><path d="M26.32,25.94a6.06,6.06,0,0,1,0,12.12" style="fill:none;stroke:#000;stroke-miterlimit:10;stroke-width:2px"/><path d="M26.32,19.5a12.5,12.5,0,0,1,0,25" style="fill:none;stroke:#000;stroke-miterlimit:10;stroke-width:2px"/><path d="M26.32,11.92a20.08,20.08,0,0,1,0,40.15" style="fill:none;stroke:#000;stroke-miterlimit:10;stroke-width:2px"/></g></svg>