<svg id="Calque_1" data-name="Calque 1" xmlns="http://www.w3.org/2000/svg" xmlns:xlink="http://www.w3.org/1999/xlink" viewBox="0 0 64 64"><defs><clipPath id="clip-path"><polygon points="21.16 50.13 9.97 27.48 42.09 22.96 53.28 45.61 21.16 50.13" style="fill:none"/></clipPath><clipPath id="clip-path-2"><polygon points="22.29 41.79 11.11 19.14 43.23 14.63 54.41 37.28 22.29 41.79" style="fill:none"/></clipPath></defs><title>background_options</title><rect x="7" y="7" width="50" height="50" style="fill:none;stroke:#000;stroke-miterlimit:10;stroke-width:2px"/><g style="isolation:isolate"><g style="clip-path:url(#clip-path)"><path d="M19.71,43.35,12.49,28.73l28.57-4,4.66,9.43,1.91.95-.73,1.25-.12-.06,4,8.07-6.5.91.24.12-.73,1.24-2-1L22.19,48.37l-1.43-2.89-.18.31L18.8,44.9l.91-1.55M42.09,23,10,27.48,21.16,50.13l32.12-4.51L42.09,23" style="fill:#b3b3b3"/><polyline points="24.4 35.37 19.71 43.35 18.8 44.9 20.58 45.79 20.76 45.48 25.45 37.51 41.74 45.62 43.77 46.63 44.5 45.39 44.26 45.27 34.46 40.39 34.14 40.93 32.36 40.05 32.68 39.5 24.4 35.37" style="fill:#b3b3b3"/><polyline points="38.07 30.34 32.68 39.5 32.36 40.05 34.14 40.93 34.46 40.39 39.12 32.48 46.77 36.28 46.9 36.35 47.62 35.1 45.72 34.15 38.07 30.34" style="fill:#b3b3b3"/><path d="M30.66,33.13a2.62,2.62,0,0,1-2.57-1.28,1.2,1.2,0,0,1,1.06-1.78,2.61,2.61,0,0,1,2.56,1.27,1.2,1.2,0,0,1-1,1.79M28.4,28.55c-2,.28-2.92,1.87-2.09,3.55a5.19,5.19,0,0,0,5.09,2.54c2-.28,2.91-1.87,2.09-3.55a5.19,5.19,0,0,0-5.09-2.54" style="fill:#b3b3b3"/></g></g><g style="isolation:isolate"><g style="clip-path:url(#clip-path-2)"><path d="M23.32,40,13.63,20.41l28.57-4L51.89,36,23.32,40m19.9-25.41L11.1,19.14,22.29,41.79l32.12-4.51L43.23,14.63"/></g></g></svg>