<svg id="Calque_1" data-name="Calque 1" xmlns="http://www.w3.org/2000/svg" viewBox="0 0 64 64"><title>camera</title><rect x="7" y="7" width="50" height="50" style="fill:none;stroke:#000;stroke-miterlimit:10;stroke-width:2px"/><circle cx="32.38" cy="31.62" r="5.3" style="fill:none;stroke:#000;stroke-miterlimit:10;stroke-width:2px"/><path d="M38.56,22.94l-.32-2a1.76,1.76,0,0,0-1.74-1.49H28.26a1.76,1.76,0,0,0-1.74,1.49l-.32,2a1.76,1.76,0,0,1-1.74,1.49H19a1.76,1.76,0,0,0-1.76,1.76V39.33A1.76,1.76,0,0,0,19,41.09H45.77a1.76,1.76,0,0,0,1.76-1.76V26.19a1.76,1.76,0,0,0-1.76-1.76H40.3A1.76,1.76,0,0,1,38.56,22.94Z" style="fill:none;stroke:#000;stroke-miterlimit:10;stroke-width:2px"/></svg>