<svg id="Calque_1" data-name="Calque 1" xmlns="http://www.w3.org/2000/svg" viewBox="0 0 64 64"><title>delete</title><rect x="7" y="7" width="50" height="50" style="fill:none;stroke:#000;stroke-miterlimit:10;stroke-width:2px"/><path d="M40,49.27H23.73A3.53,3.53,0,0,1,20.23,46L18.32,20.19a1,1,0,0,1,1-1.12h25a1,1,0,1,1,0,2.08H20.48l1.83,24.72a1.43,1.43,0,0,0,1.42,1.32H40a1.44,1.44,0,0,0,1.42-1.32l1.54-20.51a1,1,0,0,1,1.12-1,1,1,0,0,1,1,1.12L43.48,46A3.53,3.53,0,0,1,40,49.27Z" style="fill:#1d212b"/><path d="M47,21.15H16.75a1,1,0,0,1,0-2.08H47a1,1,0,0,1,0,2.08Z" style="fill:#1d212b"/><path d="M36.54,21.15H27.17a1,1,0,0,1-1-1.29l.6-2.4A3.37,3.37,0,0,1,30,14.9h3.65A3.37,3.37,0,0,1,37,17.46l.6,2.4a1,1,0,0,1-1,1.29Zm-8-2.08h6.71L34.93,18a1.29,1.29,0,0,0-1.25-1H30a1.29,1.29,0,0,0-1.25,1Z" style="fill:#1d212b"/><path d="M31.86,45.11a1,1,0,0,1-1-1V24.27a1,1,0,0,1,2.08,0V44.07A1,1,0,0,1,31.86,45.11Z" style="fill:#1d212b"/><path d="M37.06,45.22H37a1,1,0,0,1-1-1.11l1.33-20.06a1,1,0,0,1,2.08.14L38.09,44.25A1,1,0,0,1,37.06,45.22Z" style="fill:#1d212b"/><path d="M26.84,45.22a1,1,0,0,1-1-.95L24,24.22A1,1,0,1,1,26.09,24l1.79,20.06a1,1,0,0,1-.95,1.13Z" style="fill:#1d212b"/></svg>