<svg id="Calque_1" data-name="Calque 1" xmlns="http://www.w3.org/2000/svg" viewBox="0 0 64 64"><title>fill</title><rect x="7" y="7" width="50" height="50" style="fill:none;stroke:#000;stroke-miterlimit:10;stroke-width:2px"/><path d="M22.09,25.43H37.24a0,0,0,0,1,0,0V37.35A3.61,3.61,0,0,1,33.62,41H25.7a3.61,3.61,0,0,1-3.61-3.61V25.43A0,0,0,0,1,22.09,25.43Z" transform="translate(32.16 -11.25) rotate(45)" style="fill:none;stroke:#000;stroke-miterlimit:10;stroke-width:2px"/><circle cx="29.8" cy="27.7" r="1.14" transform="translate(-10.86 29.18) rotate(-45)" style="fill:none;stroke:#000;stroke-miterlimit:10;stroke-width:2px"/><line x1="29.8" y1="27.7" x2="27.65" y2="18.06" style="fill:none;stroke:#000;stroke-linecap:round;stroke-miterlimit:10;stroke-width:2px"/><path d="M40.33,33.14H20.27a.65.65,0,0,0-.47,1.1l9.08,9.41a.65.65,0,0,0,.93,0Z"/><path d="M44.12,41.47a2.65,2.65,0,0,1-5.3,0c0-1.46,2.65-3.79,2.65-3.79S44.12,40,44.12,41.47Z" style="stroke:#000;stroke-linecap:round;stroke-miterlimit:10;stroke-width:2px"/></svg>