<svg id="Calque_1" data-name="Calque 1" xmlns="http://www.w3.org/2000/svg" viewBox="0 0 64 64"><title>link</title><rect x="7" y="7" width="50" height="50" style="fill:none;stroke:#000;stroke-miterlimit:10;stroke-width:2px"/><path d="M33.9,37.36l-5,5a4.84,4.84,0,0,1-6.82,0h0a4.84,4.84,0,0,1,0-6.82l5-5a4.84,4.84,0,0,1,6.82,0h0" style="fill:none;stroke:#000;stroke-miterlimit:10;stroke-width:2px"/><path d="M31.42,26.2l5-5a4.84,4.84,0,0,1,6.82,0h0a4.84,4.84,0,0,1,0,6.82l-5,5a4.84,4.84,0,0,1-6.82,0h0" style="fill:none;stroke:#000;stroke-miterlimit:10;stroke-width:2px"/></svg>