<svg id="Calque_1" data-name="Calque 1" xmlns="http://www.w3.org/2000/svg" viewBox="0 0 64 64"><title>mobile_only</title><polyline points="30.5 26.01 35.05 30.56 44.04 21.57" style="fill:none;stroke:#000;stroke-linecap:round;stroke-linejoin:round;stroke-width:3px"/><path d="M36.85,51H25.08A5.12,5.12,0,0,1,20,45.89V18.11A5.12,5.12,0,0,1,25.08,13H36.85A5.12,5.12,0,0,1,42,18.11a1,1,0,1,1-2,0A3.12,3.12,0,0,0,36.85,15H25.08A3.12,3.12,0,0,0,22,18.11V45.89A3.12,3.12,0,0,0,25.08,49H36.85A3.12,3.12,0,0,0,40,45.89V30.38a1,1,0,0,1,2,0V45.89A5.12,5.12,0,0,1,36.85,51Z" style="fill:#1d212b"/><path d="M36.28,38H25.64a1,1,0,0,1-1-1V19a1,1,0,0,1,1-1H36.28a1,1,0,0,1,1,1v1.64a1,1,0,0,1-2,0V20H26.64V36h8.64V34.25a1,1,0,0,1,2,0V37A1,1,0,0,1,36.28,38Z" style="fill:#1d212b"/><path d="M31,47a3,3,0,1,1,0-6,1,1,0,0,1,0,2,1,1,0,1,0,1,1,1,1,0,0,1,2,0A3,3,0,0,1,31,47Z" style="fill:#1d212b"/></svg>