<svg id="Calque_1" data-name="Calque 1" xmlns="http://www.w3.org/2000/svg" viewBox="0 0 64 64"><title>quote</title><rect x="7" y="7" width="50" height="50" style="fill:none;stroke:#000;stroke-miterlimit:10;stroke-width:2px"/><path d="M19.46,40.56a29.16,29.16,0,0,0,3.85-3.07q2.32-2.32,2.32-4.37a1.58,1.58,0,0,0-.28-.94,1.06,1.06,0,0,0-.86-.36,10.18,10.18,0,0,1-1.22.14,4,4,0,0,1-3-1.22,4.47,4.47,0,0,1-1.19-3.27,4.92,4.92,0,0,1,1.2-3.29,4.38,4.38,0,0,1,3.53-1.41,5.56,5.56,0,0,1,4,1.66,6.55,6.55,0,0,1,1.72,4.93A11.51,11.51,0,0,1,26,37.43a24.91,24.91,0,0,1-5.92,4.37Zm15.17,0a30.62,30.62,0,0,0,4-3.21q2.21-2.27,2.21-4.26a1.2,1.2,0,0,0-.36-1,1.18,1.18,0,0,0-.77-.3,10.85,10.85,0,0,1-1.25.14,4,4,0,0,1-3-1.22,4.36,4.36,0,0,1-1.19-3.18,4.7,4.7,0,0,1,1.3-3.5,4.63,4.63,0,0,1,3.4-1.29A5.34,5.34,0,0,1,43,24.54a7,7,0,0,1,1.63,4.9A11.53,11.53,0,0,1,41,37.6a25.81,25.81,0,0,1-5.76,4.21Z"/></svg>