<svg id="Calque_1" data-name="Calque 1" xmlns="http://www.w3.org/2000/svg" viewBox="0 0 64 64"><title>settings</title><rect x="7" y="7" width="50" height="50" style="fill:none;stroke:#000;stroke-miterlimit:10;stroke-width:2px"/><path d="M33.28,48.68H31.1a2.52,2.52,0,0,1-2.52-2.52v-.59a1.25,1.25,0,0,0-.82-1.17l-.54-.22a1.26,1.26,0,0,0-1.41.24l-.42.42a2.52,2.52,0,0,1-3.56,0L20.3,43.3a2.52,2.52,0,0,1,0-3.56l.42-.42A1.26,1.26,0,0,0,21,37.91q-.12-.26-.22-.54a1.25,1.25,0,0,0-1.17-.82H19A2.52,2.52,0,0,1,16.46,34V31.86A2.52,2.52,0,0,1,19,29.34h.59a1.25,1.25,0,0,0,1.17-.82q.1-.27.22-.54a1.25,1.25,0,0,0-.24-1.41l-.42-.42a2.52,2.52,0,0,1,0-3.56l1.54-1.54a2.58,2.58,0,0,1,3.56,0l.42.42a1.25,1.25,0,0,0,1.41.24l.53-.22a1.25,1.25,0,0,0,.82-1.17v-.59a2.52,2.52,0,0,1,2.52-2.52h2.18a2.52,2.52,0,0,1,2.52,2.52v.59a1.25,1.25,0,0,0,.82,1.17l.53.22a1.26,1.26,0,0,0,1.41-.24l.42-.42a2.58,2.58,0,0,1,3.56,0l1.54,1.54a2.52,2.52,0,0,1,0,3.56l-.42.42A1.26,1.26,0,0,0,43.42,28q.12.26.22.54a1.25,1.25,0,0,0,1.17.82h.59a2.52,2.52,0,0,1,2.52,2.52V34a2.52,2.52,0,0,1-2.52,2.52h-.59a1.25,1.25,0,0,0-1.17.82q-.1.27-.22.54a1.25,1.25,0,0,0,.24,1.41l.42.42a2.52,2.52,0,0,1,0,3.56l-1.54,1.54a2.52,2.52,0,0,1-3.56,0l-.42-.42a1.26,1.26,0,0,0-1.41-.24l-.53.22a1.25,1.25,0,0,0-.82,1.17v.59A2.52,2.52,0,0,1,33.28,48.68Zm-6.59-6.1a2.82,2.82,0,0,1,1.14.24l.47.19a2.73,2.73,0,0,1,1.77,2.55v.59a1,1,0,0,0,1,1h2.18a1,1,0,0,0,1-1v-.59A2.73,2.73,0,0,1,36.08,43l.47-.19a2.73,2.73,0,0,1,3.06.55l.42.42a1,1,0,0,0,1.46,0L43,42.25a1,1,0,0,0,0-1.46l-.42-.42a2.73,2.73,0,0,1-.55-3.06q.1-.23.19-.47a2.73,2.73,0,0,1,2.55-1.77h.59a1,1,0,0,0,1-1V31.86a1,1,0,0,0-1-1h-.59a2.73,2.73,0,0,1-2.55-1.77q-.09-.24-.19-.47a2.73,2.73,0,0,1,.55-3.06l.42-.42a1,1,0,0,0,0-1.46l-1.54-1.54a1.06,1.06,0,0,0-1.46,0l-.42.42a2.73,2.73,0,0,1-3.06.55l-.47-.19a2.73,2.73,0,0,1-1.77-2.55v-.59a1,1,0,0,0-1-1H31.1a1,1,0,0,0-1,1v.59a2.73,2.73,0,0,1-1.77,2.55l-.47.19a2.73,2.73,0,0,1-3.06-.55l-.42-.42a1.06,1.06,0,0,0-1.46,0l-1.54,1.54a1,1,0,0,0,0,1.46l.42.42a2.73,2.73,0,0,1,.55,3.06q-.1.23-.19.47a2.73,2.73,0,0,1-2.55,1.77H19a1,1,0,0,0-1,1V34a1,1,0,0,0,1,1h.59a2.73,2.73,0,0,1,2.55,1.77q.09.24.19.47a2.73,2.73,0,0,1-.55,3.06l-.42.42a1,1,0,0,0,0,1.46l1.54,1.54a1,1,0,0,0,1.46,0l.42-.42A2.7,2.7,0,0,1,26.69,42.58Zm5.5-3.48a6.15,6.15,0,1,1,6.15-6.15A6.15,6.15,0,0,1,32.19,39.09Zm0-10.81a4.66,4.66,0,1,0,4.66,4.66A4.67,4.67,0,0,0,32.19,28.29Z" style="fill:#1d212b"/></svg>