<svg id="Calque_1" data-name="Calque 1" xmlns="http://www.w3.org/2000/svg" viewBox="0 0 64 64"><title>tablet_only</title><polyline points="27.01 27.12 31.56 31.67 40.55 22.68" style="fill:none;stroke:#000;stroke-linecap:round;stroke-linejoin:round;stroke-width:3px"/><path d="M42.39,54H21.61a5.12,5.12,0,0,1-5.11-5.11V15.11A5.12,5.12,0,0,1,21.61,10H42.39a5.12,5.12,0,0,1,5.11,5.11,1,1,0,1,1-2,0A3.12,3.12,0,0,0,42.39,12H21.61a3.12,3.12,0,0,0-3.11,3.11V48.89A3.12,3.12,0,0,0,21.61,52H42.39a3.12,3.12,0,0,0,3.11-3.11V20.38a1,1,0,0,1,2,0V48.89A5.12,5.12,0,0,1,42.39,54Z" style="fill:#1d212b"/><path d="M42.08,41.83H21.92a1,1,0,0,1-1-1V15.17a1,1,0,0,1,1-1H42.08a1,1,0,0,1,1,1V17a1,1,0,0,1-2,0v-.83H22.92V39.83H41.08V28.05a1,1,0,1,1,2,0V40.83A1,1,0,0,1,42.08,41.83Z" style="fill:#1d212b"/><path d="M33.5,51a3,3,0,0,1,0-6,1,1,0,0,1,0,2,1,1,0,1,0,1,1,1,1,0,0,1,2,0A3,3,0,0,1,33.5,51Z" style="fill:#1d212b"/></svg>