<svg xmlns="http://www.w3.org/2000/svg" viewBox="0 0 64 64"><title>download</title><g id="Mode_Isolation" data-name="Mode Isolation"><path d="M46.64,20.89a12.6,12.6,0,0,0-21.85-5.44,8.34,8.34,0,0,0-1-.06,8.45,8.45,0,0,0-7.92,5.55A10.41,10.41,0,0,0,11.38,31.3,10.57,10.57,0,0,0,21.89,40h4.86a.16.16,0,0,0,.16-.16h0a3.17,3.17,0,0,0-3.17-3.17H21.83A7.19,7.19,0,0,1,14.59,30a7.07,7.07,0,0,1,4.12-6.81.13.13,0,0,0,.08-.1A5.09,5.09,0,0,1,26,19.24a.14.14,0,0,0,.18-.06,9.27,9.27,0,0,1,17.38,4.2.14.14,0,0,0,.12.13,6.62,6.62,0,0,1,5.69,6.73,6.74,6.74,0,0,1-6.8,6.43H40.19A3.17,3.17,0,0,0,37,39.85h0a.16.16,0,0,0,.16.16h5.43A10.07,10.07,0,0,0,52.7,31.08,10,10,0,0,0,46.64,20.89Z"/><path d="M36.13,44.74,33.89,47a.13.13,0,0,1-.22-.09V34.16a1.53,1.53,0,0,0-1.53-1.53H30.87a.53.53,0,0,0-.53.53V46.89a.13.13,0,0,1-.22.09l-2.24-2.24a2.74,2.74,0,0,0-3.88,0h0a.59.59,0,0,0,0,.83l6.91,6.91a1.56,1.56,0,0,0,2.21,0L40,45.57a.59.59,0,0,0,0-.83h0A2.74,2.74,0,0,0,36.13,44.74Z"/></g></svg>