<svg xmlns="http://www.w3.org/2000/svg" viewBox="0 0 64 64"><title>embed</title><g id="Mode_Isolation" data-name="Mode Isolation"><path d="M20.91,47.37A3,3,0,0,1,19,46.68L3.93,34.16a3,3,0,0,1-.07-4.55L18.93,16.24a3,3,0,0,1,4,4.49l-12.46,11L22.83,42.06a3,3,0,0,1-1.92,5.31Z"/><path d="M43.09,47.37a3,3,0,0,1-1.92-5.31L53.55,31.78l-12.46-11a3,3,0,0,1,4-4.49L60.15,29.61a3,3,0,0,1-.07,4.55L45,46.68A3,3,0,0,1,43.09,47.37Z"/><path d="M27.88,49.92A3,3,0,0,1,25,46.17l7.67-29.84a3,3,0,0,1,5.81,1.49L30.78,47.67A3,3,0,0,1,27.88,49.92Z"/></g></svg>