<svg xmlns="http://www.w3.org/2000/svg" viewBox="0 0 64 64"><title>loop1</title><g id="Calque_1" data-name="Calque 1"><path d="M20.12,26.25V12.35L11.69,18a1.6,1.6,0,0,0,0,2.66Z"/><path d="M55.78,29.17h-1a4.94,4.94,0,0,1-4.39-2.91,6.62,6.62,0,0,0-5.94-3.71H14.89v-6.4h29.6A13,13,0,0,1,57.38,27.35,1.61,1.61,0,0,1,55.78,29.17Z"/><path d="M43.88,37.75v13.9L52.31,46a1.6,1.6,0,0,0,0-2.66Z"/><path d="M49.11,47.84H19.51A13,13,0,0,1,6.62,36.65a1.61,1.61,0,0,1,1.6-1.82h1a4.94,4.94,0,0,1,4.39,2.91,6.62,6.62,0,0,0,5.94,3.71h29.6Z"/></g><g id="Mode_Isolation" data-name="Mode Isolation"><path d="M59.72,14.71h2.41a.21.21,0,0,1,.23.23v3a.21.21,0,0,1-.23.23H53a.21.21,0,0,1-.23-.23v-3a.21.21,0,0,1,.23-.23H55.4a.22.22,0,0,0,.23-.23V5.57a.21.21,0,0,0-.23-.23H53c-.14,0-.25-.09-.23-.23l.45-3c0-.14.09-.23.23-.23l5.8,0a.21.21,0,0,1,.23.23V14.48A.22.22,0,0,0,59.72,14.71Z"/></g></svg>