<svg id="Calque_1" data-name="Calque 1" xmlns="http://www.w3.org/2000/svg" viewBox="0 0 64 64"><title>random</title><path d="M54,17V30l7.91-5.27a1.5,1.5,0,0,0,0-2.5Z"/><path d="M54.19,37.78v13l7.91-5.27a1.5,1.5,0,0,0,0-2.5Z"/><path d="M54.19,47.23H49.07A26.45,26.45,0,0,1,27.19,35.05a19.8,19.8,0,0,0-16.54-8.84H5.1A4.47,4.47,0,0,1,.62,21.74v0a1.5,1.5,0,0,1,1.5-1.5h8.6A26.45,26.45,0,0,1,32.61,32.38a19.8,19.8,0,0,0,16.54,8.84h5Z"/><path d="M9.23,47.23H2.13a1.5,1.5,0,0,1-1.5-1.5v0A4.47,4.47,0,0,1,5.1,41.22H9.15a19.67,19.67,0,0,0,16.64-9,25.78,25.78,0,0,1,21.86-12h6.54v6H47.65a19.8,19.8,0,0,0-16.54,8.84A26.45,26.45,0,0,1,9.23,47.23Z"/></svg>