<svg xmlns="http://www.w3.org/2000/svg" viewBox="0 0 64 64"><title>share</title><g id="Mode_Isolation" data-name="Mode Isolation"><path d="M41.19,50.21H22.81a3.71,3.71,0,0,1-3.71-3.71V28.13a3.71,3.71,0,0,1,3.71-3.71h4.76v3H22.81a.71.71,0,0,0-.71.71V46.51a.71.71,0,0,0,.71.71H41.19a.71.71,0,0,0,.71-.71V28.13a.71.71,0,0,0-.71-.71H36.46v-3h4.72a3.71,3.71,0,0,1,3.71,3.71V46.51A3.71,3.71,0,0,1,41.19,50.21Z"/><path d="M27.87,19.64l2.24-2.24a.13.13,0,0,1,.22.09V36.23a1.53,1.53,0,0,0,1.53,1.53h1.27a.53.53,0,0,0,.53-.53V17.49a.13.13,0,0,1,.22-.09l2.24,2.24a2.74,2.74,0,0,0,3.88,0h0a.59.59,0,0,0,0-.83L33.1,11.9a1.56,1.56,0,0,0-2.21,0L24,18.81a.59.59,0,0,0,0,.83h0A2.74,2.74,0,0,0,27.87,19.64Z"/></g></svg>