<svg xmlns="http://www.w3.org/2000/svg" viewBox="0 0 64 64"><title>volume</title><g id="Mode_Isolation" data-name="Mode Isolation"><path d="M28.94,14.12,18.38,21.26a3,3,0,0,1-1.65.51H6.45A3.21,3.21,0,0,0,3.24,25V38.06a3.21,3.21,0,0,0,3.21,3.21H16.57a3.24,3.24,0,0,1,1.81.55l10.56,7.11a2.11,2.11,0,0,0,3.29-1.75V15.87A2.11,2.11,0,0,0,28.94,14.12Z"/><path d="M61.22,31.45h0A28.92,28.92,0,0,0,50.64,9.07a.7.7,0,0,0-1,.11l-.74,1A2.91,2.91,0,0,0,49.2,14a24.29,24.29,0,0,1-.06,34.93,2.91,2.91,0,0,0-.31,3.88l.74,1a.7.7,0,0,0,1,.12A28.92,28.92,0,0,0,61.22,31.45Z"/><path d="M51.94,31.45a19.66,19.66,0,0,0-7-15.07.69.69,0,0,0-1,.11l-.79,1a2.87,2.87,0,0,0,.13,3.72,15,15,0,0,1,0,20.51,2.87,2.87,0,0,0-.15,3.71l.79,1a.69.69,0,0,0,1,.11A19.66,19.66,0,0,0,51.94,31.45Z"/><path d="M42.58,31.45a10.31,10.31,0,0,0-3.4-7.66.7.7,0,0,0-1,.08L37.24,25a3,3,0,0,0-.15,3.41,5.68,5.68,0,0,1,0,6,3,3,0,0,0,.14,3.43L38.13,39a.7.7,0,0,0,1,.09A10.31,10.31,0,0,0,42.58,31.45Z"/></g></svg>