<svg xmlns="http://www.w3.org/2000/svg" viewBox="0 0 64 64"><title>volumecut</title><g id="Mode_Isolation" data-name="Mode Isolation"><path d="M28.94,14.12,18.38,21.26a3,3,0,0,1-1.65.51H6.45A3.21,3.21,0,0,0,3.24,25V38.06a3.21,3.21,0,0,0,3.21,3.21H16.57a3.24,3.24,0,0,1,1.81.55l10.56,7.11a2.11,2.11,0,0,0,3.29-1.75V15.87A2.11,2.11,0,0,0,28.94,14.12Z"/><path d="M54,26l-1.41-1.41a1,1,0,0,0-1.41,0L47,28.75l-4.16-4.16a1,1,0,0,0-1.41,0L40,26a1,1,0,0,0,0,1.41l4.16,4.16L40,35.73a1,1,0,0,0,0,1.41l1.41,1.41a1,1,0,0,0,1.41,0L47,34.4l4.16,4.16a1,1,0,0,0,1.41,0L54,37.14a1,1,0,0,0,0-1.41l-4.16-4.16L54,27.42A1,1,0,0,0,54,26Z"/></g></svg>