<?xml version="1.0" encoding="utf-8"?>
<!-- Generator: Adobe Illustrator 21.1.0, SVG Export Plug-In . SVG Version: 6.00 Build 0)  -->
<svg version="1.1" id="idkComLogoText" xmlns="http://www.w3.org/2000/svg" xmlns:xlink="http://www.w3.org/1999/xlink" x="0px"
	 y="0px" viewBox="0 0 250 80" style="enable-background:new 0 0 250 80;" xml:space="preserve">
<style type="text/css">
	.st0{fill:#4F5455;}
	.st1{fill:#D51418;}
</style>
<g>
	<g>
		<g>
			<g>
				<g>
					<path class="st0" d="M226.3,33.4c0-2.2-1.8-4-4-4s-4,1.8-4,4s1.8,4,4,4C224.5,37.4,226.3,35.6,226.3,33.4z"/>
				</g>
				<path class="st0" d="M239.1,33.8v-0.6h-6.7v0.6l0,0c0,5.6-4.5,10.1-10.1,10.1c-5.6,0-10.1-4.5-10.1-10.1l0,0v-0.6h-6.7v0.6
					c0,9.3,7.5,16.8,16.8,16.8C231.6,50.6,239.1,43.1,239.1,33.8"/>
			</g>
		</g>
	</g>
	<g>
		<g>
			<g>
				<g>
					<rect x="2" y="33.5" class="st0" width="3.2" height="14.9"/>
					<rect x="39.4" y="33.5" class="st0" width="3.2" height="14.9"/>
					<rect x="24.9" y="33.5" class="st0" width="3.2" height="14.9"/>
					<polygon class="st0" points="32.8,33.5 28.6,40.9 28.5,40.9 32.8,48.4 36.3,48.4 32,40.9 36.3,33.5 					"/>
					<rect x="46.9" y="33.5" class="st0" width="3.2" height="14.9"/>
					<path class="st0" d="M51.6,33.5h-0.4v3.2h0.4c2.3,0,4.2,1.9,4.2,4.3c0,2.3-1.9,4.2-4.2,4.3h-0.4v3.2h0.4c4.2,0,7.5-3.3,7.5-7.5
						S55.8,33.5,51.6,33.5z"/>
					<path class="st0" d="M86,48.4h1.2v-3.2h-1.3c-2.3,0-4.2-1.9-4.2-4.3c0-2.3,1.9-4.2,4.2-4.3h1.3v-3.2H86c-4.2,0-7.5,3.3-7.5,7.5
						C78.5,45.1,81.8,48.4,86,48.4z"/>
					<rect x="9.6" y="33.5" class="st0" width="3.2" height="14.9"/>
					<path class="st0" d="M14.4,33.5H14v3.2h0.4c2.3,0,4.2,1.9,4.2,4.3c0,2.3-1.9,4.2-4.2,4.3H14v3.2h0.4c4.1,0,7.5-3.3,7.5-7.5
						C21.8,36.8,18.5,33.5,14.4,33.5z"/>
					<path class="st0" d="M66.5,33c-2.7,0-4.8,2.2-4.8,4.8c0,2.4,1.7,4.3,4,4.7l0.2,0.1v-3.3l-0.1-0.1l-0.1-0.1
						c-0.6-0.2-0.9-0.8-0.9-1.4c0-0.9,0.7-1.5,1.5-1.5s1.5,0.7,1.5,1.5v0.1h3.2v-0.1C71.4,35.1,69.2,33,66.5,33z"/>
					<path class="st0" d="M67.3,39.2h-0.1v3.3h0.1c0.6,0.2,0.9,0.8,0.9,1.4c0,0.9-0.7,1.5-1.5,1.5S65,44.8,65,44v-0.1h-3.2V44
						c0,2.7,2.2,4.8,4.8,4.8c2.7,0,4.8-2.2,4.8-4.8C71.4,41.6,69.6,39.6,67.3,39.2z"/>
					<rect y="29.1" class="st0" width="3" height="3"/>
					<rect x="4.2" y="29.1" class="st0" width="3" height="3"/>
					<rect x="39.4" y="29.1" class="st0" width="3.2" height="3"/>
				</g>
			</g>
		</g>
		<g>
			<polygon class="st0" points="166.1,48.5 167.4,48.5 167.4,33.4 166.1,33.4 			"/>
			<polygon class="st0" points="159.4,35.3 159.4,37.6 165,46.6 165,44.2 			"/>
			<rect x="157" y="33.4" class="st0" width="1.2" height="15.2"/>
			<rect x="171.7" y="33.4" class="st0" width="1.4" height="15.2"/>
			<rect x="176.1" y="33.4" class="st0" width="10.5" height="1.2"/>
			<rect x="180.7" y="35.7" class="st0" width="1.4" height="12.8"/>
			<rect x="192.5" y="43.4" class="st0" width="1.4" height="5.1"/>
			<polygon class="st0" points="196.9,33.4 193.2,40.9 189.4,33.4 187.9,33.4 192.5,42.2 193.9,42.2 198.4,33.4 			"/>
			<polygon class="st0" points="136.4,36 136.4,36 136.4,48.5 137.6,48.5 137.6,33.4 136.4,33.4 			"/>
			<polygon class="st0" points="125.4,33.4 125.4,48.5 126.6,48.5 126.6,36 126.6,36 126.6,33.4 			"/>
			<polygon class="st0" points="131.5,41.2 127.8,35.2 127.8,37.8 131.5,43.8 135.3,37.9 135.3,35.2 			"/>
			<polygon class="st0" points="117.9,38.3 117.9,38.3 117.9,48.5 121,48.5 121,33.4 117.9,33.4 			"/>
			<rect x="107.2" y="33.4" class="st0" width="3" height="15.2"/>
			<polygon class="st0" points="114.1,39.2 111.5,35.2 111.5,40 114.1,43.8 116.7,40.1 116.7,35.2 			"/>
			<rect x="142" y="33.4" class="st0" width="1.4" height="9.2"/>
			<path class="st0" d="M151.3,43.8c0,0.2-0.1,0.6-0.1,0.8c-0.4,1.6-1.9,2.8-3.6,2.9c-0.1,0-0.2,0-0.2,0h-0.1
				c-1.8-0.1-3.3-1.2-3.7-2.9c-0.1-0.2-0.1-0.6-0.1-0.8H142l0,0c0,0.1,0,0.1,0,0.1c0.3,2.7,2.5,4.8,5.3,4.8l0,0c0,0,0,0,0.1,0
				c2.8,0,5-2.1,5.3-4.8v-0.1l0,0L151.3,43.8L151.3,43.8z"/>
			<rect x="151.3" y="33.4" class="st0" width="1.4" height="9.2"/>
		</g>
		<path class="st0" d="M75.6,44.6c-1.1,0-2,0.9-2,2c0,1.1,0.9,2,2,2s2-0.9,2-2C77.6,45.6,76.7,44.6,75.6,44.6"/>
		<g>
			<path class="st0" d="M92.7,41c0-2.2,1.7-4,3.8-4.2v-3.2c-3.9,0.2-7,3.5-7,7.4s3.1,7.2,7,7.4v-3.2C94.4,45,92.7,43.2,92.7,41z"/>
			<path class="st0" d="M104.7,41c0-4-3.1-7.2-7-7.4v3.2c2.1,0.2,3.8,2,3.8,4.2s-1.7,4-3.8,4.2v3.2C101.6,48.2,104.7,45,104.7,41z"
				/>
		</g>
	</g>
	<g>
		<path class="st1" d="M226.3,33.4c0-2.2-1.8-4-4-4s-4,1.8-4,4s1.8,4,4,4C224.5,37.4,226.3,35.6,226.3,33.4z"/>
	</g>
	<path class="st0" d="M239.1,33.8v-0.6h-6.7v0.6l0,0c0,5.6-4.5,10.1-10.1,10.1c-5.6,0-10.1-4.5-10.1-10.1l0,0v-0.6h-6.7v0.6
		c0,9.3,7.5,16.8,16.8,16.8C231.6,50.6,239.1,43.1,239.1,33.8"/>
	<g>
		<rect x="2" y="33.5" class="st0" width="3.2" height="14.9"/>
		<rect x="39.4" y="33.5" class="st0" width="3.2" height="14.9"/>
		<rect x="24.9" y="33.5" class="st0" width="3.2" height="14.9"/>
		<polygon class="st0" points="32.8,33.5 28.6,40.9 28.5,40.9 32.8,48.4 36.3,48.4 32,40.9 36.3,33.5 		"/>
		<rect x="46.9" y="33.5" class="st0" width="3.2" height="14.9"/>
		<path class="st0" d="M51.6,33.5h-0.4v3.2h0.4c2.3,0,4.2,1.9,4.2,4.3c0,2.3-1.9,4.2-4.2,4.3h-0.4v3.2h0.4c4.2,0,7.5-3.3,7.5-7.5
			S55.8,33.5,51.6,33.5z"/>
		<path class="st0" d="M86,48.4h1.2v-3.2h-1.3c-2.3,0-4.2-1.9-4.2-4.3c0-2.3,1.9-4.2,4.2-4.3h1.3v-3.2H86c-4.2,0-7.5,3.3-7.5,7.5
			C78.5,45.1,81.8,48.4,86,48.4z"/>
		<rect x="9.6" y="33.5" class="st0" width="3.2" height="14.9"/>
		<path class="st0" d="M14.4,33.5H14v3.2h0.4c2.3,0,4.2,1.9,4.2,4.3c0,2.3-1.9,4.2-4.2,4.3H14v3.2h0.4c4.1,0,7.5-3.3,7.5-7.5
			C21.8,36.8,18.5,33.5,14.4,33.5z"/>
		<path class="st0" d="M66.5,33c-2.7,0-4.8,2.2-4.8,4.8c0,2.4,1.7,4.3,4,4.7l0.2,0.1v-3.3l-0.1-0.1l-0.1-0.1
			c-0.6-0.2-0.9-0.8-0.9-1.4c0-0.9,0.7-1.5,1.5-1.5s1.5,0.7,1.5,1.5v0.1h3.2v-0.1C71.4,35.1,69.2,33,66.5,33z"/>
		<path class="st0" d="M67.3,39.2h-0.1v3.3h0.1c0.6,0.2,0.9,0.8,0.9,1.4c0,0.9-0.7,1.5-1.5,1.5S65,44.8,65,44v-0.1h-3.2V44
			c0,2.7,2.2,4.8,4.8,4.8c2.7,0,4.8-2.2,4.8-4.8C71.4,41.6,69.6,39.6,67.3,39.2z"/>
		<rect y="29.1" class="st0" width="3" height="3"/>
		<rect x="4.2" y="29.1" class="st0" width="3" height="3"/>
		<rect x="39.4" y="29.1" class="st0" width="3.2" height="3"/>
	</g>
	<polygon class="st0" points="166.1,48.5 167.4,48.5 167.4,33.4 166.1,33.4 	"/>
	<polygon class="st0" points="159.4,35.3 159.4,37.6 165,46.6 165,44.2 	"/>
	<rect x="157" y="33.4" class="st0" width="1.2" height="15.2"/>
	<rect x="171.7" y="33.4" class="st0" width="1.4" height="15.2"/>
	<rect x="176.1" y="33.4" class="st0" width="10.5" height="1.2"/>
	<rect x="180.7" y="35.7" class="st0" width="1.4" height="12.8"/>
	<rect x="192.5" y="43.4" class="st0" width="1.4" height="5.1"/>
	<polygon class="st0" points="196.9,33.4 193.2,40.9 189.4,33.4 187.9,33.4 192.5,42.2 193.9,42.2 198.4,33.4 	"/>
	<polygon class="st0" points="136.4,36 136.4,36 136.4,48.5 137.6,48.5 137.6,33.4 136.4,33.4 	"/>
	<polygon class="st0" points="125.4,33.4 125.4,48.5 126.6,48.5 126.6,36 126.6,36 126.6,33.4 	"/>
	<polygon class="st0" points="131.5,41.2 127.8,35.2 127.8,37.8 131.5,43.8 135.3,37.9 135.3,35.2 	"/>
	<polygon class="st0" points="117.9,38.3 117.9,38.3 117.9,48.5 121,48.5 121,33.4 117.9,33.4 	"/>
	<rect x="107.2" y="33.4" class="st0" width="3" height="15.2"/>
	<polygon class="st0" points="114.1,39.2 111.5,35.2 111.5,40 114.1,43.8 116.7,40.1 116.7,35.2 	"/>
	<rect x="142" y="33.4" class="st0" width="1.4" height="9.2"/>
	<path class="st0" d="M151.3,43.8c0,0.2-0.1,0.6-0.1,0.8c-0.4,1.6-1.9,2.8-3.6,2.9c-0.1,0-0.2,0-0.2,0h-0.1
		c-1.8-0.1-3.3-1.2-3.7-2.9c-0.1-0.2-0.1-0.6-0.1-0.8H142l0,0c0,0.1,0,0.1,0,0.1c0.3,2.7,2.5,4.8,5.3,4.8l0,0c0,0,0,0,0.1,0
		c2.8,0,5-2.1,5.3-4.8v-0.1l0,0L151.3,43.8L151.3,43.8z"/>
	<rect x="151.3" y="33.4" class="st0" width="1.4" height="9.2"/>
	<path class="st1" d="M75.6,44.6c-1.1,0-2,0.9-2,2c0,1.1,0.9,2,2,2s2-0.9,2-2C77.6,45.6,76.7,44.6,75.6,44.6"/>
	<path class="st0" d="M92.7,41c0-2.2,1.7-4,3.8-4.2v-3.2c-3.9,0.2-7,3.5-7,7.4s3.1,7.2,7,7.4v-3.2C94.4,45,92.7,43.2,92.7,41z"/>
	<path class="st0" d="M104.7,41c0-4-3.1-7.2-7-7.4v3.2c2.1,0.2,3.8,2,3.8,4.2s-1.7,4-3.8,4.2v3.2C101.6,48.2,104.7,45,104.7,41z"/>
</g>
</svg>
