<svg id="Calque_1" data-name="Calque 1" xmlns="http://www.w3.org/2000/svg" viewBox="0 0 64 64"><title>icon_oxybul</title><rect width="64" height="64" style="fill:#626a70"/><path d="M51.5,32.11A19.5,19.5,0,1,1,32,12.59,19.51,19.51,0,0,1,51.5,32.11" style="fill:#fff"/><path d="M34.25,17.39A4.45,4.45,0,0,0,32,16.75a4.36,4.36,0,0,0-2.31.68L18.89,23.6l10.78,6.18a4.58,4.58,0,0,0,2.32.64,4.65,4.65,0,0,0,2.33-.64L45.11,23.6Z" style="fill:#da3655"/><path d="M30.4,32.84,17.73,25.66V37.12a4.6,4.6,0,0,0,2.4,4.1l10.64,6.09V33l-.37-.19" style="fill:#6db557"/><path d="M46.27,37.14V25.66L33.59,32.85l-.34.18V47.3l10.62-6.09a4.56,4.56,0,0,0,2.41-4.07" style="fill:#fedd48"/></svg>