<svg id="Calque_1" data-name="Calque 1" xmlns="http://www.w3.org/2000/svg" viewBox="0 0 160 64"><title>logo_njoy</title><rect x="0.01" width="159.99" height="64" style="fill:#82a85c"/><polygon points="48.75 34.55 38.3 20.81 33.77 20.81 33.77 43.13 38.62 43.13 38.62 28.94 49.42 43.13 53.6 43.13 53.6 20.81 48.75 20.81 48.75 34.55" style="fill:#fff"/><path d="M103.24,23.79a11.82,11.82,0,0,0-3.75-2.45,12.91,12.91,0,0,0-9.52,0,11.42,11.42,0,0,0-6.23,6.15A11.27,11.27,0,0,0,82.85,32V32a11.44,11.44,0,0,0,.88,4.48,11,11,0,0,0,2.45,3.63,11.81,11.81,0,0,0,3.75,2.46,12.17,12.17,0,0,0,4.75.91,12.3,12.3,0,0,0,4.77-.91,11.42,11.42,0,0,0,6.23-6.15,11.28,11.28,0,0,0,.89-4.48V31.9a11.45,11.45,0,0,0-.88-4.48A11,11,0,0,0,103.24,23.79ZM101.44,32a7.32,7.32,0,0,1-.49,2.69,7.1,7.1,0,0,1-1.37,2.22,6.19,6.19,0,0,1-2.12,1.5,6.7,6.7,0,0,1-2.71.54A6.52,6.52,0,0,1,92,38.43a6.73,6.73,0,0,1-3.54-3.75A7.43,7.43,0,0,1,88,32V31.9a7.31,7.31,0,0,1,.49-2.69A7.06,7.06,0,0,1,89.85,27,6.24,6.24,0,0,1,92,25.5,6.67,6.67,0,0,1,94.68,25a6.56,6.56,0,0,1,2.71.56,6.69,6.69,0,0,1,3.56,3.75,7.45,7.45,0,0,1,.49,2.71Z" style="fill:#fff"/><polygon points="123.92 20.81 118.5 29.77 113.17 20.81 107.43 20.81 116.01 34.33 116.01 43.13 120.92 43.13 120.92 34.23 129.5 20.81 123.92 20.81" style="fill:#fff"/><path d="M72.42,32h0v.06a7.32,7.32,0,0,1-.49,2.69A7.09,7.09,0,0,1,70.55,37a6.19,6.19,0,0,1-2.12,1.5,6.7,6.7,0,0,1-2.71.54h-.86v4.53h.83a12.29,12.29,0,0,0,4.74-.91,11.42,11.42,0,0,0,6.23-6.15A11.28,11.28,0,0,0,77.55,32h0V20.81H72.42Z" style="fill:#fff"/><path d="M65,24.14a3.72,3.72,0,1,0-3.72,3.72h.07a5.59,5.59,0,0,1-2.07,1.09v1.59a7.59,7.59,0,0,0,1.32-.37,7.18,7.18,0,0,0,2.32-1.41,6.55,6.55,0,0,0,1.52-2.08A5.89,5.89,0,0,0,65,24.53,3.76,3.76,0,0,0,65,24.14Z" style="fill:#fff"/></svg>