<svg id="Calque_1" data-name="Calque 1" xmlns="http://www.w3.org/2000/svg" viewBox="0 0 160 64"><title>logo_oxybul</title><rect width="159.99" height="63.99" style="fill:#626a70"/><path d="M57.16,31.6A17.27,17.27,0,1,1,39.89,14.33,17.28,17.28,0,0,1,57.16,31.6Z" style="fill:#fff"/><path d="M41.92,18.62l0,0a4,4,0,0,0-2-.56,3.86,3.86,0,0,0-2,.6l0,0-9.52,5.42,9.55,5.47a4,4,0,0,0,4.12,0l9.55-5.47Z" style="fill:#d93755"/><path d="M38.73,32.41a2.85,2.85,0,0,1-.27-.15L27.25,25.89V36a4.08,4.08,0,0,0,2.12,3.63l9.42,5.4V32.42Z" style="fill:#6db557"/><path d="M52.33,36.07V26.24L41.4,32.44l-.21.11V44.71l9.11-5.22A3.83,3.83,0,0,0,52.33,36.07Z" style="fill:#fedd48"/><polygon points="76.8 23.09 71.93 23.09 66.99 28.69 61.87 23.09 57 23.09 64.54 31.45 57.03 39.69 61.91 39.69 66.99 34.22 72.06 39.69 76.94 39.69 69.42 31.45 76.8 23.09" style="fill:#fff"/><path d="M127.75,32.14a4.52,4.52,0,0,1-9,0v-9h-3.69v9a8.2,8.2,0,0,0,16.39,0v-9h-3.7Z" style="fill:#fff"/><path d="M135.49,40.16a1.85,1.85,0,0,0,1.85-1.85V15.18h-3.69V38.3A1.86,1.86,0,0,0,135.49,40.16Z" style="fill:#fff"/><path d="M105.08,22.88a8.57,8.57,0,0,0-4.88,1.55V15.18H96.49V31.45a8.58,8.58,0,1,0,8.59-8.57ZM110,31.46a4.89,4.89,0,1,1-4.89-4.9A4.94,4.94,0,0,1,110,31.46Z" style="fill:#fff"/><path d="M94.09,23.1H90.43v9a4.51,4.51,0,0,1-9,0v-9H77.78v9a8,8,0,0,0,8.15,7.83,8.32,8.32,0,0,0,4.5-1.3v2.53A4.89,4.89,0,0,1,85.55,46v3.65a8.53,8.53,0,0,0,8.53-8.52Z" style="fill:#fff"/></svg>