<svg id="Calque_1" data-name="Calque 1" xmlns="http://www.w3.org/2000/svg" viewBox="0 0 64 64"><title>map</title><path d="M25,39s9.52-10.87,9.52-18.48A9.52,9.52,0,0,0,25,11" style="fill:none;stroke:#1d212b;stroke-linecap:round;stroke-linejoin:round"/><path d="M25,39s-9.52-10.87-9.52-18.48A9.52,9.52,0,0,1,25,11" style="fill:none;stroke:#1d212b;stroke-linecap:round;stroke-linejoin:round"/><path d="M27.65,23.17a3.72,3.72,0,1,0-1.71,1" style="fill:none;stroke:#1d212b;stroke-linecap:round;stroke-linejoin:round"/><polyline points="25 42 25 49.5 9.5 52.5 9.5 16.5 14.09 15.61" style="fill:none;stroke:#1d212b;stroke-linecap:round;stroke-linejoin:round"/><polyline points="36.6 15.74 40.5 16.5 40.5 52.5 25 49.5 25 42" style="fill:none;stroke:#1d212b;stroke-linecap:round;stroke-linejoin:round"/><polygon points="56 49.5 40.5 52.5 40.5 16.5 56 13.5 56 49.5" style="fill:none;stroke:#1d212b;stroke-linecap:round;stroke-linejoin:round"/></svg>