<svg id="Calque_1" data-name="Calque 1" xmlns="http://www.w3.org/2000/svg" viewBox="0 0 64 64"><title>boy</title><path d="M27.44,42.88V53.25a1.61,1.61,0,0,0,1.61,1.61h0a1.61,1.61,0,0,0,1.61-1.61V48.62H34v4.62a1.61,1.61,0,1,0,3.23,0V39.83l3.54,4.27A1.62,1.62,0,0,0,43.28,42l-4.39-5.3a1.62,1.62,0,0,0-1.64-.53v0" style="fill:none;stroke:#1d212b;stroke-linecap:round;stroke-linejoin:round;stroke-width:2px"/><path d="M42.29,32.71a14,14,0,1,0-15.23,3.58,1.61,1.61,0,0,0-1.61.54l-4.39,5.3a1.62,1.62,0,1,0,2.49,2.07l3.88-4.68" style="fill:none;stroke:#1d212b;stroke-linecap:round;stroke-linejoin:round;stroke-width:2px"/><path d="M23.79,18.24h16a10.79,10.79,0,0,0,9.42-7.14" style="fill:none;stroke:#1d212b;stroke-linecap:round;stroke-linejoin:round;stroke-width:2px"/></svg>