<svg id="Calque_1" data-name="Calque 1" xmlns="http://www.w3.org/2000/svg" viewBox="0 0 64 64"><title>girl</title><path d="M26.69,43.32l-1.33,7h2.07v2.91a1.61,1.61,0,0,0,1.61,1.61h0a1.61,1.61,0,0,0,1.61-1.61V50.62H34v2.62a1.61,1.61,0,1,0,3.23,0V50.33h2L37.3,39.9l3.48,4.2A1.62,1.62,0,0,0,43.28,42l-4.39-5.3a1.62,1.62,0,0,0-1.64-.53v0" style="fill:none;stroke:#1d212b;stroke-linecap:round;stroke-linejoin:round;stroke-width:2px"/><path d="M42.29,32.71a14,14,0,1,0-15.23,3.58,1.61,1.61,0,0,0-1.61.54l-4.39,5.3a1.62,1.62,0,0,0,2.49,2.07l3.85-4.64" style="fill:none;stroke:#1d212b;stroke-linecap:round;stroke-linejoin:round;stroke-width:2px"/><path d="M17.22,32s15-5.93,15-19.15c0,0,5.17,18.85,16.26,18.85" style="fill:none;stroke:#1d212b;stroke-linecap:round;stroke-linejoin:round;stroke-width:2px"/></svg>