<?xml version="1.0" encoding="utf-8"?>
<!-- Generator: Adobe Illustrator 21.1.0, SVG Export Plug-In . SVG Version: 6.00 Build 0)  -->
<svg version="1.1" id="Calque_1" xmlns="http://www.w3.org/2000/svg" xmlns:xlink="http://www.w3.org/1999/xlink" x="0px" y="0px"
	 viewBox="0 0 64 64" style="enable-background:new 0 0 64 64;" xml:space="preserve">
<path style="fill:#FFFFFF;stroke:#254595;stroke-width:2;stroke-miterlimit:10;" d="M29.2,61.1L2.9,34.8c-1.6-1.6-1.6-4.1,0-5.7
	L29.2,2.9c1.6-1.6,4.1-1.6,5.7,0l26.3,26.3c1.6,1.6,1.6,4.1,0,5.7L34.8,61.1C33.3,62.7,30.7,62.7,29.2,61.1z"/>
<g>
	<g>
		<path style="fill:#FFFFFF;" d="M17.7,33.7L17.7,33.7L17.7,33.7z M17.7,33.8L17.7,33.8L17.7,33.8L17.7,33.8z M17.7,33.8l0.1,0.2
			v-0.1L17.7,33.8L17.7,33.8z"/>
	</g>
	<g>
		<path style="fill:#FFFFFF;" d="M47.5,28.7L47.5,28.7L47.5,28.7L47.5,28.7z M43.8,35.6L43.8,35.6L43.8,35.6L43.8,35.6z"/>
	</g>
	<g>
		<path style="fill:#FFFFFF;" d="M47.5,28.7L47.5,28.7L47.5,28.7L47.5,28.7z M43.8,35.6L43.8,35.6L43.8,35.6L43.8,35.6z"/>
	</g>
</g>
<path style="fill:#274193;" d="M50,24H14.3c-0.1,0-0.2,0.1-0.2,0.2v0.3c0,0.1,0.1,0.2,0.2,0.2H50c0.1,0,0.2-0.1,0.2-0.2v-0.3
	C50.2,24.1,50.1,24,50,24z"/>
<path style="fill:#F98645;" d="M50,39.5H14.3c-0.1,0-0.2,0.1-0.2,0.2V40c0,0.1,0.1,0.2,0.2,0.2H50c0.1,0,0.2-0.1,0.2-0.2v-0.3
	C50.2,39.6,50.1,39.5,50,39.5z"/>
<path style="fill:#39AE8B;" d="M40,14h-0.3c-0.1,0-0.2,0.1-0.2,0.2v35.7c0,0.1,0.1,0.2,0.2,0.2H40c0.1,0,0.2-0.1,0.2-0.2V14.2
	C40.2,14.1,40.1,14,40,14z"/>
<path style="fill:#00AAB8;" d="M24.6,14h-0.3c-0.1,0-0.2,0.1-0.2,0.2v35.7c0,0.1,0.1,0.2,0.2,0.2h0.3c0.1,0,0.2-0.1,0.2-0.2V14.2
	C24.8,14.1,24.7,14,24.6,14z"/>
<path style="fill:#00AAB8;" d="M34.4,13L32,19.7L29.7,13c-0.2-0.6-0.7-1-1.3-1H27l2.9,8.4c0.2,0.6,0.7,1,1.3,1h1.7
	c0.6,0,1.1-0.4,1.3-1l2.9-8.4h-1.4C35.1,12,34.6,12.4,34.4,13z"/>
<path style="fill:#F56560;" d="M17.8,27.3v5.4c0,1.1-0.9,2-2,2s-2-0.9-2-2h-2.3c0,2.4,1.9,4.3,4.3,4.3s4.3-1.9,4.3-4.3v-5.4
	C20.1,27.3,17.8,27.3,17.8,27.3z"/>
<path style="fill:#39AE8B;" d="M33.5,47.9l3.8-4.7h-2.2c-0.4,0-0.8,0.2-1.1,0.5l-2,2.4l-2-2.4c-0.3-0.3-0.7-0.5-1.1-0.5h-2.2
	l3.8,4.7l-3.9,4.7h2.2c0.4,0,0.8-0.2,1.1-0.5l2-2.5l1.4,1.7l0,0l0.6,0.7c0.3,0.3,0.7,0.5,1.1,0.5h2.2L33.5,47.9z M33.5,47.9
	L33.5,47.9L33.5,47.9L33.5,47.9z"/>
<path style="fill:#F98645;" d="M50.9,27.3c-0.5,0-0.9,0.2-1.2,0.6l-2.3,3.5l-0.1-0.2L45.5,28c-0.3-0.4-0.7-0.7-1.2-0.7h-1.8l0.8,1.4
	l0,0l1.6,2.7v0.1l0,0l1.2,2.1l-2,3.1h2c0.5,0,0.9-0.2,1.2-0.6l5.6-8.7L50.9,27.3z"/>
<g>
	<path style="fill:#274193;" d="M32,26.5c-3.1,0-5.6,2.5-5.6,5.6s2.5,5.6,5.6,5.6s5.6-2.5,5.6-5.6S35.1,26.5,32,26.5z M32,35.4
		c-1.8,0-3.3-1.5-3.3-3.3s1.5-3.3,3.3-3.3s3.3,1.5,3.3,3.3C35.4,33.9,33.9,35.4,32,35.4z"/>
</g>
<title>icon_joyvox</title>
</svg>
