<svg id="Calque_1" data-name="Calque 1" xmlns="http://www.w3.org/2000/svg" viewBox="0 0 64 64"><title>icon_bubble</title><rect x="-0.01" width="64.01" height="64" style="fill:#d4cd49"/><path d="M31.86,10.45A22.55,22.55,0,1,1,9.31,33,22.55,22.55,0,0,1,31.86,10.45m0-.88A23.43,23.43,0,1,0,55.29,33,23.46,23.46,0,0,0,31.86,9.57Z" style="fill:#fff"/><path d="M41.67,27a9,9,0,0,0-.54-3.23,8.87,8.87,0,0,0-11.33-5.38L17.36,22.89l9.83,27,3.16-1.15L21.67,24.91l9.27-3.38a5.51,5.51,0,0,1,7,3.37,5.66,5.66,0,0,1-1,5.51l.13-.06a6,6,0,0,1,7.63,3.56,6,6,0,0,1-3.56,7.63l-3.56,1.3L38.8,46l3.56-1.29A9.3,9.3,0,0,0,41.67,27Z" style="fill:#fff"/></svg>