<?xml version="1.0" encoding="utf-8"?>
<!-- Generator: Adobe Illustrator 21.1.0, SVG Export Plug-In . SVG Version: 6.00 Build 0)  -->
<svg version="1.1" id="Calque_1" xmlns="http://www.w3.org/2000/svg" xmlns:xlink="http://www.w3.org/1999/xlink" x="0px" y="0px"
	 viewBox="0 0 64 64" style="enable-background:new 0 0 64 64;" xml:space="preserve">
<style type="text/css">
	.st0{fill:#57369B;}
	.st1{fill:#00AAB8;}
	.st2{fill:#F56560;}
	.st3{fill:#39AE8B;}
	.st4{fill:#F98645;}
</style>
<title>icon_joyvox</title>
<g>
	<g>
		<g>
			<g>
				<path class="st0" d="M32.2,60.7c-1.7,0-3.4-0.6-4.6-1.9L5.7,36.9c-2.6-2.6-2.6-6.7,0-9.3L27.5,5.9c2.6-2.6,6.7-2.6,9.3,0
					l21.8,21.8c2.6,2.6,2.6,6.7,0,9.3L36.8,58.7C35.5,60,33.9,60.7,32.2,60.7z M32.2,4.9c-1.5,0-2.9,0.6-3.9,1.6L6.5,28.4
					c-2.2,2.2-2.2,5.7,0,7.9L28.2,58c1.1,1.1,2.4,1.6,3.9,1.6s2.9-0.6,3.9-1.6l21.8-21.8c2.2-2.2,2.2-5.7,0-7.9L36.1,6.6
					C35.1,5.5,33.7,4.9,32.2,4.9z"/>
			</g>
		</g>
	</g>
	<path class="st1" d="M19.2,29.3l-1.9,5.5l-1.9-5.5c-0.2-0.5-0.6-0.8-1.1-0.8h-1.2l2.3,6.8c0.2,0.5,0.6,0.8,1.1,0.8H18
		c0.5,0,0.9-0.3,1.1-0.8l2.4-6.9h-1.2C19.8,28.6,19.4,28.9,19.2,29.3z"/>
	<path class="st2" d="M31.8,26.8c3.1,0,5.6,2.5,5.6,5.6c0,3.1-2.5,5.6-5.6,5.6c-3.1,0-5.6-2.5-5.6-5.6
		C26.2,29.3,28.7,26.8,31.8,26.8z"/>
	<path class="st0" d="M33,13.4v4.9c0,0.9-0.7,1.6-1.6,1.6s-1.6-0.7-1.6-1.6h-1.9c0,1.9,1.6,3.5,3.5,3.5s3.5-1.6,3.5-3.5v-4.9H33z"/>
	<g>
		<path class="st3" d="M49.4,28.6c-0.3,0-0.7,0.2-0.9,0.4l-1.6,2l-1.6-2c-0.2-0.3-0.5-0.4-0.9-0.4h-1.8l3.1,3.8l-3.2,3.8h1.8
			c0.3,0,0.7-0.2,0.9-0.4l5.9-7.2H49.4z"/>
		<path class="st3" d="M48,32.4l-2.3-0.1l2.8,3.5c0.2,0.3,0.5,0.4,0.9,0.4h1.8L48,32.4z"/>
	</g>
	<g>
		<path class="st4" d="M29.2,43.5h-1.5l3.5,6.2l0.6-2.8l-1.6-2.8C30,43.8,29.6,43.5,29.2,43.5z"/>
		<path class="st4" d="M34.6,43.5c-0.4,0-0.8,0.2-1,0.5l-4.6,7.1h1.6c0.4,0,0.8-0.2,1-0.5l4.6-7.1H34.6z"/>
	</g>
	<g>
		<rect x="38.8" y="15.6" class="st3" width="1" height="33.6"/>
	</g>
	<g>
		<rect x="24.1" y="15.6" class="st1" width="1" height="33.6"/>
	</g>
	<g>
		<rect x="15.1" y="39.3" class="st4" width="33.6" height="1"/>
	</g>
	<g>
		<rect x="15.1" y="24.6" class="st0" width="33.6" height="1"/>
	</g>
</g>
</svg>
