<svg id="Calque_1" data-name="Calque 1" xmlns="http://www.w3.org/2000/svg" viewBox="0 0 64 64"><title>icon_njoy</title><rect width="64" height="64" style="fill:#82a85c"/><path d="M32,43.49a7.58,7.58,0,0,1-6.7-4.06H22.74a9.9,9.9,0,0,0,18.52,0H38.7A7.58,7.58,0,0,1,32,43.49Z" style="fill:#fff"/><path d="M32,11.2A20.8,20.8,0,1,0,52.8,32,20.82,20.82,0,0,0,32,11.2Zm0,38.48A17.68,17.68,0,1,1,49.68,32,17.68,17.68,0,0,1,32,49.68Z" style="fill:#fff"/><path d="M30.82,38.87l1.24,1a.73.73,0,0,0,.93,0l1.11-.95c1.81-1.5,5.32-4.23,6.08-6.27a4.39,4.39,0,0,0,.39-1.79,4.29,4.29,0,0,0-8.09-2,4.29,4.29,0,0,0-8.09,2,4.46,4.46,0,0,0,.41,1.84C25.73,34.94,29.85,38.09,30.82,38.87Z" style="fill:#fff"/><path d="M43.82,22.79,41.66,22l.13-2.29a.28.28,0,0,0-.51-.19l-1.42,1.8-2.14-.83a.28.28,0,0,0-.34.42l1.27,1.91-1.45,1.78a.28.28,0,0,0,.3.45l2.21-.62L41,26.35a.28.28,0,0,0,.24.13h.07a.28.28,0,0,0,.21-.26l.09-2.29,2.22-.59a.28.28,0,0,0,0-.54Z" style="fill:#fff"/></svg>