<?xml version="1.0" encoding="utf-8"?>
<!-- Generator: Adobe Illustrator 21.1.0, SVG Export Plug-In . SVG Version: 6.00 Build 0)  -->
<svg version="1.1" id="Calque_1" xmlns="http://www.w3.org/2000/svg" xmlns:xlink="http://www.w3.org/1999/xlink" x="0px" y="0px"
	 viewBox="0 0 64 64" style="enable-background:new 0 0 64 64;" xml:space="preserve">
<style type="text/css">
	.st0{fill:#FFFFFF;}
	.st1{fill-rule:evenodd;clip-rule:evenodd;fill:#FFFFFF;}
	.st2{fill:#274193;}
	.st3{fill:#F98645;}
	.st4{fill:#39AE8B;}
	.st5{fill:#00AAB8;}
	.st6{fill:#F56560;}
	.st7{fill:#DB4842;}
	.st8{fill-rule:evenodd;clip-rule:evenodd;fill:#7FC7D5;}
	.st9{fill:#7FC7D5;}
	.st10{fill-rule:evenodd;clip-rule:evenodd;fill:#274193;}
	.st11{fill:#254595;}
</style>
<g>
	<g>
		<g>
			<path class="st0" d="M17.7,33.7L17.7,33.7L17.7,33.7z M17.7,33.8L17.7,33.8L17.7,33.8L17.7,33.8z M17.7,33.8l0.1,0.2l0-0.1
				L17.7,33.8L17.7,33.8z"/>
		</g>
		<g>
			<path class="st1" d="M47.5,28.7L47.5,28.7L47.5,28.7L47.5,28.7z M43.8,35.6L43.8,35.6L43.8,35.6L43.8,35.6z"/>
		</g>
		<g>
			<path class="st0" d="M47.5,28.7L47.5,28.7L47.5,28.7L47.5,28.7z M43.8,35.6L43.8,35.6L43.8,35.6L43.8,35.6z"/>
		</g>
		<g>
			<path class="st1" d="M32.2,1.1l0.4,0h0.1L33,1.2l0.4,0.1l0.1,0l0.4,0.1l0.3,0.2l0.1,0.1l0.3,0.2L34.9,2L35,2.1l0.3,0.3L61.6,29
				l0.2,0.3l0.1,0.1l0.2,0.3l0.2,0.3l0.1,0.1l0.2,0.3l0.1,0.5l0.1,0.4l0.1,0.4v0.1l0,0.4l0,0.4v0.1L62.8,33l-0.1,0.4l-0.1,0.5
				l-0.2,0.5l-0.2,0.3L62,34.9L61.9,35l-0.3,0.3L35,61.6l-0.3,0.2L34.6,62l-0.3,0.2L34,62.4l-0.1,0.1l-0.3,0.2l-0.5,0.2l-0.4,0.1
				l-0.4,0l-0.1,0l-0.4,0l-0.4,0l-0.1,0L31,62.8l-0.4-0.1l-0.1,0l-0.3-0.1l-0.3-0.2l-0.1-0.1l-0.3-0.2l-0.3-0.2L29,61.9l-0.3-0.2
				l-0.1-0.1l0.1,0.1L2.4,35l-0.2-0.3L2,34.6l-0.2-0.3L1.6,34l-0.2-0.5l-0.1-0.4l0-0.1l-0.1-0.4l0-0.4l0-0.1l0-0.4l0-0.4l0-0.1
				L1.2,31l0.1-0.4l0-0.1l0.1-0.4l0.2-0.3l0.1-0.1l0.2-0.3l0.2-0.3L2.1,29l0.3-0.3L29,2.4l0.3-0.3L29.4,2l0.3-0.2L30,1.6l0.1-0.1
				l0.3-0.2l0.4-0.1l0.1,0l0.4-0.1l0.4-0.1h0.1L32.2,1.1z"/>
		</g>
		<g>
			<path class="st0" d="M32.2,1.1l0.4,0h0.1L33,1.2l0.4,0.1l0.1,0l0.4,0.1l0.3,0.2l0.1,0.1l0.3,0.2L34.9,2L35,2.1l0.3,0.3L61.6,29
				l0.2,0.3l0.1,0.1l0.2,0.3l0.2,0.3l0.1,0.1l0.2,0.3l0.1,0.5l0.1,0.4l0.1,0.4v0.1l0,0.4l0,0.4v0.1L62.8,33l-0.1,0.4l-0.1,0.5
				l-0.2,0.5l-0.2,0.3L62,34.9L61.9,35l-0.3,0.3L35,61.6l-0.3,0.2L34.6,62l-0.3,0.2L34,62.4l-0.1,0.1l-0.3,0.2l-0.5,0.2l-0.4,0.1
				l-0.4,0l-0.1,0l-0.4,0l-0.4,0l-0.1,0L31,62.8l-0.4-0.1l-0.1,0l-0.3-0.1l-0.3-0.2l-0.1-0.1l-0.3-0.2l-0.3-0.2L29,61.9l-0.3-0.2
				l-0.1-0.1l0.1,0.1L2.4,35l-0.2-0.3L2,34.6l-0.2-0.3L1.6,34l-0.2-0.5l-0.1-0.4l0-0.1l-0.1-0.4l0-0.4l0-0.1l0-0.4l0-0.4l0-0.1
				L1.2,31l0.1-0.4l0-0.1l0.1-0.4l0.2-0.3l0.1-0.1l0.2-0.3l0.2-0.3L2.1,29l0.3-0.3L29,2.4l0.3-0.3L29.4,2l0.3-0.2L30,1.6l0.1-0.1
				l0.3-0.2l0.4-0.1l0.1,0l0.4-0.1l0.4-0.1h0.1L32.2,1.1z"/>
		</g>
	</g>
	<g>
		<g>
			<rect x="14.3" y="24.2" class="st2" width="35.7" height="0.3"/>
			<path class="st2" d="M50,24.7H14.3c-0.1,0-0.2-0.1-0.2-0.2v-0.3c0-0.1,0.1-0.2,0.2-0.2H50c0.1,0,0.2,0.1,0.2,0.2v0.3
				C50.2,24.6,50.1,24.7,50,24.7z"/>
		</g>
	</g>
	<g>
		<g>
			<rect x="14.3" y="39.6" class="st3" width="35.7" height="0.3"/>
			<path class="st3" d="M50,40.2H14.3c-0.1,0-0.2-0.1-0.2-0.2v-0.3c0-0.1,0.1-0.2,0.2-0.2H50c0.1,0,0.2,0.1,0.2,0.2V40
				C50.2,40.1,50.1,40.2,50,40.2z"/>
		</g>
	</g>
	<g>
		<g>
			<rect x="39.7" y="14.2" class="st4" width="0.3" height="35.7"/>
			<path class="st4" d="M40,50.1h-0.3c-0.1,0-0.2-0.1-0.2-0.2V14.2c0-0.1,0.1-0.2,0.2-0.2H40c0.1,0,0.2,0.1,0.2,0.2v35.7
				C40.2,50,40.1,50.1,40,50.1z"/>
		</g>
	</g>
	<g>
		<g>
			<rect x="24.2" y="14.2" class="st5" width="0.3" height="35.7"/>
			<path class="st5" d="M24.6,50.1h-0.3c-0.1,0-0.2-0.1-0.2-0.2V14.2c0-0.1,0.1-0.2,0.2-0.2h0.3c0.1,0,0.2,0.1,0.2,0.2v35.7
				C24.8,50,24.7,50.1,24.6,50.1z"/>
		</g>
	</g>
	<g>
		<path class="st5" d="M34.4,13L32,19.7L29.7,13c-0.2-0.6-0.7-1-1.3-1h-1.4l2.9,8.4c0.2,0.6,0.7,1,1.3,1h1.7c0.6,0,1.1-0.4,1.3-1
			l2.9-8.4h-1.4C35.1,12,34.6,12.4,34.4,13z"/>
	</g>
	<g>
		<path class="st6" d="M17.8,27.3v5.4c0,1.1-0.9,2-2,2s-2-0.9-2-2h-2.3c0,2.4,1.9,4.3,4.3,4.3s4.3-1.9,4.3-4.3v-5.4H17.8z"/>
	</g>
	<g>
		<path class="st4" d="M33.5,47.9l3.8-4.7h-2.2c-0.4,0-0.8,0.2-1.1,0.5l-2,2.4l-2-2.4c-0.3-0.3-0.7-0.5-1.1-0.5h-2.2l3.8,4.7
			l-3.9,4.7h2.2c0.4,0,0.8-0.2,1.1-0.5l2-2.5l1.4,1.7v0l0.6,0.7c0.3,0.3,0.7,0.5,1.1,0.5h2.2L33.5,47.9z M33.5,47.9L33.5,47.9
			L33.5,47.9L33.5,47.9z"/>
	</g>
	<g>
		<path class="st3" d="M50.9,27.3c-0.5,0-0.9,0.2-1.2,0.6l-2.3,3.5l-0.1-0.2L45.5,28c-0.3-0.4-0.7-0.7-1.2-0.7h-1.8l0.8,1.4l0,0
			l1.6,2.7l0,0.1h0l1.2,2.1l-2,3.1h2c0.5,0,0.9-0.2,1.2-0.6l5.6-8.7H50.9z"/>
	</g>
	<g>
		<g>
			<path class="st7" d="M17.7,34.2C17.7,34.2,17.7,34.1,17.7,34.2l-0.1-0.3c0,0,0,0,0,0v-0.1l0,0c0,0,0,0,0,0c0,0,0-0.1,0.1-0.1
				c0,0,0.1,0,0.1,0.1l0,0.1c0,0,0,0,0,0c0,0,0,0,0,0c0,0,0,0,0,0v0l0.1,0.2C17.8,34.1,17.8,34.1,17.7,34.2
				C17.8,34.2,17.7,34.2,17.7,34.2z"/>
		</g>
		<g>
			<path class="st8" d="M47.5,28.7L47.5,28.7L47.5,28.7L47.5,28.7z M43.8,35.6L43.8,35.6L43.8,35.6L43.8,35.6z"/>
		</g>
		<g>
			<path class="st9" d="M43.8,35.7C43.8,35.7,43.7,35.6,43.8,35.7l-0.1-0.1c0,0,0-0.1,0.1-0.1c0,0,0.1,0,0.1,0.1L43.8,35.7
				C43.9,35.6,43.8,35.7,43.8,35.7z M47.5,28.9C47.5,28.9,47.5,28.9,47.5,28.9c-0.1,0-0.1-0.1-0.1-0.1l0-0.1c0,0,0-0.1,0.1-0.1h0
				c0,0,0.1,0,0.1,0c0,0,0,0.1,0,0.1L47.5,28.9C47.5,28.8,47.5,28.9,47.5,28.9z"/>
		</g>
		<g>
			<path class="st10" d="M32.2,1.1l0.4,0h0.1L33,1.2l0.4,0.1l0.1,0l0.4,0.1l0.3,0.2l0.1,0.1l0.3,0.2L34.9,2L35,2.1l0.3,0.3L61.6,29
				l0.2,0.3l0.1,0.1l0.2,0.3l0.2,0.3l0.1,0.1l0.2,0.3l0.1,0.5l0.1,0.4l0.1,0.4v0.1l0,0.4l0,0.4v0.1L62.8,33l-0.1,0.4l-0.1,0.5
				l-0.2,0.5l-0.2,0.3L62,34.9L61.9,35l-0.3,0.3L35,61.6l-0.3,0.2L34.6,62l-0.3,0.2L34,62.4l-0.1,0.1l-0.3,0.2l-0.5,0.2l-0.4,0.1
				l-0.4,0l-0.1,0l-0.4,0l-0.4,0l-0.1,0L31,62.8l-0.4-0.1l-0.1,0l-0.3-0.1l-0.3-0.2l-0.1-0.1l-0.3-0.2l-0.3-0.2L29,61.9l-0.3-0.2
				l-0.1-0.1l0.1,0.1L2.4,35l-0.2-0.3L2,34.6l-0.2-0.3L1.6,34l-0.2-0.5l-0.1-0.4l0-0.1l-0.1-0.4l0-0.4l0-0.1l0-0.4l0-0.4l0-0.1
				L1.2,31l0.1-0.4l0-0.1l0.1-0.4l0.2-0.3l0.1-0.1l0.2-0.3l0.2-0.3L2.1,29l0.3-0.3L29,2.4l0.3-0.3L29.4,2l0.3-0.2L30,1.6l0.1-0.1
				l0.3-0.2l0.4-0.1l0.1,0l0.4-0.1l0.4-0.1h0.1L32.2,1.1z M32.2,2.3l-0.4,0l-0.2,0l-0.4,0.1L31,2.5l-0.3,0.1l-0.2,0.2L30.1,3
				l-0.2,0.2L3.2,29.6L3,29.8l-0.2,0.3l-0.2,0.3l-0.1,0.3l-0.1,0.3l-0.1,0.3l-0.1,0.4l0,0.2l0,0.2l0,0.4l0.1,0.4L2.5,33l0.2,0.3
				l0.1,0.2L3,33.9l0.2,0.2l26.4,26.6l0.2,0.2l0.3,0.2l0.2,0.2l0.3,0.1l0.3,0.1l0.3,0.1l0.4,0.1l0.2,0l0.2,0l0.4,0l0.4-0.1l0.2-0.1
				l0.3-0.1l0.2-0.2l0.3-0.2l0.2-0.2l26.6-26.4l0.2-0.2l0.2-0.3l0.1-0.2l0.2-0.3l0.1-0.2l0.1-0.4l0-0.2l0-0.4l0-0.4l0-0.3l-0.1-0.4
				L61.5,31l-0.1-0.3l-0.2-0.2L61,30.1l-0.1-0.2l-0.1-0.1L34.4,3.2L34.2,3l-0.3-0.2l-0.3-0.2l-0.3-0.1l-0.3-0.1l-0.3-0.1l-0.2,0
				L32.2,2.3z"/>
		</g>
		<g>
			<path class="st2" d="M32.2,1.1l0.4,0h0.1L33,1.2l0.4,0.1l0.1,0l0.4,0.1l0.3,0.2l0.1,0.1l0.3,0.2L34.9,2L35,2.1l0.3,0.3L61.6,29
				l0.2,0.3l0.1,0.1l0.2,0.3l0.2,0.3l0.1,0.1l0.2,0.3l0.1,0.5l0.1,0.4l0.1,0.4v0.1l0,0.4l0,0.4v0.1L62.8,33l-0.1,0.4l-0.1,0.5
				l-0.2,0.5l-0.2,0.3L62,34.9L61.9,35l-0.3,0.3L35,61.6l-0.3,0.2L34.6,62l-0.3,0.2L34,62.4l-0.1,0.1l-0.3,0.2l-0.5,0.2l-0.4,0.1
				l-0.4,0l-0.1,0l-0.4,0l-0.4,0l-0.1,0L31,62.8l-0.4-0.1l-0.1,0l-0.3-0.1l-0.3-0.2l-0.1-0.1l-0.3-0.2l-0.3-0.2L29,61.9l-0.3-0.2
				l-0.1-0.1l0.1,0.1L2.4,35l-0.2-0.3L2,34.6l-0.2-0.3L1.6,34l-0.2-0.5l-0.1-0.4l0-0.1l-0.1-0.4l0-0.4l0-0.1l0-0.4l0-0.4l0-0.1
				L1.2,31l0.1-0.4l0-0.1l0.1-0.4l0.2-0.3l0.1-0.1l0.2-0.3l0.2-0.3L2.1,29l0.3-0.3L29,2.4l0.3-0.3L29.4,2l0.3-0.2L30,1.6l0.1-0.1
				l0.3-0.2l0.4-0.1l0.1,0l0.4-0.1l0.4-0.1h0.1L32.2,1.1z M32.2,2.3l-0.4,0l-0.2,0l-0.4,0.1L31,2.5l-0.3,0.1l-0.2,0.2L30.1,3
				l-0.2,0.2L3.2,29.6L3,29.8l-0.2,0.3l-0.2,0.3l-0.1,0.3l-0.1,0.3l-0.1,0.3l-0.1,0.4l0,0.2l0,0.2l0,0.4l0.1,0.4L2.5,33l0.2,0.3
				l0.1,0.2L3,33.9l0.2,0.2l26.4,26.6l0.2,0.2l0.3,0.2l0.2,0.2l0.3,0.1l0.3,0.1l0.3,0.1l0.4,0.1l0.2,0l0.2,0l0.4,0l0.4-0.1l0.2-0.1
				l0.3-0.1l0.2-0.2l0.3-0.2l0.2-0.2l26.6-26.4l0.2-0.2l0.2-0.3l0.1-0.2l0.2-0.3l0.1-0.2l0.1-0.4l0-0.2l0-0.4l0-0.4l0-0.3l-0.1-0.4
				L61.5,31l-0.1-0.3l-0.2-0.2L61,30.1l-0.1-0.2l-0.1-0.1L34.4,3.2L34.2,3l-0.3-0.2l-0.3-0.2l-0.3-0.1l-0.3-0.1l-0.3-0.1l-0.2,0
				L32.2,2.3z"/>
			<path class="st11" d="M31.9,63l-0.4,0L31,62.9l-0.4-0.1l-0.1,0l-0.3-0.1l-0.5-0.2l-0.3-0.2L29.1,62L29,61.9l-0.3-0.2c0,0,0,0,0,0
				L2.3,35L2,34.6l-0.2-0.3L1.6,34l-0.2-0.5l-0.2-0.5l-0.1-0.4L1,32.2l0-0.4l0-0.4L1.1,31l0.1-0.4l0-0.1l0.1-0.4l0.2-0.3l0.1-0.1
				l0.2-0.3L2,29.1L2.1,29l0.3-0.3L29,2.3l0.3-0.3L29.4,2l0.3-0.2L30,1.5l0.1-0.1l0.3-0.2l0.5-0.2l0.4-0.1L31.7,1l0.1,0l0.4,0
				c0,0,0,0,0,0l0.4,0l0.1,0L33,1.1l0.4,0.1l0.1,0l0.4,0.1l0.3,0.2l0.4,0.2L34.9,2L35,2.1l0.3,0.3L61.7,29l0.3,0.4l0.2,0.3l0.2,0.3
				l0.1,0.1l0.2,0.3l0.2,0.5l0.1,0.4l0.1,0.4l0,0.1l0,0.4l0,0.4l0,0.1L62.9,33l-0.1,0.4l-0.2,0.5l-0.2,0.5l-0.2,0.3L62,34.9L61.9,35
				l-0.3,0.3L35,61.7L34.7,62L34.7,62l-0.3,0.2L34,62.5l-0.1,0.1l-0.3,0.2l-0.5,0.2l-0.4,0.1L32.2,63L31.9,63z M28.7,61.5
				C28.7,61.5,28.7,61.5,28.7,61.5l0.1,0.1l0.3,0.2l0.1,0.1l0.3,0.2l0.3,0.2l0.1,0.1l0.3,0.1l0.4,0.2l0.3,0.1l0.5,0.1l0.4,0l0.3,0
				l0.1,0l0.4,0l0.3-0.1l0.4-0.1l0.4-0.2l0.3-0.2l0.3-0.2l0.1-0.1l0.3-0.2l26.6-26.4l0.3-0.3l0.1-0.1l0.2-0.3l0.2-0.3l0.2-0.4
				l0.1-0.4l0.1-0.4l0.1-0.3l0-0.1l0-0.4l0-0.5l-0.1-0.4L62.7,31l-0.1-0.4l-0.2-0.4l-0.2-0.3l-0.2-0.3l-0.1-0.1l-0.2-0.3L35.2,2.5
				l-0.4-0.4l-0.3-0.2l-0.4-0.2l-0.3-0.1l-0.5-0.2L33,1.2l-0.3-0.1l-0.1,0l-0.4,0l-0.5,0l-0.3,0.1l-0.5,0.1l-0.4,0.1l-0.4,0.2
				l-0.3,0.2l-0.4,0.3l-0.3,0.3L2.5,28.8l-0.3,0.4l-0.2,0.3l-0.3,0.4l-0.1,0.3l-0.2,0.5L1.3,31l-0.1,0.5l0,0.3l0,0.4l0,0.1l0,0.4
				l0.1,0.5l0.1,0.4l0.2,0.4l0.2,0.3l0.3,0.4l0.2,0.3L28.7,61.5z M31.9,61.8l-0.3,0l-0.4-0.1l-0.3-0.1l-0.3-0.1l-0.3-0.1
				c0,0,0,0,0,0L30,61.2L29.8,61l-0.2-0.2L3.2,34.2L3,34l-0.2-0.3l-0.1-0.2l-0.2-0.3l-0.1-0.3l-0.1-0.4l0-0.4l0-0.2l0-0.3l0.1-0.4
				l0.1-0.3l0.1-0.3l0.1-0.3L2.8,30l0.2-0.3l0.2-0.3L29.8,3.2L30,3l0.3-0.2l0.2-0.2c0,0,0,0,0,0l0.3-0.1l0.3-0.1l0.4-0.1l0.3,0
				l0.4,0c0,0,0,0,0,0l0.4,0l0.3,0l0.3,0.1l0.6,0.2l0.3,0.2l0.3,0.2l0.3,0.3l26.4,26.6l0.1,0c0,0,0,0,0,0l0.1,0.2l0.2,0.3l0.2,0.2
				c0,0,0,0,0,0l0.1,0.3l0.1,0.2l0.1,0.4l0,0.3l0,0.4l0,0.4l0,0.3l-0.1,0.4l-0.1,0.2l-0.2,0.3l-0.1,0.2l-0.2,0.3l-0.2,0.3L34.2,60.9
				l-0.5,0.4l-0.2,0.2c0,0,0,0,0,0l-0.3,0.1l-0.2,0.1l-0.4,0.1L31.9,61.8z M30.4,61.3l0.3,0.1l0.3,0.1l0.3,0.1l0.4,0.1l0.2,0
				l0.6-0.1l0.3-0.1l0.2-0.1l0.3-0.1l0.2-0.2l0.5-0.4l26.6-26.4l0.2-0.2l0.2-0.3l0.1-0.2l0.2-0.3l0.1-0.2l0.1-0.4l0-0.2l0-0.3l0-0.3
				l0-0.3l-0.1-0.3L61.4,31l-0.1-0.3l-0.2-0.2L60.8,30l-0.1,0L34.4,3.3l-0.2-0.2l-0.3-0.2l-0.3-0.2L33,2.5l-0.3-0.1l-0.2,0l-0.3,0
				l-0.4,0l-0.2,0l-0.3,0.1L31,2.6l-0.3,0.1l-0.2,0.2l-0.3,0.2l-0.2,0.2L3.3,29.6l-0.2,0.2l-0.2,0.3l-0.2,0.3l-0.1,0.2l-0.1,0.3
				l-0.1,0.3l-0.1,0.4l0,0.2l0,0.2l0,0.4l0.1,0.3L2.6,33l0.2,0.3l0.1,0.2l0.2,0.3l0.2,0.2l26.4,26.6l0.2,0.2L30.4,61.3z"/>
		</g>
	</g>
	<g>
		<g>
			<path class="st2" d="M32,26.5c-3.1,0-5.6,2.5-5.6,5.6c0,3.1,2.5,5.6,5.6,5.6c3.1,0,5.6-2.5,5.6-5.6C37.6,29,35.1,26.5,32,26.5z
				 M32,35.4c-1.8,0-3.3-1.5-3.3-3.3c0-1.8,1.5-3.3,3.3-3.3c1.8,0,3.3,1.5,3.3,3.3C35.4,33.9,33.9,35.4,32,35.4z"/>
		</g>
	</g>
</g>
<title>icon_joyvox</title>
</svg>
