<svg id="Calque_1" data-name="Calque 1" xmlns="http://www.w3.org/2000/svg" viewBox="0 0 64 64"><title>icon_joybox</title><rect x="-0.01" width="64.01" height="64" style="fill:#f0f0f0"/><circle cx="32" cy="15.58" r="6.58" style="fill:#e44647"/><circle cx="32" cy="32" r="6.87" style="fill:#221f1f"/><circle cx="32" cy="48.42" r="6.58" style="fill:#f9ba53"/><circle cx="48.42" cy="32" r="6.58" style="fill:#60ab41"/><circle cx="15.58" cy="32" r="6.58" style="fill:#08c1b3"/><path d="M32,35.6A3.6,3.6,0,1,1,35.54,32,3.58,3.58,0,0,1,32,35.6Zm0-5.76A2.16,2.16,0,1,0,34.1,32,2.13,2.13,0,0,0,32,29.84Z" style="fill:#fff"/><path d="M31.68,19.29a3,3,0,0,1-3-3h1.44a1.59,1.59,0,0,0,3.17,0v-3.7h1.44v3.7A3,3,0,0,1,31.68,19.29Z" style="fill:#fff"/><polygon points="49.36 31.95 52.04 28.64 50.19 28.64 48.44 30.8 46.72 28.64 44.87 28.64 47.52 31.95 44.75 35.37 46.61 35.37 48.44 33.1 50.25 35.37 52.09 35.37 49.36 31.95" style="fill:#fff"/><polygon points="34 45.32 32.26 47.48 30.53 45.32 28.69 45.32 31.33 48.63 28.57 52.05 30.43 52.05 35.86 45.32 34 45.32" style="fill:#fff"/><path d="M18.44,31.84a2,2,0,0,0-1.6-3.23l-4.72,0v6.72l4.8,0a2.1,2.1,0,0,0,1.51-3.55Zm-4.88-1.79h3.28a.57.57,0,1,1,0,1.14H13.57Zm3.36,3.89H13.57V32.64h3.36a.66.66,0,1,1,0,1.31Z" style="fill:#fff"/><rect x="39.58" y="20.87" width="7.27" height="1.07" transform="translate(-2.48 36.82) rotate(-45)" style="fill:#221f1f"/><rect x="42.68" y="38.96" width="1.07" height="7.27" transform="translate(-17.47 43.03) rotate(-45)" style="fill:#221f1f"/><rect x="18.38" y="42.06" width="7.27" height="1.07" transform="translate(-23.67 28.04) rotate(-45)" style="fill:#221f1f"/><rect x="21.48" y="17.77" width="1.07" height="7.27" transform="translate(-8.69 21.84) rotate(-45)" style="fill:#221f1f"/></svg>