<?xml version="1.0" encoding="utf-8"?>
<!-- Generator: Adobe Illustrator 21.1.0, SVG Export Plug-In . SVG Version: 6.00 Build 0)  -->
<svg version="1.1" id="Calque_1" xmlns="http://www.w3.org/2000/svg" xmlns:xlink="http://www.w3.org/1999/xlink" x="0px" y="0px"
	 viewBox="0 0 64 64" style="enable-background:new 0 0 64 64;" xml:space="preserve">
<style type="text/css">
	.st0{fill:#F56560;}
	.st1{fill:#FFFFFF;}
</style>
<title>icon_joyvox</title>
<g>
	<rect class="st0" width="64" height="64"/>
	<path class="st1" d="M54.2,39.3c-0.3-2.4-2.3-4.2-4.7-4.2h-3.1L45.8,29h6.6c0.4,0,0.7-0.3,0.6-0.7l-0.6-6.1
		c-0.3-2.4-2.3-4.2-4.7-4.2h-3.1l-0.3-3.1c-0.3-2.4-2.3-4.2-4.7-4.2h-6.1c-0.4,0-0.7,0.3-0.6,0.7l0.7,6.6h-6.1l-0.3-3.1
		c-0.3-2.4-2.3-4.2-4.7-4.2h-6.1c-0.4,0-0.7,0.3-0.6,0.7l0.7,6.6H9.8c-0.4,0-0.7,0.3-0.6,0.7l0.6,6.1c0.3,2.4,2.3,4.2,4.7,4.2h3.1
		l0.6,6.1h-7.3l0.7,6.8c0.3,2.4,2.3,4.2,4.7,4.2h3.1l0.3,3.1c0.3,2.4,2.3,4.2,4.7,4.2h6.1c0.4,0,0.7-0.3,0.6-0.7l-0.7-6.6h6.1
		l0.3,3.1c0.3,2.4,2.3,4.2,4.7,4.2h6.1c0.4,0,0.7-0.3,0.6-0.7l-0.7-6.6h6.6c0.4,0,0.7-0.3,0.6-0.7L54.2,39.3z M39.4,34.1l-10.1,7
		c-0.4,0.3-0.8,0.4-1.2,0.4c-0.3,0-0.7-0.1-1-0.2c-0.8-0.4-1.3-1.1-1.4-2L24.2,25c-0.1-0.8,0.3-1.6,1-2c0.7-0.4,1.6-0.4,2.4,0
		l11.6,7.3c0.7,0.4,1.1,1.2,1.1,2C40.3,33,40,33.7,39.4,34.1z"/>
</g>
</svg>
