<?xml version="1.0" encoding="utf-8"?>
<!-- Generator: Adobe Illustrator 21.1.0, SVG Export Plug-In . SVG Version: 6.00 Build 0)  -->
<svg version="1.1" id="Calque_1" xmlns="http://www.w3.org/2000/svg" xmlns:xlink="http://www.w3.org/1999/xlink" x="0px" y="0px"
	 viewBox="0 0 160 64" style="enable-background:new 0 0 160 64;" xml:space="preserve">
<style type="text/css">
	.st0{fill:#F56560;}
</style>
<title>logo_joyvox</title>
<g>
	<g>
		<g>
			<path class="st0" d="M39.5,26.3c3.1,0,5.7,2.6,5.7,5.7s-2.6,5.7-5.7,5.7c-3.1,0-5.7-2.6-5.7-5.7S36.3,26.3,39.5,26.3 M39.5,19.1
				c-7.1,0-12.9,5.8-12.9,12.9s5.8,12.9,12.9,12.9S52.5,39.1,52.5,32S46.6,19.1,39.5,19.1L39.5,19.1z"/>
		</g>
	</g>
	<g>
		<path class="st0" d="M120.8,26.3c3.1,0,5.7,2.6,5.7,5.7s-2.6,5.7-5.7,5.7c-3.1,0-5.7-2.6-5.7-5.7S117.7,26.3,120.8,26.3
			 M120.8,19.1c-7.1,0-12.9,5.8-12.9,12.9s5.8,12.9,12.9,12.9c7.1,0,12.9-5.8,12.9-12.9S128,19.1,120.8,19.1L120.8,19.1z"/>
	</g>
	<g>
		<path class="st0" d="M12.5,44.9L12.5,44.9C6.2,44.9,1.2,40,1.1,33.8c0-0.3,0.1-0.4,0.4-0.4h6.5c0.1,0,0.4,0.1,0.4,0.4
			c0.1,2.2,2.1,4,4.3,4c2.3,0,4.3-1.9,4.3-4.3v-14c0-0.3,0.1-0.4,0.4-0.4h6.5c0.3,0,0.4,0.1,0.4,0.4v13.9c0,3-1.2,6-3.2,8.2
			C18.4,43.7,15.6,44.9,12.5,44.9z"/>
	</g>
	<path class="st0" d="M157.3,19.8h-6c-1.4,0-2.7,0.6-3.6,1.8l-3.4,4.5l-3.4-4.5c-0.9-1.2-2.2-1.8-3.6-1.8h-6c-0.3,0-0.5,0.4-0.3,0.5
		l8.7,11.9l-8.3,11.3c-0.1,0.3,0,0.5,0.3,0.5h6c1.4,0,2.7-0.6,3.6-1.8l3-4l0,0l0,0l4.4-6.1v10.1c0,1,0.8,1.8,1.8,1.8h6.2
		c0.3,0,0.5-0.4,0.3-0.5l-8.3-11.3l8.7-11.9C157.9,20.1,157.7,19.8,157.3,19.8z"/>
	<path class="st0" d="M108.7,19.8h-4.4c-1.8,0-3.4,1-4.1,2.6l-5.8,12.9l-5.8-12.9c-0.8-1.6-2.3-2.6-4-2.6H80c-0.3,0-0.4,0.3-0.4,0.5
		l9.6,21.2c0.8,1.6,2.3,2.6,4,2.6h2.1c1.8,0,3.4-1,4.1-2.6l9.6-21.2C109.2,20.1,108.9,19.8,108.7,19.8z"/>
	<path class="st0" d="M78.2,19.8h-5.4c-1.6,0-2.8,0.8-3.8,2.1l-4.5,7l-4.5-7c-0.8-1.3-2.2-2.1-3.8-2.1h-5.4c-0.3,0-0.5,0.3-0.3,0.5
		l9.7,15l-5.4,8.3c-0.1,0.3,0,0.5,0.3,0.5h5.4c1.6,0,2.8-0.8,3.8-2.1l14.4-21.8C78.6,20.1,78.5,19.8,78.2,19.8z"/>
</g>
</svg>
