<?xml version="1.0" encoding="utf-8"?>
<!-- Generator: Adobe Illustrator 21.1.0, SVG Export Plug-In . SVG Version: 6.00 Build 0)  -->
<svg version="1.1" id="Calque_1" xmlns="http://www.w3.org/2000/svg" xmlns:xlink="http://www.w3.org/1999/xlink" x="0px" y="0px"
	 viewBox="0 0 67.7 64" style="enable-background:new 0 0 67.7 64;" xml:space="preserve">
<style type="text/css">
	.st0{fill:#FFFFFF;}
	.st1{fill:#57369B;}
	.st2{fill:#00AAB8;}
	.st3{fill:#F56560;}
	.st4{fill:#39AE8B;}
	.st5{fill:#F98645;}
</style>
<title>logo_joyvox</title>
<g>
	<g>
		<g>
			<g>
				<path class="st0" d="M33.2,60.1c-1.7,0-3.4-0.6-4.6-1.9L6.8,36.4c-2.6-2.6-2.6-6.7,0-9.3L28.6,5.3c2.6-2.6,6.7-2.6,9.3,0
					l21.8,21.8c2.6,2.6,2.6,6.7,0,9.3L37.8,58.2C36.6,59.5,34.9,60.1,33.2,60.1z"/>
			</g>
		</g>
	</g>
	<g>
		<g>
			<g>
				<path class="st1" d="M33.2,60.1c-1.7,0-3.4-0.6-4.6-1.9L6.8,36.4c-2.6-2.6-2.6-6.7,0-9.3L28.6,5.3c2.6-2.6,6.7-2.6,9.3,0
					l21.8,21.8c2.6,2.6,2.6,6.7,0,9.3L37.8,58.2C36.6,59.5,34.9,60.1,33.2,60.1z M33.2,4.4c-1.5,0-2.9,0.6-3.9,1.6L7.5,27.8
					c-2.2,2.2-2.2,5.7,0,7.9l21.8,21.8c1.1,1.1,2.4,1.6,3.9,1.6s2.9-0.6,3.9-1.6l21.8-21.8c2.2-2.2,2.2-5.7,0-7.9L37.1,6
					C36.1,5,34.7,4.4,33.2,4.4z"/>
			</g>
		</g>
	</g>
	<path class="st2" d="M20.2,28.8l-1.9,5.5l-1.9-5.5c-0.2-0.5-0.6-0.8-1.1-0.8h-1.2l2.3,6.8c0.2,0.5,0.6,0.8,1.1,0.8H19
		c0.5,0,0.9-0.3,1.1-0.8l2.4-6.9h-1.2C20.8,28,20.4,28.3,20.2,28.8z"/>
	<path class="st3" d="M32.8,26.2c3.1,0,5.6,2.5,5.6,5.6c0,3.1-2.5,5.6-5.6,5.6c-3.1,0-5.6-2.5-5.6-5.6
		C27.2,28.8,29.7,26.2,32.8,26.2z"/>
	<path class="st1" d="M34,12.9v4.9c0,0.9-0.7,1.6-1.6,1.6s-1.6-0.7-1.6-1.6h-1.9c0,1.9,1.6,3.5,3.5,3.5s3.5-1.6,3.5-3.5v-4.9H34z"/>
	<g>
		<path class="st4" d="M50.4,28c-0.3,0-0.7,0.2-0.9,0.4l-1.6,2l-1.6-2C46,28.2,45.7,28,45.4,28h-1.8l3.1,3.8l-3.2,3.8h1.8
			c0.3,0,0.7-0.2,0.9-0.4l5.9-7.2H50.4z"/>
		<path class="st4" d="M49,31.9l-2.3-0.1l2.8,3.5c0.2,0.3,0.5,0.4,0.9,0.4h1.8L49,31.9z"/>
	</g>
	<g>
		<path class="st5" d="M30.2,43h-1.5l3.5,6.2l0.6-2.8l-1.6-2.8C31,43.2,30.6,43,30.2,43z"/>
		<path class="st5" d="M35.7,43c-0.4,0-0.8,0.2-1,0.5l-4.6,7.1h1.6c0.4,0,0.8-0.2,1-0.5l4.6-7.1H35.7z"/>
	</g>
	<g>
		<rect x="39.8" y="15.1" class="st4" width="1" height="33.6"/>
	</g>
	<g>
		<rect x="25.1" y="15.1" class="st2" width="1" height="33.6"/>
	</g>
	<g>
		<rect x="16.1" y="38.8" class="st5" width="33.6" height="1"/>
	</g>
	<g>
		<rect x="16.1" y="24.1" class="st1" width="33.6" height="1"/>
	</g>
</g>
</svg>
