<?xml version="1.0" encoding="utf-8"?>
<!-- Generator: Adobe Illustrator 21.1.0, SVG Export Plug-In . SVG Version: 6.00 Build 0)  -->
<svg version="1.1" id="Calque_1" xmlns="http://www.w3.org/2000/svg" xmlns:xlink="http://www.w3.org/1999/xlink" x="0px" y="0px"
	 viewBox="0 0 67.7 64" style="enable-background:new 0 0 67.7 64;" xml:space="preserve">
<style type="text/css">
	.st0{fill:#FFFFFF;}
	.st1{fill-rule:evenodd;clip-rule:evenodd;fill:#FFFFFF;}
	.st2{fill:#274193;}
	.st3{fill:#F98645;}
	.st4{fill:#39AE8B;}
	.st5{fill:#00AAB8;}
	.st6{fill:#F56560;}
	.st7{fill:#DB4842;}
	.st8{fill-rule:evenodd;clip-rule:evenodd;fill:#7FC7D5;}
	.st9{fill:#7FC7D5;}
	.st10{fill-rule:evenodd;clip-rule:evenodd;fill:#274193;}
	.st11{fill:#254595;}
</style>
<title>logo_joyvox</title>
<title>logo_joyvox</title>
<g>
	<g>
		<g>
			<path class="st0" d="M21.4,33.5L21.4,33.5L21.4,33.5z M21.4,33.5L21.4,33.5L21.4,33.5L21.4,33.5z M21.4,33.6l0,0.2l0-0.1
				L21.4,33.6L21.4,33.6z"/>
		</g>
		<g>
			<path class="st1" d="M47.3,29.2L47.3,29.2L47.3,29.2L47.3,29.2z M44.1,35.1L44.1,35.1L44.1,35.1L44.1,35.1z"/>
		</g>
		<g>
			<path class="st0" d="M47.3,29.2L47.3,29.2L47.3,29.2L47.3,29.2z M44.1,35.1L44.1,35.1L44.1,35.1L44.1,35.1z"/>
		</g>
		<g>
			<path class="st1" d="M34,5.1l0.3,0h0.1l0.3,0L35,5.3l0.1,0l0.3,0.1l0.3,0.1l0.1,0l0.3,0.2L36.4,6L36.4,6l0.3,0.2l22.9,23.1
				l0.2,0.2l0.1,0.1l0.2,0.3l0.2,0.3l0,0.1l0.1,0.3l0.1,0.4l0.1,0.3l0,0.3v0.1l0,0.3l0,0.3v0.1l0,0.3l-0.1,0.3l-0.1,0.4L60.2,34
				l-0.2,0.3l-0.2,0.3l-0.1,0.1l-0.2,0.3L36.4,57.7L36.2,58L36.1,58l-0.3,0.2l-0.3,0.2l-0.1,0l-0.3,0.1l-0.4,0.1l-0.3,0.1l-0.3,0
				l-0.1,0l-0.3,0l-0.3,0l-0.1,0l-0.3,0l-0.3-0.1l-0.1,0l-0.3-0.1L32,58.4l-0.1,0l-0.3-0.2L31.3,58l-0.1-0.1L31,57.7l-0.1-0.1
				l0.1,0.1L8.1,34.6l-0.2-0.3l-0.1-0.1L7.6,34l-0.2-0.3l-0.2-0.4L7.2,33l0-0.1l-0.1-0.3l0-0.3l0-0.1l0-0.3l0-0.3l0-0.1l0-0.3
				l0.1-0.3l0-0.1l0.1-0.3l0.1-0.3l0-0.1l0.2-0.3l0.2-0.3l0.1-0.1l0.2-0.2L31.3,6.3L31.5,6L31.6,6l0.3-0.2l0.3-0.2l0.1,0l0.3-0.1
				l0.3-0.1l0.1,0l0.3-0.1l0.3,0h0.1L34,5.1z"/>
		</g>
		<g>
			<path class="st0" d="M34,5.1l0.3,0h0.1l0.3,0L35,5.3l0.1,0l0.3,0.1l0.3,0.1l0.1,0l0.3,0.2L36.4,6L36.4,6l0.3,0.2l22.9,23.1
				l0.2,0.2l0.1,0.1l0.2,0.3l0.2,0.3l0,0.1l0.1,0.3l0.1,0.4l0.1,0.3l0,0.3v0.1l0,0.3l0,0.3v0.1l0,0.3l-0.1,0.3l-0.1,0.4L60.2,34
				l-0.2,0.3l-0.2,0.3l-0.1,0.1l-0.2,0.3L36.4,57.7L36.2,58L36.1,58l-0.3,0.2l-0.3,0.2l-0.1,0l-0.3,0.1l-0.4,0.1l-0.3,0.1l-0.3,0
				l-0.1,0l-0.3,0l-0.3,0l-0.1,0l-0.3,0l-0.3-0.1l-0.1,0l-0.3-0.1L32,58.4l-0.1,0l-0.3-0.2L31.3,58l-0.1-0.1L31,57.7l-0.1-0.1
				l0.1,0.1L8.1,34.6l-0.2-0.3l-0.1-0.1L7.6,34l-0.2-0.3l-0.2-0.4L7.2,33l0-0.1l-0.1-0.3l0-0.3l0-0.1l0-0.3l0-0.3l0-0.1l0-0.3
				l0.1-0.3l0-0.1l0.1-0.3l0.1-0.3l0-0.1l0.2-0.3l0.2-0.3l0.1-0.1l0.2-0.2L31.3,6.3L31.5,6L31.6,6l0.3-0.2l0.3-0.2l0.1,0l0.3-0.1
				l0.3-0.1l0.1,0l0.3-0.1l0.3,0h0.1L34,5.1z"/>
		</g>
	</g>
	<g>
		<g>
			<rect x="18.5" y="25.2" class="st2" width="31" height="0.3"/>
			<path class="st2" d="M49.4,25.7h-31c-0.1,0-0.2-0.1-0.2-0.2v-0.3c0-0.1,0.1-0.2,0.2-0.2h31c0.1,0,0.2,0.1,0.2,0.2v0.3
				C49.6,25.6,49.5,25.7,49.4,25.7z"/>
		</g>
	</g>
	<g>
		<g>
			<rect x="18.5" y="38.6" class="st3" width="31" height="0.3"/>
			<path class="st3" d="M49.4,39.1h-31c-0.1,0-0.2-0.1-0.2-0.2v-0.3c0-0.1,0.1-0.2,0.2-0.2h31c0.1,0,0.2,0.1,0.2,0.2v0.3
				C49.6,39,49.5,39.1,49.4,39.1z"/>
		</g>
	</g>
	<g>
		<g>
			<rect x="40.5" y="16.6" class="st4" width="0.3" height="31"/>
			<path class="st4" d="M40.8,47.7h-0.3c-0.1,0-0.2-0.1-0.2-0.2v-31c0-0.1,0.1-0.2,0.2-0.2h0.3c0.1,0,0.2,0.1,0.2,0.2v31
				C41,47.7,40.9,47.7,40.8,47.7z"/>
		</g>
	</g>
	<g>
		<g>
			<rect x="27.1" y="16.6" class="st5" width="0.3" height="31"/>
			<path class="st5" d="M27.4,47.7h-0.3c-0.1,0-0.2-0.1-0.2-0.2v-31c0-0.1,0.1-0.2,0.2-0.2h0.3c0.1,0,0.2,0.1,0.2,0.2v31
				C27.6,47.7,27.5,47.7,27.4,47.7z"/>
		</g>
	</g>
	<g>
		<path class="st5" d="M35.9,15.5l-2.1,5.9l-2-5.9c-0.2-0.5-0.6-0.8-1.2-0.8h-1.2l2.5,7.3c0.2,0.5,0.6,0.8,1.2,0.8h1.5
			c0.5,0,1-0.3,1.2-0.8l2.6-7.3h-1.2C36.5,14.6,36.1,15,35.9,15.5z"/>
	</g>
	<g>
		<path class="st6" d="M21.6,27.9v4.7c0,1-0.8,1.7-1.7,1.7s-1.7-0.8-1.7-1.7h-2c0,2.1,1.7,3.7,3.7,3.7s3.7-1.7,3.7-3.7v-4.7H21.6z"
			/>
	</g>
	<g>
		<path class="st4" d="M35.1,45.8l3.3-4.1h-1.9c-0.4,0-0.7,0.2-1,0.5l-1.7,2.1l-1.7-2.1c-0.2-0.3-0.6-0.5-1-0.5h-1.9l3.3,4.1
			l-3.4,4.1h1.9c0.4,0,0.7-0.2,1-0.5l1.8-2.1l1.2,1.5v0l0.5,0.6c0.2,0.3,0.6,0.5,1,0.5h1.9L35.1,45.8z M35.1,45.8L35.1,45.8
			L35.1,45.8L35.1,45.8z"/>
	</g>
	<g>
		<path class="st3" d="M50.3,27.9c-0.4,0-0.8,0.2-1,0.6l-2,3l-0.1-0.2l-1.6-2.8c-0.2-0.4-0.6-0.6-1.1-0.6h-1.6l0.7,1.3l0,0l1.4,2.3
			l0,0.1h0l1.1,1.8l-1.7,2.7H46c0.4,0,0.8-0.2,1-0.6l4.9-7.6H50.3z"/>
	</g>
	<g>
		<g>
			<path class="st7" d="M21.5,33.9C21.4,33.9,21.4,33.9,21.5,33.9l-0.1-0.2c0,0,0,0,0,0v-0.1l0,0c0,0,0,0,0,0c0,0,0-0.1,0-0.1
				c0,0,0.1,0,0.1,0l0,0c0,0,0,0,0,0c0,0,0,0,0,0c0,0,0,0,0,0v0L21.5,33.9C21.5,33.8,21.5,33.9,21.5,33.9
				C21.5,33.9,21.5,33.9,21.5,33.9z"/>
		</g>
		<g>
			<path class="st8" d="M47.3,29.2L47.3,29.2L47.3,29.2L47.3,29.2z M44.1,35.1L44.1,35.1L44.1,35.1L44.1,35.1z"/>
		</g>
		<g>
			<path class="st9" d="M44.1,35.2C44.1,35.2,44,35.2,44.1,35.2L44,35.1c0,0,0-0.1,0.1-0.1c0,0,0.1,0,0.1,0.1L44.1,35.2
				C44.2,35.2,44.1,35.2,44.1,35.2z M47.3,29.3C47.3,29.3,47.3,29.3,47.3,29.3C47.2,29.3,47.2,29.2,47.3,29.3l-0.1-0.1
				c0,0,0,0,0.1,0h0c0,0,0.1,0,0.1,0C47.4,29.1,47.4,29.2,47.3,29.3L47.3,29.3C47.3,29.3,47.3,29.3,47.3,29.3z"/>
		</g>
		<g>
			<path class="st10" d="M34,5.1l0.3,0h0.1l0.3,0L35,5.3l0.1,0l0.3,0.1l0.3,0.1l0.1,0l0.3,0.2L36.4,6L36.4,6l0.3,0.2l22.9,23.1
				l0.2,0.2l0.1,0.1l0.2,0.3l0.2,0.3l0,0.1l0.1,0.3l0.1,0.4l0.1,0.3l0,0.3v0.1l0,0.3l0,0.3v0.1l0,0.3l-0.1,0.3l-0.1,0.4L60.2,34
				l-0.2,0.3l-0.2,0.3l-0.1,0.1l-0.2,0.3L36.4,57.7L36.2,58L36.1,58l-0.3,0.2l-0.3,0.2l-0.1,0l-0.3,0.1l-0.4,0.1l-0.3,0.1l-0.3,0
				l-0.1,0l-0.3,0l-0.3,0l-0.1,0l-0.3,0l-0.3-0.1l-0.1,0l-0.3-0.1L32,58.4l-0.1,0l-0.3-0.2L31.3,58l-0.1-0.1L31,57.7l-0.1-0.1
				l0.1,0.1L8.1,34.6l-0.2-0.3l-0.1-0.1L7.6,34l-0.2-0.3l-0.2-0.4L7.2,33l0-0.1l-0.1-0.3l0-0.3l0-0.1l0-0.3l0-0.3l0-0.1l0-0.3
				l0.1-0.3l0-0.1l0.1-0.3l0.1-0.3l0-0.1l0.2-0.3l0.2-0.3l0.1-0.1l0.2-0.2L31.3,6.3L31.5,6L31.6,6l0.3-0.2l0.3-0.2l0.1,0l0.3-0.1
				l0.3-0.1l0.1,0l0.3-0.1l0.3,0h0.1L34,5.1z M34,6.2l-0.3,0l-0.2,0l-0.3,0.1l-0.2,0.1l-0.3,0.1l-0.2,0.1l-0.3,0.2L32,7L8.9,29.9
				l-0.2,0.2l-0.2,0.2l-0.2,0.2l-0.1,0.2L8.2,31l-0.1,0.3l0,0.3l0,0.2l0,0.2l0,0.3l0.1,0.3l0.1,0.2l0.1,0.3l0.1,0.2l0.2,0.3l0.2,0.2
				L31.8,57l0.2,0.2l0.2,0.2l0.2,0.1l0.3,0.1l0.2,0.1l0.3,0.1l0.3,0l0.2,0l0.2,0l0.3,0l0.3-0.1l0.2-0.1l0.3-0.1l0.2-0.1l0.3-0.2
				l0.2-0.1l23.1-22.9l0.2-0.2l0.2-0.2l0.1-0.2l0.1-0.3l0.1-0.2l0.1-0.3l0-0.2l0-0.3l0-0.3l0-0.2l-0.1-0.3l-0.1-0.2l-0.1-0.3
				l-0.1-0.2L59,30.4l-0.1-0.1l-0.1,0L35.9,7l-0.2-0.2l-0.2-0.2l-0.2-0.1L35,6.4l-0.2-0.1l-0.3-0.1l-0.2,0L34,6.2z"/>
		</g>
		<g>
			<path class="st2" d="M34,5.1l0.3,0h0.1l0.3,0L35,5.3l0.1,0l0.3,0.1l0.3,0.1l0.1,0l0.3,0.2L36.4,6L36.4,6l0.3,0.2l22.9,23.1
				l0.2,0.2l0.1,0.1l0.2,0.3l0.2,0.3l0,0.1l0.1,0.3l0.1,0.4l0.1,0.3l0,0.3v0.1l0,0.3l0,0.3v0.1l0,0.3l-0.1,0.3l-0.1,0.4L60.2,34
				l-0.2,0.3l-0.2,0.3l-0.1,0.1l-0.2,0.3L36.4,57.7L36.2,58L36.1,58l-0.3,0.2l-0.3,0.2l-0.1,0l-0.3,0.1l-0.4,0.1l-0.3,0.1l-0.3,0
				l-0.1,0l-0.3,0l-0.3,0l-0.1,0l-0.3,0l-0.3-0.1l-0.1,0l-0.3-0.1L32,58.4l-0.1,0l-0.3-0.2L31.3,58l-0.1-0.1L31,57.7l-0.1-0.1
				l0.1,0.1L8.1,34.6l-0.2-0.3l-0.1-0.1L7.6,34l-0.2-0.3l-0.2-0.4L7.2,33l0-0.1l-0.1-0.3l0-0.3l0-0.1l0-0.3l0-0.3l0-0.1l0-0.3
				l0.1-0.3l0-0.1l0.1-0.3l0.1-0.3l0-0.1l0.2-0.3l0.2-0.3l0.1-0.1l0.2-0.2L31.3,6.3L31.5,6L31.6,6l0.3-0.2l0.3-0.2l0.1,0l0.3-0.1
				l0.3-0.1l0.1,0l0.3-0.1l0.3,0h0.1L34,5.1z M34,6.2l-0.3,0l-0.2,0l-0.3,0.1l-0.2,0.1l-0.3,0.1l-0.2,0.1l-0.3,0.2L32,7L8.9,29.9
				l-0.2,0.2l-0.2,0.2l-0.2,0.2l-0.1,0.2L8.2,31l-0.1,0.3l0,0.3l0,0.2l0,0.2l0,0.3l0.1,0.3l0.1,0.2l0.1,0.3l0.1,0.2l0.2,0.3l0.2,0.2
				L31.8,57l0.2,0.2l0.2,0.2l0.2,0.1l0.3,0.1l0.2,0.1l0.3,0.1l0.3,0l0.2,0l0.2,0l0.3,0l0.3-0.1l0.2-0.1l0.3-0.1l0.2-0.1l0.3-0.2
				l0.2-0.1l23.1-22.9l0.2-0.2l0.2-0.2l0.1-0.2l0.1-0.3l0.1-0.2l0.1-0.3l0-0.2l0-0.3l0-0.3l0-0.2l-0.1-0.3l-0.1-0.2l-0.1-0.3
				l-0.1-0.2L59,30.4l-0.1-0.1l-0.1,0L35.9,7l-0.2-0.2l-0.2-0.2l-0.2-0.1L35,6.4l-0.2-0.1l-0.3-0.1l-0.2,0L34,6.2z"/>
			<path class="st11" d="M33.7,58.9l-0.3,0L33,58.8l-0.3-0.1l-0.1,0l-0.3-0.1l-0.4-0.2l-0.3-0.2l-0.3-0.2L31.2,58L31,57.8
				c0,0,0,0,0,0L8.1,34.6l-0.3-0.3L7.6,34l-0.2-0.3l-0.2-0.4l-0.1-0.4L7,32.6l-0.1-0.4l0-0.3l0-0.3L7,31.1l0.1-0.3l0-0.1l0.1-0.3
				l0.1-0.3L7.4,30l0.2-0.3l0.2-0.3l0.1-0.1l0.2-0.2L31.2,6.2L31.5,6l0.1-0.1l0.3-0.2l0.3-0.2l0.1-0.1l0.3-0.1l0.4-0.1l0.3-0.1
				l0.3-0.1l0.1,0l0.3,0c0,0,0,0,0,0l0.3,0l0.1,0l0.3,0l0.3,0.1l0.1,0l0.3,0.1l0.3,0.1l0.4,0.2l0.3,0.2L36.5,6l0.3,0.2l22.9,23.1
				l0.3,0.3l0.2,0.3l0.2,0.3l0.1,0.1l0.1,0.3l0.1,0.4l0.1,0.3l0.1,0.3l0,0.1l0,0.3l0,0.3l0,0.1l-0.1,0.3l-0.1,0.3l-0.1,0.4L60.3,34
				l-0.2,0.3l-0.2,0.3l-0.1,0.1l-0.2,0.3L36.5,57.8L36.2,58l-0.1,0.1l-0.3,0.2l-0.3,0.2l-0.1,0.1l-0.3,0.1l-0.4,0.1l-0.3,0.1
				L34,58.9L33.7,58.9z M31,57.6C31,57.6,31,57.6,31,57.6l0.1,0.1l0.2,0.2l0.1,0.1l0.3,0.2l0.3,0.2l0.1,0l0.3,0.1l0.4,0.1l0.3,0.1
				l0.4,0.1l0.3,0l0.3,0l0.1,0l0.3,0l0.3-0.1l0.4-0.1l0.4-0.2l0.3-0.2l0.3-0.2l0.1-0.1l0.3-0.2l23.1-22.9l0.2-0.3l0.1-0.1l0.2-0.3
				l0.2-0.3l0.2-0.4l0.1-0.4l0.1-0.3l0-0.3l0-0.1l0-0.3l0-0.4l0-0.3l-0.1-0.3l-0.1-0.4l-0.2-0.4L60,30.1l-0.2-0.3l-0.1-0.1l-0.2-0.2
				L36.6,6.3L36.3,6l-0.3-0.2l-0.4-0.2l-0.3-0.1L35,5.4l-0.3-0.1l-0.3,0l-0.1,0l-0.3,0l-0.4,0l-0.3,0l-0.4,0.1l-0.3,0.1l-0.4,0.2
				l-0.3,0.2l-0.3,0.3l-0.2,0.2L8.2,29.2l-0.3,0.3l-0.2,0.3l-0.2,0.4l-0.1,0.3l-0.1,0.4l-0.1,0.3l-0.1,0.4l0,0.3l0,0.3l0,0.1l0,0.3
				L7.2,33l0.1,0.3l0.2,0.4l0.2,0.3l0.3,0.3l0.2,0.3L31,57.6z M33.7,57.9l-0.2,0l-0.3,0l-0.3-0.1l-0.2-0.1l-0.3-0.1c0,0,0,0,0,0
				l-0.2-0.1l-0.2-0.2L31.7,57L8.8,33.9l-0.2-0.2l-0.2-0.3l-0.1-0.2l-0.1-0.3l-0.1-0.2L8,32.4l0-0.3l0-0.2l0-0.2l0-0.3L8.1,31
				l0.1-0.2l0.1-0.2l0.2-0.3l0.2-0.2l0.2-0.2L32,7l0.2-0.2l0.3-0.2l0.2-0.1c0,0,0,0,0,0l0.3-0.1l0.2-0.1l0.3-0.1l0.2,0l0.3,0
				c0,0,0,0,0,0l0.3,0l0.2,0l0.3,0.1l0.5,0.2l0.3,0.2l0.2,0.2L36,7l22.9,23.1l0.1,0c0,0,0,0,0,0l0.1,0.1l0.2,0.2l0.1,0.2
				c0,0,0,0,0,0l0.1,0.3l0.1,0.2l0.1,0.3l0,0.2l0,0.3l0,0.3l0,0.2L59.6,33l-0.1,0.2l-0.2,0.3l-0.1,0.2l-0.2,0.2l-0.2,0.2L35.8,57.1
				l-0.5,0.3l-0.2,0.1c0,0,0,0,0,0l-0.3,0.1l-0.2,0.1l-0.3,0.1L33.7,57.9z M32.4,57.4l0.3,0.1l0.2,0.1l0.3,0.1l0.3,0l0.2,0l0.5,0
				l0.3-0.1l0.2-0.1l0.3-0.1l0.2-0.1l0.5-0.3l23.1-22.9l0.2-0.2l0.2-0.2l0.1-0.2l0.1-0.3l0.1-0.2l0.1-0.3l0-0.2l0-0.3l0-0.3l0-0.2
				l-0.1-0.3l-0.1-0.2l-0.1-0.3l-0.1-0.2l-0.3-0.4l-0.1,0L35.9,7.1l-0.2-0.2l-0.2-0.2l-0.2-0.1l-0.5-0.2l-0.3-0.1l-0.2,0l-0.3,0
				l-0.3,0l-0.2,0l-0.3,0.1L33,6.5l-0.3,0.1l-0.2,0.1l-0.3,0.2l-0.2,0.2L8.9,30l-0.2,0.2l-0.2,0.2l-0.2,0.2l-0.1,0.2l-0.1,0.2
				l-0.1,0.3l0,0.3l0,0.2l0,0.2l0,0.3l0.1,0.3l0.1,0.2l0.1,0.3l0.1,0.2l0.2,0.3l0.2,0.2l22.9,23.1l0.2,0.2L32.4,57.4z"/>
		</g>
	</g>
	<g>
		<g>
			<path class="st2" d="M33.9,27.2c-2.7,0-4.9,2.2-4.9,4.9c0,2.7,2.2,4.9,4.9,4.9c2.7,0,4.9-2.2,4.9-4.9
				C38.7,29.4,36.6,27.2,33.9,27.2z M33.9,35C32.3,35,31,33.7,31,32c0-1.6,1.3-2.9,2.9-2.9c1.6,0,2.9,1.3,2.9,2.9
				C36.8,33.7,35.5,35,33.9,35z"/>
		</g>
	</g>
</g>
<title>icon_joyvox</title>
</svg>
