<?xml version="1.0" encoding="utf-8"?>
<!-- Generator: Adobe Illustrator 21.1.0, SVG Export Plug-In . SVG Version: 6.00 Build 0)  -->
<svg version="1.1" id="Calque_1" xmlns="http://www.w3.org/2000/svg" xmlns:xlink="http://www.w3.org/1999/xlink" x="0px" y="0px"
	 viewBox="0 0 67.7 64" style="enable-background:new 0 0 67.7 64;" xml:space="preserve">
<style type="text/css">
	.st0{fill:#FFFFFF;}
	.st1{fill-rule:evenodd;clip-rule:evenodd;fill:#FFFFFF;}
	.st2{fill:#274193;}
	.st3{fill:#F98645;}
	.st4{fill:#39AE8B;}
	.st5{fill:#00AAB8;}
	.st6{fill:#F56560;}
	.st7{fill:#DB4842;}
	.st8{fill-rule:evenodd;clip-rule:evenodd;fill:#7FC7D5;}
	.st9{fill:#7FC7D5;}
	.st10{fill-rule:evenodd;clip-rule:evenodd;fill:#274193;}
	.st11{fill:#254595;}
</style>
<title>logo_joyvox</title>
<g>
	<g>
		<g>
			<path class="st0" d="M19.5,33.7L19.5,33.7L19.5,33.7z M19.5,33.8L19.5,33.8L19.5,33.8L19.5,33.8z M19.5,33.8l0.1,0.2l0-0.1
				L19.5,33.8L19.5,33.8z"/>
		</g>
		<g>
			<path class="st1" d="M49.4,28.7L49.4,28.7L49.4,28.7L49.4,28.7z M45.7,35.6L45.7,35.6L45.7,35.6L45.7,35.6z"/>
		</g>
		<g>
			<path class="st0" d="M49.4,28.7L49.4,28.7L49.4,28.7L49.4,28.7z M45.7,35.6L45.7,35.6L45.7,35.6L45.7,35.6z"/>
		</g>
		<g>
			<path class="st1" d="M34,1.1l0.4,0h0.1l0.4,0.1l0.4,0.1l0.1,0l0.4,0.1L36,1.6l0.1,0.1l0.3,0.2L36.8,2l0.1,0.1l0.3,0.3L63.5,29
				l0.2,0.3l0.1,0.1l0.2,0.3l0.2,0.3l0.1,0.1l0.2,0.3l0.1,0.5l0.1,0.4l0.1,0.4v0.1l0,0.4l0,0.4v0.1L64.7,33l-0.1,0.4l-0.1,0.5
				l-0.2,0.5L64,34.6l-0.2,0.3L63.7,35l-0.3,0.3L36.8,61.6l-0.3,0.2L36.5,62l-0.3,0.2l-0.3,0.2l-0.1,0.1l-0.3,0.2l-0.5,0.2l-0.4,0.1
				l-0.4,0l-0.1,0l-0.4,0l-0.4,0l-0.1,0l-0.4-0.1l-0.4-0.1l-0.1,0L32,62.6l-0.3-0.2l-0.1-0.1l-0.3-0.2L31,61.9l-0.1-0.1l-0.3-0.2
				l-0.1-0.1l0.1,0.1L4.2,35L4,34.7l-0.1-0.1l-0.2-0.3L3.5,34l-0.2-0.5l-0.1-0.4l0-0.1L3,32.7l0-0.4l0-0.1l0-0.4l0-0.4l0-0.1L3,31
				l0.1-0.4l0-0.1l0.1-0.4l0.2-0.3l0.1-0.1l0.2-0.3l0.2-0.3L4,29l0.3-0.3L30.9,2.4l0.3-0.3L31.3,2l0.3-0.2l0.3-0.2L32,1.6l0.3-0.2
				l0.4-0.1l0.1,0l0.4-0.1l0.4-0.1h0.1L34,1.1z"/>
		</g>
		<g>
			<path class="st0" d="M34,1.1l0.4,0h0.1l0.4,0.1l0.4,0.1l0.1,0l0.4,0.1L36,1.6l0.1,0.1l0.3,0.2L36.8,2l0.1,0.1l0.3,0.3L63.5,29
				l0.2,0.3l0.1,0.1l0.2,0.3l0.2,0.3l0.1,0.1l0.2,0.3l0.1,0.5l0.1,0.4l0.1,0.4v0.1l0,0.4l0,0.4v0.1L64.7,33l-0.1,0.4l-0.1,0.5
				l-0.2,0.5L64,34.6l-0.2,0.3L63.7,35l-0.3,0.3L36.8,61.6l-0.3,0.2L36.5,62l-0.3,0.2l-0.3,0.2l-0.1,0.1l-0.3,0.2l-0.5,0.2l-0.4,0.1
				l-0.4,0l-0.1,0l-0.4,0l-0.4,0l-0.1,0l-0.4-0.1l-0.4-0.1l-0.1,0L32,62.6l-0.3-0.2l-0.1-0.1l-0.3-0.2L31,61.9l-0.1-0.1l-0.3-0.2
				l-0.1-0.1l0.1,0.1L4.2,35L4,34.7l-0.1-0.1l-0.2-0.3L3.5,34l-0.2-0.5l-0.1-0.4l0-0.1L3,32.7l0-0.4l0-0.1l0-0.4l0-0.4l0-0.1L3,31
				l0.1-0.4l0-0.1l0.1-0.4l0.2-0.3l0.1-0.1l0.2-0.3l0.2-0.3L4,29l0.3-0.3L30.9,2.4l0.3-0.3L31.3,2l0.3-0.2l0.3-0.2L32,1.6l0.3-0.2
				l0.4-0.1l0.1,0l0.4-0.1l0.4-0.1h0.1L34,1.1z"/>
		</g>
	</g>
	<g>
		<g>
			<rect x="16.1" y="24.2" class="st2" width="35.7" height="0.3"/>
			<path class="st2" d="M51.8,24.7H16.1c-0.1,0-0.2-0.1-0.2-0.2v-0.3c0-0.1,0.1-0.2,0.2-0.2h35.7c0.1,0,0.2,0.1,0.2,0.2v0.3
				C52,24.6,51.9,24.7,51.8,24.7z"/>
		</g>
	</g>
	<g>
		<g>
			<rect x="16.1" y="39.6" class="st3" width="35.7" height="0.3"/>
			<path class="st3" d="M51.8,40.2H16.1c-0.1,0-0.2-0.1-0.2-0.2v-0.3c0-0.1,0.1-0.2,0.2-0.2h35.7c0.1,0,0.2,0.1,0.2,0.2V40
				C52,40.1,51.9,40.2,51.8,40.2z"/>
		</g>
	</g>
	<g>
		<g>
			<rect x="41.5" y="14.2" class="st4" width="0.3" height="35.7"/>
			<path class="st4" d="M41.9,50.1h-0.3c-0.1,0-0.2-0.1-0.2-0.2V14.2c0-0.1,0.1-0.2,0.2-0.2h0.3c0.1,0,0.2,0.1,0.2,0.2v35.7
				C42.1,50,42,50.1,41.9,50.1z"/>
		</g>
	</g>
	<g>
		<g>
			<rect x="26.1" y="14.2" class="st5" width="0.3" height="35.7"/>
			<path class="st5" d="M26.4,50.1h-0.3c-0.1,0-0.2-0.1-0.2-0.2V14.2c0-0.1,0.1-0.2,0.2-0.2h0.3c0.1,0,0.2,0.1,0.2,0.2v35.7
				C26.6,50,26.5,50.1,26.4,50.1z"/>
		</g>
	</g>
	<g>
		<path class="st5" d="M36.2,13l-2.4,6.8L31.5,13c-0.2-0.6-0.7-1-1.3-1h-1.4l2.9,8.4c0.2,0.6,0.7,1,1.3,1h1.7c0.6,0,1.1-0.4,1.3-1
			L39,12h-1.4C37,12,36.4,12.4,36.2,13z"/>
	</g>
	<g>
		<path class="st6" d="M19.7,27.3v5.4c0,1.1-0.9,2-2,2s-2-0.9-2-2h-2.3c0,2.4,1.9,4.3,4.3,4.3s4.3-1.9,4.3-4.3v-5.4H19.7z"/>
	</g>
	<g>
		<path class="st4" d="M35.3,47.9l3.8-4.7H37c-0.4,0-0.8,0.2-1.1,0.5l-2,2.4l-2-2.4c-0.3-0.3-0.7-0.5-1.1-0.5h-2.2l3.8,4.7l-3.9,4.7
			h2.2c0.4,0,0.8-0.2,1.1-0.5l2-2.5l1.4,1.7v0l0.6,0.7c0.3,0.3,0.7,0.5,1.1,0.5h2.2L35.3,47.9z M35.3,47.9L35.3,47.9L35.3,47.9
			L35.3,47.9z"/>
	</g>
	<g>
		<path class="st3" d="M52.8,27.3c-0.5,0-0.9,0.2-1.2,0.6l-2.3,3.5l-0.1-0.2L47.3,28c-0.3-0.4-0.7-0.7-1.2-0.7h-1.8l0.8,1.4l0,0
			l1.6,2.7l0,0.1h0l1.2,2.1l-2,3.1h2c0.5,0,0.9-0.2,1.2-0.6l5.6-8.7H52.8z"/>
	</g>
	<g>
		<g>
			<path class="st7" d="M19.6,34.2C19.6,34.2,19.5,34.1,19.6,34.2l-0.1-0.3c0,0,0,0,0,0v-0.1l0,0c0,0,0,0,0,0c0,0,0-0.1,0.1-0.1
				c0,0,0.1,0,0.1,0.1l0,0.1c0,0,0,0,0,0c0,0,0,0,0,0c0,0,0,0,0,0v0l0.1,0.2C19.7,34.1,19.7,34.1,19.6,34.2
				C19.6,34.2,19.6,34.2,19.6,34.2z"/>
		</g>
		<g>
			<path class="st8" d="M49.4,28.7L49.4,28.7L49.4,28.7L49.4,28.7z M45.7,35.6L45.7,35.6L45.7,35.6L45.7,35.6z"/>
		</g>
		<g>
			<path class="st9" d="M45.7,35.7C45.6,35.7,45.6,35.6,45.7,35.7l-0.1-0.1c0,0,0-0.1,0.1-0.1c0,0,0.1,0,0.1,0.1L45.7,35.7
				C45.7,35.6,45.7,35.7,45.7,35.7z M49.3,28.9C49.3,28.9,49.3,28.9,49.3,28.9c-0.1,0-0.1-0.1-0.1-0.1l0-0.1c0,0,0-0.1,0.1-0.1h0
				c0,0,0.1,0,0.1,0c0,0,0,0.1,0,0.1L49.3,28.9C49.4,28.8,49.4,28.9,49.3,28.9z"/>
		</g>
		<g>
			<path class="st10" d="M34,1.1l0.4,0h0.1l0.4,0.1l0.4,0.1l0.1,0l0.4,0.1L36,1.6l0.1,0.1l0.3,0.2L36.8,2l0.1,0.1l0.3,0.3L63.5,29
				l0.2,0.3l0.1,0.1l0.2,0.3l0.2,0.3l0.1,0.1l0.2,0.3l0.1,0.5l0.1,0.4l0.1,0.4v0.1l0,0.4l0,0.4v0.1L64.7,33l-0.1,0.4l-0.1,0.5
				l-0.2,0.5L64,34.6l-0.2,0.3L63.7,35l-0.3,0.3L36.8,61.6l-0.3,0.2L36.5,62l-0.3,0.2l-0.3,0.2l-0.1,0.1l-0.3,0.2l-0.5,0.2l-0.4,0.1
				l-0.4,0l-0.1,0l-0.4,0l-0.4,0l-0.1,0l-0.4-0.1l-0.4-0.1l-0.1,0L32,62.6l-0.3-0.2l-0.1-0.1l-0.3-0.2l-0.3-0.2l-0.1-0.1l-0.3-0.2
				l-0.1-0.1l0.1,0.1L4.2,35L4,34.7l-0.1-0.1l-0.2-0.3L3.5,34l-0.2-0.5l-0.1-0.4l0-0.1L3,32.7l0-0.4l0-0.1l0-0.4l0-0.4l0-0.1L3,31
				l0.1-0.4l0-0.1l0.1-0.4l0.2-0.3l0.1-0.1l0.2-0.3l0.2-0.3L4,29l0.3-0.3L30.9,2.4l0.3-0.3L31.3,2l0.3-0.2l0.3-0.2L32,1.6l0.3-0.2
				l0.4-0.1l0.1,0l0.4-0.1l0.4-0.1h0.1L34,1.1z M34,2.3l-0.4,0l-0.2,0l-0.4,0.1l-0.2,0.1l-0.3,0.1l-0.2,0.2L31.9,3l-0.2,0.2
				L5.1,29.6l-0.2,0.2l-0.2,0.3l-0.2,0.3l-0.1,0.3l-0.1,0.3l-0.1,0.3l-0.1,0.4l0,0.2l0,0.2l0,0.4l0.1,0.4L4.4,33l0.2,0.3l0.1,0.2
				l0.2,0.3l0.2,0.2l26.4,26.6l0.2,0.2l0.3,0.2l0.2,0.2l0.3,0.1l0.3,0.1l0.3,0.1l0.4,0.1l0.2,0l0.2,0l0.4,0l0.4-0.1l0.2-0.1l0.3-0.1
				l0.2-0.2l0.3-0.2l0.2-0.2l26.6-26.4l0.2-0.2l0.2-0.3l0.1-0.2l0.2-0.3l0.1-0.2l0.1-0.4l0-0.2l0-0.4l0-0.4l0-0.3l-0.1-0.4L63.3,31
				l-0.1-0.3L63,30.4l-0.2-0.3l-0.1-0.2l-0.1-0.1L36.3,3.2L36,3l-0.3-0.2l-0.3-0.2l-0.3-0.1l-0.3-0.1l-0.3-0.1l-0.2,0L34,2.3z"/>
		</g>
		<g>
			<path class="st2" d="M34,1.1l0.4,0h0.1l0.4,0.1l0.4,0.1l0.1,0l0.4,0.1L36,1.6l0.1,0.1l0.3,0.2L36.8,2l0.1,0.1l0.3,0.3L63.5,29
				l0.2,0.3l0.1,0.1l0.2,0.3l0.2,0.3l0.1,0.1l0.2,0.3l0.1,0.5l0.1,0.4l0.1,0.4v0.1l0,0.4l0,0.4v0.1L64.7,33l-0.1,0.4l-0.1,0.5
				l-0.2,0.5L64,34.6l-0.2,0.3L63.7,35l-0.3,0.3L36.8,61.6l-0.3,0.2L36.5,62l-0.3,0.2l-0.3,0.2l-0.1,0.1l-0.3,0.2l-0.5,0.2l-0.4,0.1
				l-0.4,0l-0.1,0l-0.4,0l-0.4,0l-0.1,0l-0.4-0.1l-0.4-0.1l-0.1,0L32,62.6l-0.3-0.2l-0.1-0.1l-0.3-0.2l-0.3-0.2l-0.1-0.1l-0.3-0.2
				l-0.1-0.1l0.1,0.1L4.2,35L4,34.7l-0.1-0.1l-0.2-0.3L3.5,34l-0.2-0.5l-0.1-0.4l0-0.1L3,32.7l0-0.4l0-0.1l0-0.4l0-0.4l0-0.1L3,31
				l0.1-0.4l0-0.1l0.1-0.4l0.2-0.3l0.1-0.1l0.2-0.3l0.2-0.3L4,29l0.3-0.3L30.9,2.4l0.3-0.3L31.3,2l0.3-0.2l0.3-0.2L32,1.6l0.3-0.2
				l0.4-0.1l0.1,0l0.4-0.1l0.4-0.1h0.1L34,1.1z M34,2.3l-0.4,0l-0.2,0l-0.4,0.1l-0.2,0.1l-0.3,0.1l-0.2,0.2L31.9,3l-0.2,0.2
				L5.1,29.6l-0.2,0.2l-0.2,0.3l-0.2,0.3l-0.1,0.3l-0.1,0.3l-0.1,0.3l-0.1,0.4l0,0.2l0,0.2l0,0.4l0.1,0.4L4.4,33l0.2,0.3l0.1,0.2
				l0.2,0.3l0.2,0.2l26.4,26.6l0.2,0.2l0.3,0.2l0.2,0.2l0.3,0.1l0.3,0.1l0.3,0.1l0.4,0.1l0.2,0l0.2,0l0.4,0l0.4-0.1l0.2-0.1l0.3-0.1
				l0.2-0.2l0.3-0.2l0.2-0.2l26.6-26.4l0.2-0.2l0.2-0.3l0.1-0.2l0.2-0.3l0.1-0.2l0.1-0.4l0-0.2l0-0.4l0-0.4l0-0.3l-0.1-0.4L63.3,31
				l-0.1-0.3L63,30.4l-0.2-0.3l-0.1-0.2l-0.1-0.1L36.3,3.2L36,3l-0.3-0.2l-0.3-0.2l-0.3-0.1l-0.3-0.1l-0.3-0.1l-0.2,0L34,2.3z"/>
			<path class="st11" d="M33.7,63l-0.4,0l-0.5-0.1l-0.4-0.1l-0.1,0L32,62.7l-0.5-0.2l-0.3-0.2L30.9,62l-0.1-0.1l-0.3-0.2
				c0,0,0,0,0,0L4.1,35l-0.3-0.4l-0.2-0.3L3.4,34l-0.2-0.5L3,33.1l-0.1-0.4l-0.1-0.5l0-0.4l0-0.4L2.9,31L3,30.6l0-0.1l0.1-0.4
				l0.2-0.3l0.1-0.1l0.2-0.3l0.2-0.3L3.9,29l0.3-0.3L30.8,2.3l0.3-0.3L31.2,2l0.3-0.2l0.3-0.2L32,1.5l0.3-0.2l0.5-0.2l0.4-0.1
				L33.5,1l0.1,0L34,1c0,0,0,0,0,0l0.4,0l0.1,0l0.4,0.1l0.4,0.1l0.1,0l0.4,0.1l0.3,0.2l0.4,0.2L36.8,2l0.1,0.1l0.3,0.3L63.6,29
				l0.3,0.4l0.2,0.3l0.2,0.3l0.1,0.1l0.2,0.3l0.2,0.5l0.1,0.4l0.1,0.4l0,0.1l0,0.4l0,0.4l0,0.1L64.8,33l-0.1,0.4l-0.2,0.5l-0.2,0.5
				l-0.2,0.3l-0.2,0.3L63.8,35l-0.3,0.3L36.9,61.7L36.6,62L36.5,62l-0.3,0.2l-0.3,0.2l-0.1,0.1l-0.3,0.2l-0.5,0.2l-0.4,0.1L34.1,63
				L33.7,63z M30.5,61.5C30.5,61.5,30.5,61.5,30.5,61.5l0.1,0.1l0.3,0.2l0.1,0.1l0.3,0.2l0.3,0.2l0.1,0.1l0.3,0.1l0.4,0.2l0.3,0.1
				l0.5,0.1l0.4,0l0.3,0l0.1,0l0.4,0l0.3-0.1l0.4-0.1l0.4-0.2l0.3-0.2l0.3-0.2l0.1-0.1l0.3-0.2l26.6-26.4l0.3-0.3l0.1-0.1l0.2-0.3
				l0.2-0.3l0.2-0.4l0.1-0.4l0.1-0.4l0.1-0.3l0-0.1l0-0.4l0-0.5l-0.1-0.4L64.5,31l-0.1-0.4l-0.2-0.4L64,29.8l-0.2-0.3l-0.1-0.1
				l-0.2-0.3L37.1,2.5l-0.4-0.4l-0.3-0.2L36,1.6l-0.3-0.1l-0.5-0.2l-0.4-0.1l-0.3-0.1l-0.1,0l-0.4,0l-0.5,0l-0.3,0.1l-0.5,0.1
				l-0.4,0.1l-0.4,0.2l-0.3,0.2l-0.4,0.3l-0.3,0.3L4.3,28.8L4,29.2l-0.2,0.3l-0.3,0.4l-0.1,0.3l-0.2,0.5L3.1,31L3,31.5l0,0.3l0,0.4
				l0,0.1l0,0.4l0.1,0.5l0.1,0.4l0.2,0.4l0.2,0.3L4,34.6l0.2,0.3L30.5,61.5z M33.7,61.8l-0.3,0l-0.4-0.1l-0.3-0.1l-0.3-0.1l-0.3-0.1
				c0,0,0,0,0,0l-0.2-0.2L31.6,61l-0.2-0.2L5,34.2L4.8,34l-0.2-0.3l-0.1-0.2l-0.2-0.3l-0.1-0.3l-0.1-0.4l0-0.4l0-0.2l0-0.3l0.1-0.4
				l0.1-0.3l0.1-0.3l0.1-0.3L4.6,30l0.2-0.3L5,29.5L31.7,3.2L31.9,3l0.3-0.2l0.2-0.2c0,0,0,0,0,0l0.3-0.1L33,2.4l0.4-0.1l0.3,0
				l0.4,0c0,0,0,0,0,0l0.4,0l0.3,0l0.3,0.1l0.6,0.2l0.3,0.2l0.3,0.2l0.3,0.3l26.4,26.6l0.1,0c0,0,0,0,0,0l0.1,0.2l0.2,0.3l0.2,0.2
				c0,0,0,0,0,0l0.1,0.3l0.1,0.2l0.1,0.4l0,0.3l0,0.4l0,0.4l0,0.3l-0.1,0.4l-0.1,0.2l-0.2,0.3l-0.1,0.2l-0.2,0.3l-0.2,0.3L36,60.9
				l-0.5,0.4l-0.2,0.2c0,0,0,0,0,0l-0.3,0.1l-0.2,0.1l-0.4,0.1L33.7,61.8z M32.2,61.3l0.3,0.1l0.3,0.1l0.3,0.1l0.4,0.1l0.2,0
				l0.6-0.1l0.3-0.1l0.2-0.1l0.3-0.1l0.2-0.2l0.5-0.4l26.6-26.4l0.2-0.2l0.2-0.3l0.1-0.2l0.2-0.3l0.1-0.2l0.1-0.4l0-0.2l0-0.3l0-0.3
				l0-0.3l-0.1-0.3L63.3,31l-0.1-0.3L63,30.4L62.6,30l-0.1,0L36.2,3.3L36,3.1l-0.3-0.2l-0.3-0.2l-0.5-0.2l-0.3-0.1l-0.2,0l-0.3,0
				l-0.4,0l-0.2,0l-0.3,0.1l-0.2,0.1l-0.3,0.1l-0.2,0.2L32,3.1l-0.2,0.2L5.1,29.6l-0.2,0.2l-0.2,0.3l-0.2,0.3l-0.1,0.2l-0.1,0.3
				l-0.1,0.3l-0.1,0.4l0,0.2l0,0.2l0,0.4l0.1,0.3L4.4,33l0.2,0.3l0.1,0.2l0.2,0.3l0.2,0.2l26.4,26.6l0.2,0.2L32.2,61.3z"/>
		</g>
	</g>
	<g>
		<g>
			<path class="st2" d="M33.9,26.5c-3.1,0-5.6,2.5-5.6,5.6c0,3.1,2.5,5.6,5.6,5.6c3.1,0,5.6-2.5,5.6-5.6C39.5,29,37,26.5,33.9,26.5z
				 M33.9,35.4c-1.8,0-3.3-1.5-3.3-3.3c0-1.8,1.5-3.3,3.3-3.3c1.8,0,3.3,1.5,3.3,3.3C37.2,33.9,35.7,35.4,33.9,35.4z"/>
		</g>
	</g>
</g>
</svg>
