<svg id="Calque_1" data-name="Calque 1" xmlns="http://www.w3.org/2000/svg" viewBox="0 0 64 64"><title>postalbox</title><rect x="28.44" y="36.59" width="7.12" height="14.65" style="fill:none;stroke:#1d212b;stroke-linecap:round;stroke-linejoin:round;stroke-width:2px"/><path d="M33.9,36.59H15.39V22a9.26,9.26,0,0,1,9.26-9.26h0A9.26,9.26,0,0,1,33.9,22v7" style="fill:none;stroke:#1d212b;stroke-linecap:round;stroke-linejoin:round;stroke-width:2px"/><path d="M34.1,36.59H48.61V22a9.26,9.26,0,0,0-9.26-9.26H24.64" style="fill:none;stroke:#1d212b;stroke-linecap:round;stroke-linejoin:round;stroke-width:2px"/><path d="M28.9,23.47a10.7,10.7,0,0,0-2.55,3.66H16.56a10.7,10.7,0,0,1,2.55-3.66S28.82,23.39,28.9,23.47Z" style="fill:none;stroke:#1d212b;stroke-linecap:round;stroke-linejoin:round;stroke-width:2px"/><polyline points="19.12 23.46 19.12 21.8 28.94 21.8 28.94 25.47 27.24 25.47" style="fill:none;stroke:#1d212b;stroke-linecap:round;stroke-linejoin:round;stroke-width:2px"/><line x1="32.61" y1="36.61" x2="32.61" y2="45.54" style="fill:none;stroke:#1d212b;stroke-linecap:round;stroke-linejoin:round;stroke-width:2px"/></svg>