<svg id="Calque_1" data-name="Calque 1" xmlns="http://www.w3.org/2000/svg" viewBox="0 0 64 64"><title>quote</title><path d="M30.49,26.74a7.6,7.6,0,0,0-15.2,0,7.52,7.52,0,0,0,.42,2.4h-.05c.07.18.14.34.21.52l0,.07c3.9,9.83,9.8,13.83,10.59,14.33a2.91,2.91,0,1,0,3.89-4.32h0c-3.64-3.22-1.16-8.71-.72-9.61" style="fill:none;stroke:#1d212b;stroke-linecap:round;stroke-linejoin:round"/><path d="M47.79,26.74a7.6,7.6,0,0,0-15.2,0,7.52,7.52,0,0,0,.42,2.4H33c.07.18.14.34.21.52l0,.07c3.9,9.83,9.8,13.83,10.59,14.33a2.91,2.91,0,1,0,3.89-4.32h0C44,36.51,46.52,31,47,30.12" style="fill:none;stroke:#1d212b;stroke-linecap:round;stroke-linejoin:round"/></svg>