<svg id="Calque_1" data-name="Calque 1" xmlns="http://www.w3.org/2000/svg" viewBox="0 0 64 64"><title>settings</title><path d="M49.79,28.14H49a2.69,2.69,0,0,1-2.5-1.75q-.13-.34-.28-.68a2.69,2.69,0,0,1,.53-3l.56-.56a2.4,2.4,0,0,0,0-3.38L45.23,16.7a2.4,2.4,0,0,0-3.38,0l-.56.56a2.69,2.69,0,0,1-3,.53l-.68-.28A2.69,2.69,0,0,1,35.86,15v-.8a2.4,2.4,0,0,0-2.39-2.39H30.53a2.4,2.4,0,0,0-2.39,2.39V15a2.69,2.69,0,0,1-1.75,2.5l-.68.28a2.69,2.69,0,0,1-3-.53l-.56-.56a2.4,2.4,0,0,0-3.38,0L16.7,18.77a2.4,2.4,0,0,0,0,3.38l.56.56a2.69,2.69,0,0,1,.53,3q-.15.33-.28.68A2.69,2.69,0,0,1,15,28.14h-.8a2.4,2.4,0,0,0-2.39,2.39v2.94a2.4,2.4,0,0,0,2.39,2.39H15a2.69,2.69,0,0,1,2.5,1.75q.13.34.28.68a2.69,2.69,0,0,1-.53,3l-.56.56a2.4,2.4,0,0,0,0,3.38l2.08,2.08a2.4,2.4,0,0,0,3.38,0l.56-.56a2.69,2.69,0,0,1,3-.53l.68.28A2.69,2.69,0,0,1,28.14,49v.8a2.4,2.4,0,0,0,2.39,2.39h2.94a2.4,2.4,0,0,0,2.39-2.39V49a2.69,2.69,0,0,1,1.75-2.5l.68-.28a2.69,2.69,0,0,1,3,.53l.56.56a2.4,2.4,0,0,0,3.38,0l2.08-2.08a2.4,2.4,0,0,0,0-3.38l-.56-.56a2.69,2.69,0,0,1-.53-3q.15-.33.28-.68A2.69,2.69,0,0,1,49,35.86h.8a2.4,2.4,0,0,0,2.39-2.39V30.53A2.4,2.4,0,0,0,49.79,28.14ZM32,39.28A7.28,7.28,0,1,1,39.28,32,7.28,7.28,0,0,1,32,39.28Z" style="fill:none;stroke:#1d212b;stroke-miterlimit:10;stroke-width:2px"/></svg>