<svg id="Calque_1" data-name="Calque 1" xmlns="http://www.w3.org/2000/svg" viewBox="0 0 64 64"><title>twitter</title><path d="M24.63,48.12c15,0,23.18-12.4,23.18-23.16q0-.53,0-1.05a16.56,16.56,0,0,0,4.06-4.21A16.28,16.28,0,0,1,47.17,21a8.17,8.17,0,0,0,3.58-4.5,16.32,16.32,0,0,1-5.17,2A8.15,8.15,0,0,0,31.7,25.87a23.13,23.13,0,0,1-16.79-8.5,8.14,8.14,0,0,0,2.52,10.87,8.09,8.09,0,0,1-3.69-1s0,.07,0,.1a8.14,8.14,0,0,0,6.54,8,8.14,8.14,0,0,1-3.68.14,8.15,8.15,0,0,0,7.61,5.65,16.36,16.36,0,0,1-10.12,3.48,16.63,16.63,0,0,1-1.94-.11,23.08,23.08,0,0,0,12.49,3.66" style="fill:#1d212b"/></svg>