<svg id="Calque_1" data-name="Calque 1" xmlns="http://www.w3.org/2000/svg" viewBox="0 0 64 64"><title>video</title><path d="M51.37,27.48V42.08a5.56,5.56,0,0,1-5.56,5.56H18.19a5.56,5.56,0,0,1-5.56-5.56V21.92a5.56,5.56,0,0,1,5.56-5.56H45.81a5.56,5.56,0,0,1,5.56,5.56" style="fill:none;stroke:#1d212b;stroke-linecap:round;stroke-linejoin:round;stroke-width:2px"/><path d="M25.78,39.87V24.13a2.15,2.15,0,0,1,3.46-1.7l10.15,7.81a2.15,2.15,0,0,1,0,3.39L29.25,41.56A2.15,2.15,0,0,1,25.78,39.87Z" style="fill:none;stroke:#1d212b;stroke-linecap:round;stroke-linejoin:round;stroke-width:2px"/></svg>