<svg id="Calque_1" data-name="Calque 1" xmlns="http://www.w3.org/2000/svg" viewBox="0 0 64 64"><title>cloud</title><path d="M39,38.85a.5.5,0,0,1-.31-.11,38.74,38.74,0,0,1-7-7,.5.5,0,1,1,.8-.6A37.73,37.73,0,0,0,39.28,38a.5.5,0,0,1-.31.89Z" style="fill:#1d212b"/><path d="M25,38.85a.5.5,0,0,1-.31-.89,37.74,37.74,0,0,0,6.82-6.82.5.5,0,1,1,.8.6,38.73,38.73,0,0,1-7,7A.5.5,0,0,1,25,38.85Z" style="fill:#1d212b"/><path d="M32,52.58a.5.5,0,0,1-.5-.5V32.44a.5.5,0,0,1,1,0V52.08A.5.5,0,0,1,32,52.58Z" style="fill:#1d212b"/><path d="M44,47H35.6a.5.5,0,0,1,0-1H44a9.5,9.5,0,0,0,2.83-18.57.5.5,0,0,1-.35-.49v-.21c0-.08,0-.15,0-.23a12.49,12.49,0,0,0-23.66-5.61.49.49,0,0,1-.56.26A5.48,5.48,0,0,0,15.5,26.5a5.56,5.56,0,0,0,.13,1.16.5.5,0,0,1-.25.54A9.5,9.5,0,0,0,20,46h7.9a.5.5,0,1,1,0,1H20a10.5,10.5,0,0,1-5.42-19.49,6.49,6.49,0,0,1,7.54-7.41A13.49,13.49,0,0,1,47.5,26.5s0,.06,0,.1A10.5,10.5,0,0,1,44,47Z" style="fill:#1d212b"/></svg>