<svg id="Calque_1" data-name="Calque 1" xmlns="http://www.w3.org/2000/svg" viewBox="0 0 64 64"><title>delivery</title><path d="M43,47.36a4.57,4.57,0,1,1,4.57-4.57A4.58,4.58,0,0,1,43,47.36Zm0-8.15a3.57,3.57,0,1,0,3.57,3.57A3.58,3.58,0,0,0,43,39.21Z" style="fill:#1d212b"/><path d="M25.52,47.36a4.57,4.57,0,1,1,4.57-4.57A4.58,4.58,0,0,1,25.52,47.36Zm0-8.15a3.57,3.57,0,1,0,3.57,3.57A3.58,3.58,0,0,0,25.52,39.21Z" style="fill:#1d212b"/><path d="M51.85,43.11H47.72a.5.5,0,1,1,0-1h3.63V30.68a4.09,4.09,0,0,0-4.09-4.09H41.52a.5.5,0,0,1,0-1h5.74a5.1,5.1,0,0,1,5.09,5.09V42.61A.5.5,0,0,1,51.85,43.11Z" style="fill:#1d212b"/><path d="M41.52,39.21a.5.5,0,0,1-.5-.5V17.64H16.85a.5.5,0,0,1,0-1H41.52a.5.5,0,0,1,.5.5V38.71A.5.5,0,0,1,41.52,39.21Z" style="fill:#1d212b"/><path d="M38.89,43.11h-9.3a.5.5,0,0,1,0-1h9.3a.5.5,0,0,1,0,1Z" style="fill:#1d212b"/><path d="M21.44,43.11H16.85a.5.5,0,0,1-.5-.5V30.94a.5.5,0,0,1,1,0V42.11h4.09a.5.5,0,0,1,0,1Z" style="fill:#1d212b"/><path d="M27.64,22.46H12.15a.5.5,0,0,1,0-1H27.64a.5.5,0,0,1,0,1Z" style="fill:#1d212b"/><path d="M27.64,26.82H16.74a.5.5,0,0,1,0-1h10.9a.5.5,0,1,1,0,1Z" style="fill:#1d212b"/></svg>