<svg id="Calque_1" data-name="Calque 1" xmlns="http://www.w3.org/2000/svg" viewBox="0 0 64 64"><title>desktop</title><path d="M30.21,44.88H13.15a.5.5,0,0,1-.5-.5V19a4.16,4.16,0,0,1,4.15-4.16H47.19A4.16,4.16,0,0,1,51.35,19a.5.5,0,0,1-1,0,3.16,3.16,0,0,0-3.15-3.16H16.81A3.16,3.16,0,0,0,13.65,19V43.88H30.21a.5.5,0,0,1,0,1Z" style="fill:#1d212b"/><path d="M50.85,44.88H34.26a.5.5,0,0,1,0-1H50.35v-19a.5.5,0,1,1,1,0V44.38A.5.5,0,0,1,50.85,44.88Z" style="fill:#1d212b"/><path d="M50.3,49.19H13.7A3.2,3.2,0,0,1,10.5,46V44.38a.5.5,0,0,1,.5-.5H28a.5.5,0,1,1,0,1H11.5V46a2.2,2.2,0,0,0,2.2,2.2H50.3A2.2,2.2,0,0,0,52.5,46V44.88H36.42a.5.5,0,0,1,0-1H53a.5.5,0,0,1,.5.5V46A3.2,3.2,0,0,1,50.3,49.19Z" style="fill:#1d212b"/><path d="M47.62,42.73H16.38a.5.5,0,0,1-.5-.5V18.54a.5.5,0,0,1,.5-.5H47.62a.5.5,0,0,1,.5.5v2.94a.5.5,0,1,1-1,0V19H16.88V41.73H47.12V27.82a.5.5,0,1,1,1,0V42.23A.5.5,0,0,1,47.62,42.73Z" style="fill:#1d212b"/></svg>