<svg id="Calque_1" data-name="Calque 1" xmlns="http://www.w3.org/2000/svg" viewBox="0 0 64 64"><title>email</title><path d="M47.49,53.34h-31a4.72,4.72,0,0,1-4.72-4.72v-19a.5.5,0,0,1,1,0v19a3.72,3.72,0,0,0,3.72,3.72h31a3.72,3.72,0,0,0,3.72-3.72V26.37L32.29,40a.49.49,0,0,1-.59,0L13.45,26.8a.5.5,0,0,1,0-.78,4.58,4.58,0,0,1,3.11-1.14h31a3.67,3.67,0,0,0,1.93-.5L32,11.78l-11.78,8.5a.5.5,0,1,1-.58-.81l12.07-8.71a.5.5,0,0,1,.59,0L50.55,24a.5.5,0,0,1,0,.78,4.56,4.56,0,0,1-3,1.14h-31a3.67,3.67,0,0,0-1.93.5L32,39,51.41,25a.5.5,0,0,1,.79.41V48.62A4.72,4.72,0,0,1,47.49,53.34Z" style="fill:#1d212b"/></svg>