<svg id="Calque_1" data-name="Calque 1" xmlns="http://www.w3.org/2000/svg" viewBox="0 0 64 64"><title>girl</title><path d="M35.63,55.36a2.12,2.12,0,0,1-2.11-2.11V51.12H31.17v2.12a2.11,2.11,0,1,1-4.23,0V50.83H25.37a.5.5,0,0,1-.49-.59l1.33-7a.5.5,0,1,1,1,.19L26,49.83h1.47a.5.5,0,0,1,.5.5v2.91a1.11,1.11,0,1,0,2.23,0V50.62a.5.5,0,0,1,.5-.5H34a.5.5,0,0,1,.5.5v2.62a1.11,1.11,0,0,0,2.23,0V50.33a.5.5,0,0,1,.5-.5h1.4L36.81,40a.5.5,0,0,1,.88-.41l3.48,4.2a1.12,1.12,0,0,0,1.73-1.43l-4.39-5.3a1.1,1.1,0,0,0-1.14-.37.51.51,0,0,1-.43-.09.5.5,0,0,1-.19-.39.51.51,0,0,1,.48-.51,2.13,2.13,0,0,1,2.05.72l4.39,5.3a2.12,2.12,0,0,1-3.26,2.71L38.15,41.7l1.59,8.54a.5.5,0,0,1-.49.59h-1.5v2.41A2.12,2.12,0,0,1,35.63,55.36Z" style="fill:#1d212b"/><path d="M22.3,45.28a2.12,2.12,0,0,1-1.63-3.47l4.39-5.3a2.14,2.14,0,0,1,.4-.37A14.52,14.52,0,1,1,42.66,33a.5.5,0,1,1-.73-.68,13.54,13.54,0,1,0-14.69,3.45.5.5,0,0,1-.29,1,1.12,1.12,0,0,0-1.11.37l-4.39,5.3A1.12,1.12,0,0,0,21.59,44a1.08,1.08,0,0,0,.82.25,1.11,1.11,0,0,0,.76-.4L27,39.23a.5.5,0,0,1,.77.64l-3.85,4.64a2.11,2.11,0,0,1-1.43.76Z" style="fill:#1d212b"/><path d="M17.22,32.55a.5.5,0,0,1-.18-1c.15-.06,14.73-6,14.73-18.69a.5.5,0,0,1,1-.13c.05.18,5.19,18.48,15.78,18.48a.5.5,0,0,1,0,1c-9,0-14.11-11.57-16-16.77-.7,4.57-3.26,8.8-7.51,12.34a31,31,0,0,1-7.66,4.7A.49.49,0,0,1,17.22,32.55Z" style="fill:#1d212b"/></svg>