<svg id="Calque_1" data-name="Calque 1" xmlns="http://www.w3.org/2000/svg" viewBox="0 0 64 64"><title>heart</title><path d="M16.25,34.76a.5.5,0,0,1-.32-.12A12,12,0,0,1,28.1,14.27a.5.5,0,1,1-.37.93A11,11,0,0,0,16.57,33.88a.5.5,0,0,1-.32.88Z" style="fill:#1d212b"/><path d="M48.73,33.83a.5.5,0,0,1-.37-.84A11,11,0,1,0,30.61,20.23a.5.5,0,0,1-.88-.47A12,12,0,1,1,49.09,33.67.5.5,0,0,1,48.73,33.83Z" style="fill:#1d212b"/><path d="M32,50.56a.5.5,0,0,1-.35-.15L15.47,34.24a.5.5,0,0,1,.71-.71L32,49.36,48.38,33a.5.5,0,0,1,.71.71L32.36,50.42A.5.5,0,0,1,32,50.56Z" style="fill:#1d212b"/></svg>