<svg id="Calque_1" data-name="Calque 1" xmlns="http://www.w3.org/2000/svg" viewBox="0 0 64 64"><title>house</title><path d="M50.07,31.41a.5.5,0,0,1-.31-.11,99.64,99.64,0,0,1-18-18,.5.5,0,0,1,.8-.6A98.57,98.57,0,0,0,50.38,30.52a.5.5,0,0,1-.31.89Z" style="fill:#1d212b"/><path d="M13.93,31.41a.5.5,0,0,1-.31-.89A98.57,98.57,0,0,0,31.44,12.7a.5.5,0,0,1,.8.6,99.64,99.64,0,0,1-18,18A.5.5,0,0,1,13.93,31.41Z" style="fill:#1d212b"/><path d="M45,51.5H36.54a.5.5,0,0,1,0-1h8V27.18a.5.5,0,1,1,1,0V51A.5.5,0,0,1,45,51.5Z" style="fill:#1d212b"/><path d="M27.46,51.5H19a.5.5,0,0,1-.5-.5V27.18a.5.5,0,0,1,1,0V50.5H27V39.66a5,5,0,1,1,10.07,0,.5.5,0,0,1-1,0,4,4,0,1,0-8.07,0V51A.5.5,0,0,1,27.46,51.5Z" style="fill:#1d212b"/></svg>