<svg id="Calque_1" data-name="Calque 1" xmlns="http://www.w3.org/2000/svg" viewBox="0 0 64 64"><title>icon_obaibi</title><path d="M47.71,38.7a1.54,1.54,0,1,0-1.51,1.83A1.69,1.69,0,0,0,47.71,38.7Z"/><path d="M47.71,33a1.54,1.54,0,1,0-1.51,1.84A1.7,1.7,0,0,0,47.71,33Z"/><path d="M42.4,21.49c0-6.21-4.51-11.27-10.07-11.27S22.28,15.28,22.28,21.49s4.51,11.29,10.05,11.29S42.4,27.72,42.4,21.49Zm-17.23,0c0-4.42,3.22-8,7.17-8s7.16,3.6,7.16,8-3.21,8-7.16,8S25.18,25.93,25.18,21.49Z"/><path d="M32.54,50.48a7.73,7.73,0,0,0,1.45,2,4.1,4.1,0,0,0,3,1.27c3.17-.06,5.6-4.32,5.53-9.69a13.76,13.76,0,0,0-1.68-6.68c1-.23,1.68-.71,1.68-1.41,0-1-1.6-1.56-3.2-1.56h-.09v0s-4.9-.05-13.6,0v0c-1.53,0-3,.56-3,1.56a1.14,1.14,0,0,0,.59,1h0l.09.05.15.07a.85.85,0,0,1,.43,1c-.06.11-.1.22-.15.34a.11.11,0,0,0,0,.05h0a14.42,14.42,0,0,0-1.07,5.86c.06,3.41,1.13,6.55,2.83,8.2a4.13,4.13,0,0,0,3,1.27C30,53.73,31.53,52.47,32.54,50.48ZM39.82,44c0,3.6-1.29,6.58-3,6.61s-3.06-2.86-3.09-6.47,1.28-6.59,2.94-6.63S39.79,40.38,39.82,44Zm-14.57.14c0-3.62,1.28-6.59,2.95-6.63s3.06,2.86,3.09,6.48S30,50.57,28.35,50.61,25.29,47.75,25.25,44.14Z"/></svg>