<svg id="Calque_1" data-name="Calque 1" xmlns="http://www.w3.org/2000/svg" viewBox="0 0 64 64"><title>iframe</title><path d="M40.16,42.77a.5.5,0,0,1-.39-.81A56.92,56.92,0,0,1,50,31.69a.5.5,0,0,1,.6.8,55.87,55.87,0,0,0-10.09,10.1A.5.5,0,0,1,40.16,42.77Z" style="fill:#1d212b"/><path d="M50.34,32.41a.5.5,0,0,1-.3-.1A56.92,56.92,0,0,1,39.77,22a.5.5,0,1,1,.78-.62,55.87,55.87,0,0,0,10.09,10.1.5.5,0,0,1-.3.9Z" style="fill:#1d212b"/><path d="M13.66,32.41a.5.5,0,0,1-.3-.9,55.87,55.87,0,0,0,10.09-10.1.5.5,0,1,1,.78.62A56.92,56.92,0,0,1,14,32.31.5.5,0,0,1,13.66,32.41Z" style="fill:#1d212b"/><path d="M23.84,42.77a.5.5,0,0,1-.39-.19,55.87,55.87,0,0,0-10.09-10.1.5.5,0,0,1,.6-.8A56.92,56.92,0,0,1,24.23,42a.5.5,0,0,1-.39.81Z" style="fill:#1d212b"/><path d="M28.27,44.69l-.14,0a.5.5,0,0,1-.33-.62l7.46-24.82a.5.5,0,0,1,1,.29L28.75,44.34A.5.5,0,0,1,28.27,44.69Z" style="fill:#1d212b"/></svg>