<svg id="Calque_1" data-name="Calque 1" xmlns="http://www.w3.org/2000/svg" viewBox="0 0 64 64"><title>list</title><path d="M49.05,22.31H19a.5.5,0,0,1,0-1H49.05a.5.5,0,0,1,0,1Z" style="fill:#1d212b"/><path d="M15.63,22.31h-.68a.5.5,0,1,1,0-1h.68a.5.5,0,0,1,0,1Z" style="fill:#1d212b"/><path d="M49.05,32.5H19a.5.5,0,0,1,0-1H49.05a.5.5,0,0,1,0,1Z" style="fill:#1d212b"/><path d="M15.63,32.5h-.68a.5.5,0,0,1,0-1h.68a.5.5,0,0,1,0,1Z" style="fill:#1d212b"/><path d="M49.05,42.69H19a.5.5,0,0,1,0-1H49.05a.5.5,0,0,1,0,1Z" style="fill:#1d212b"/><path d="M15.63,42.69h-.68a.5.5,0,0,1,0-1h.68a.5.5,0,1,1,0,1Z" style="fill:#1d212b"/></svg>