<svg id="Calque_1" data-name="Calque 1" xmlns="http://www.w3.org/2000/svg" viewBox="0 0 160 64"><title>logo_okaidi</title><path d="M97.7,23.59A1.72,1.72,0,0,0,96,25.29V41.06a1.7,1.7,0,0,0,3.4,0V25.29A1.71,1.71,0,0,0,97.7,23.59Z" style="fill:#221f1f"/><path d="M130,23.59a1.72,1.72,0,0,0-1.71,1.71V41.06A1.7,1.7,0,0,0,130,42.75a1.67,1.67,0,0,0,1.67-1.68V25.29A1.68,1.68,0,0,0,130,23.59Z" style="fill:#221f1f"/><path d="M100.48,18.37a1.69,1.69,0,1,0,1.7,1.7A1.7,1.7,0,0,0,100.48,18.37Z" style="fill:#221f1f"/><path d="M96.61,20.06a1.7,1.7,0,1,0-1.69,1.69A1.7,1.7,0,0,0,96.61,20.06Z" style="fill:#221f1f"/><path d="M130,21.75a1.69,1.69,0,1,0-1.71-1.69A1.69,1.69,0,0,0,130,21.75Z" style="fill:#221f1f"/><path d="M68.3,39.54l-10.76-7,10.54-5.4A1.68,1.68,0,0,0,67.24,24a1.74,1.74,0,0,0-.82.21L53.93,30.71V25.3a1.68,1.68,0,1,0-3.35,0V41a1.68,1.68,0,1,0,3.35,0V36.3a1.17,1.17,0,0,1,1.16-1.14,1,1,0,0,1,.46.1h0l11,7.18a1.79,1.79,0,0,0,.85.25,1.74,1.74,0,0,0,1.46-.85,1.7,1.7,0,0,0-.61-2.3Z" style="fill:#221f1f"/><path d="M41.73,23.64H30.4a5.53,5.53,0,0,0-5.51,5.5v8a5.53,5.53,0,0,0,5.51,5.51H41.73a5.51,5.51,0,0,0,5.5-5.51v-8A5.51,5.51,0,0,0,41.73,23.64Zm2.13,13.15a2.58,2.58,0,0,1-2.57,2.57H30.84a2.59,2.59,0,0,1-2.6-2.57V29.53A2.58,2.58,0,0,1,30.84,27H41.28a2.57,2.57,0,0,1,2.57,2.57Z" style="fill:#221f1f"/><path d="M123.21,18.37A1.68,1.68,0,0,0,121.55,20V24H108.3a5.43,5.43,0,0,0-5.42,5.41v7.88a5.44,5.44,0,0,0,5.42,5.42h11.2a5.43,5.43,0,0,0,5.4-5.42V20A1.69,1.69,0,0,0,123.21,18.37Zm-4.14,21H108.72a2.47,2.47,0,0,1-2.46-2.46V29.75a2.47,2.47,0,0,1,2.46-2.46h12.83v9.58A2.47,2.47,0,0,1,119.08,39.33Z" style="fill:#221f1f"/><path d="M87.21,24H74.62a1.66,1.66,0,0,0-1.41.8,1.61,1.61,0,0,0-.24.87,1.67,1.67,0,0,0,1.65,1.66H86.77a2.48,2.48,0,0,1,2.47,2.46v1.14H76.06a5.28,5.28,0,0,0-1.82.32,5.17,5.17,0,0,0-3.6,4.92v1.29a5.29,5.29,0,0,0,5.41,5.26H87.21a5.43,5.43,0,0,0,5.4-5.42V29.38A5.42,5.42,0,0,0,87.21,24Zm2,12.91a2.47,2.47,0,0,1-2.47,2.46H76.34A2.18,2.18,0,0,1,74,37v-.49a2.18,2.18,0,0,1,2.29-2.3H89.24Z" style="fill:#221f1f"/></svg>