<svg id="Calque_1" data-name="Calque 1" xmlns="http://www.w3.org/2000/svg" viewBox="0 0 160 64"><title>logo_oxybul</title><path d="M39.89,14.33A17.27,17.27,0,1,0,57.16,31.6,17.26,17.26,0,0,0,39.89,14.33Zm-1.1,30.73-9.42-5.4A4.08,4.08,0,0,1,27.25,36V25.89l11.21,6.37a2.87,2.87,0,0,0,.27.15l.06,0Zm-1-15.52-9.55-5.47,9.52-5.42,0,0a3.87,3.87,0,0,1,2-.6,4,4,0,0,1,2,.56l0,0,9.58,5.45L42,29.54a4,4,0,0,1-4.12,0ZM50.3,39.49l-9.11,5.22V32.55l.21-.11,10.93-6.19v9.82A3.83,3.83,0,0,1,50.3,39.49Z" style="fill:#221f1f"/><polygon points="76.8 23.09 71.93 23.09 66.99 28.69 61.87 23.09 57 23.09 64.54 31.46 57.03 39.69 61.91 39.69 66.99 34.22 72.06 39.69 76.94 39.69 69.42 31.46 76.8 23.09" style="fill:#221f1f"/><path d="M127.75,32.14a4.52,4.52,0,0,1-9,0v-9h-3.69v9a8.2,8.2,0,0,0,16.39,0v-9h-3.7Z" style="fill:#221f1f"/><path d="M133.65,15.18V38.3a1.84,1.84,0,1,0,3.69,0V15.18Z" style="fill:#221f1f"/><path d="M105.08,22.88a8.57,8.57,0,0,0-4.88,1.55V15.18H96.49V31.45a8.58,8.58,0,1,0,8.59-8.57Zm0,13.47a4.89,4.89,0,0,1,0-9.79,4.89,4.89,0,0,1,0,9.79Z" style="fill:#221f1f"/><path d="M90.43,32.1a4.51,4.51,0,0,1-9,0v-9H77.78v9a8,8,0,0,0,8.15,7.83,8.32,8.32,0,0,0,4.5-1.3v2.53A4.89,4.89,0,0,1,85.55,46v3.65a8.53,8.53,0,0,0,8.53-8.52v-18H90.43Z" style="fill:#221f1f"/></svg>