<svg id="Calque_1" data-name="Calque 1" xmlns="http://www.w3.org/2000/svg" viewBox="0 0 64 64"><title>map</title><path d="M25,39.5a.5.5,0,0,1-.38-.83c.09-.11,9.39-10.81,9.39-18.15a9,9,0,0,0-9-9,.5.5,0,0,1,0-1,10,10,0,0,1,10,10c0,7.71-9.25,18.36-9.64,18.81A.5.5,0,0,1,25,39.5Z" style="fill:#1d212b"/><path d="M25,39.5a.5.5,0,0,1-.38-.17c-.39-.45-9.64-11.1-9.64-18.81a10,10,0,0,1,10-10,.5.5,0,0,1,0,1,9,9,0,0,0-9,9c0,7.34,9.3,18,9.39,18.15a.5.5,0,0,1-.38.83Z" style="fill:#1d212b"/><path d="M25,24.83A4.23,4.23,0,1,1,28,23.52a.5.5,0,0,1-.72-.69,3.22,3.22,0,1,0-1.48.88.5.5,0,0,1,.26,1A4.23,4.23,0,0,1,25,24.83Z" style="fill:#1d212b"/><path d="M9.5,53a.5.5,0,0,1-.5-.5v-36A.5.5,0,0,1,9.4,16L14,15.12a.5.5,0,0,1,.19,1L10,16.91v35l14.5-2.81V42a.5.5,0,0,1,1,0v7.5a.5.5,0,0,1-.4.49L9.6,53Z" style="fill:#1d212b"/><path d="M40.5,53h-.1L24.9,50a.5.5,0,0,1-.4-.49V42a.5.5,0,0,1,1,0v7.09L40,51.89v-35l-3.5-.68a.5.5,0,0,1,.19-1l3.9.75a.5.5,0,0,1,.4.49v36a.5.5,0,0,1-.5.5Z" style="fill:#1d212b"/><path d="M40.5,53a.5.5,0,0,1-.5-.5v-36a.5.5,0,0,1,.4-.49l15.5-3a.5.5,0,0,1,.6.49v36a.5.5,0,0,1-.4.49L40.6,53ZM41,16.91v35l14.5-2.81v-35ZM56,49.5h0Z" style="fill:#1d212b"/></svg>