<svg id="Calque_1" data-name="Calque 1" xmlns="http://www.w3.org/2000/svg" viewBox="0 0 64 64"><title>newsletter</title><path d="M18.82,52.8a5,5,0,0,1-5-5V16.4a.5.5,0,0,1,.5-.5h9a.5.5,0,1,1,0,1H14.82V47.79a4,4,0,1,0,8,0V23.15a.5.5,0,0,1,1,0V47.79A5,5,0,0,1,18.82,52.8Z" style="fill:#1d212b"/><path d="M45.18,52.8H18.82a.5.5,0,1,1,0-1H45.18a4,4,0,0,0,4-4V12.2H23.82v6.5a.5.5,0,0,1-1,0v-7a.5.5,0,0,1,.5-.5H49.68a.5.5,0,0,1,.5.5V47.79A5,5,0,0,1,45.18,52.8Z" style="fill:#1d212b"/><path d="M23.26,25H18a.5.5,0,0,1,0-1h5.31a.5.5,0,0,1,0,1Z" style="fill:#1d212b"/><path d="M23.26,30.17H18a.5.5,0,0,1,0-1h5.31a.5.5,0,0,1,0,1Z" style="fill:#1d212b"/><path d="M23.26,35.36H18a.5.5,0,0,1,0-1h5.31a.5.5,0,1,1,0,1Z" style="fill:#1d212b"/><path d="M23.26,40.55H18a.5.5,0,0,1,0-1h5.31a.5.5,0,1,1,0,1Z" style="fill:#1d212b"/><path d="M46.05,38.47H27.26a.5.5,0,0,1,0-1H46.05a.5.5,0,0,1,0,1Z" style="fill:#1d212b"/><path d="M46.05,45.2H27.26a.5.5,0,0,1,0-1H46.05a.5.5,0,0,1,0,1Z" style="fill:#1d212b"/><path d="M44.55,23.85a6.2,6.2,0,0,1-1.14,3.64,3.36,3.36,0,0,1-2.8,1.36,2.54,2.54,0,0,1-1.27-.31,2.16,2.16,0,0,1-.86-.88,2.72,2.72,0,0,1-2.3,1.16,2.31,2.31,0,0,1-1.47-.49,2.83,2.83,0,0,1-.92-1.41,5.1,5.1,0,0,1-.18-2.07A6.43,6.43,0,0,1,35,21.33,3.57,3.57,0,0,1,37.82,20a4,4,0,0,1,2.21.6l.55.37-.45,5.14Q40,27.32,41,27.31a1.46,1.46,0,0,0,1.25-.95,5.62,5.62,0,0,0,.56-2.43,6.24,6.24,0,0,0-1.21-4.52,5,5,0,0,0-4-1.59,5.29,5.29,0,0,0-3,.85,5.87,5.87,0,0,0-2.06,2.42,9.08,9.08,0,0,0-.85,3.56,6.61,6.61,0,0,0,1.23,4.69A5.05,5.05,0,0,0,37,31a7.66,7.66,0,0,0,1.56-.17,6.88,6.88,0,0,0,1.34-.4l.32,1.45a4.57,4.57,0,0,1-1.44.57,7.88,7.88,0,0,1-1.82.21,8.23,8.23,0,0,1-4-.92A5.65,5.65,0,0,1,30.5,29a9.76,9.76,0,0,1-.72-4.35,10.06,10.06,0,0,1,1.12-4.33,7.37,7.37,0,0,1,2.77-3,8.2,8.2,0,0,1,7.77-.13,5.78,5.78,0,0,1,2.41,2.63A8.41,8.41,0,0,1,44.55,23.85Zm-8.75,1A3.47,3.47,0,0,0,36,26.57a.92.92,0,0,0,.89.58,1,1,0,0,0,.76-.37,2.81,2.81,0,0,0,.57-1l.35-4a2.1,2.1,0,0,0-.54-.07,1.73,1.73,0,0,0-1.51.77A5.28,5.28,0,0,0,35.79,24.85Z"/></svg>