<svg id="Calque_1" data-name="Calque 1" xmlns="http://www.w3.org/2000/svg" viewBox="0 0 64 64"><title>phone</title><path d="M38.29,50.1a15.43,15.43,0,0,1-4.45-.68c-3.56-1.07-8.76-4-13.3-11.86s-4.47-13.82-3.62-17.45A13.52,13.52,0,0,1,20,14l.11-.08L23.2,12.1a.5.5,0,0,1,.5.87l-3.08,1.78c-.68.72-7.28,8.34.79,22.32s18,12.07,18.93,11.85l6.24-3.6-6-10.41-6.13,3.54c-.61.24-2.24.11-5.57-5.67-3.47-6-2.7-7.65-2.51-7.92a.49.49,0,0,1,.16-.15l6.13-3.54-6-10.45a.5.5,0,1,1,.87-.5l6.28,10.88a.5.5,0,0,1-.18.68l-6.41,3.7c-.06.32-.18,2,2.58,6.78s4.06,5.2,4.31,5.25l6.46-3.73a.5.5,0,0,1,.68.18L47.7,45.24a.5.5,0,0,1-.18.68l-6.73,3.89-.12.05A10.12,10.12,0,0,1,38.29,50.1Z" style="fill:#1d212b"/></svg>