<svg id="Calque_1" data-name="Calque 1" xmlns="http://www.w3.org/2000/svg" viewBox="0 0 64 64"><title>picture</title><path d="M40.86,42.35H15.08a.5.5,0,0,1-.5-.5V15.48a.5.5,0,0,1,.5-.5H48.92a.5.5,0,0,1,.5.5l-.07,17.63a.5.5,0,0,1-.85.35L40,25l-7.66,7.66,8.86,8.86a.5.5,0,0,1-.35.85Zm-25.27-1H39.65L26.52,28.22,15.58,39.16Zm0-25.37V37.75L26.17,27.16a.5.5,0,0,1,.71,0l4.77,4.76,8-8a.51.51,0,0,1,.71,0l8,8L48.42,16Z" style="fill:#1d212b"/><path d="M32.54,25.73a3.15,3.15,0,1,1,3.15-3.15A3.15,3.15,0,0,1,32.54,25.73Zm0-5.3a2.15,2.15,0,1,0,2.15,2.15A2.15,2.15,0,0,0,32.54,20.43Z" style="fill:#1d212b"/><path d="M52.22,52.72H11.78a.5.5,0,0,1-.5-.5V11.78a.5.5,0,0,1,.5-.5H52.22a.5.5,0,0,1,.5.5v5.38a.5.5,0,0,1-1,0V12.28H12.28V51.72H51.72V25.67a.5.5,0,0,1,1,0V52.22A.5.5,0,0,1,52.22,52.72Z" style="fill:#1d212b"/></svg>