<svg id="Calque_1" data-name="Calque 1" xmlns="http://www.w3.org/2000/svg" viewBox="0 0 64 64"><title>pinterest</title><path d="M32,12.21a19.79,19.79,0,0,0-7.21,38.23,19,19,0,0,1,.07-5.68c.36-1.54,2.32-9.84,2.32-9.84A7.15,7.15,0,0,1,26.58,32c0-2.75,1.6-4.81,3.58-4.81A2.49,2.49,0,0,1,32.67,30c0,1.7-1.08,4.24-1.64,6.59A2.87,2.87,0,0,0,34,40.13c3.52,0,6.22-3.71,6.22-9.06,0-4.74-3.41-8.05-8.27-8.05A8.57,8.57,0,0,0,23,31.6a7.7,7.7,0,0,0,1.47,4.52.59.59,0,0,1,.14.57c-.15.63-.48,2-.55,2.24s-.29.44-.66.26c-2.47-1.15-4-4.77-4-7.67,0-6.24,4.54-12,13.08-12,6.87,0,12.2,4.89,12.2,11.43,0,6.82-4.3,12.31-10.27,12.31A5.3,5.3,0,0,1,29.83,41L28.6,45.72a22.13,22.13,0,0,1-2.46,5.19A19.8,19.8,0,1,0,32,12.21Z" style="fill:#1d212b"/></svg>