<svg id="Calque_1" data-name="Calque 1" xmlns="http://www.w3.org/2000/svg" viewBox="0 0 64 64"><title>quote</title><path d="M28.5,45.36a3.4,3.4,0,0,1-2.36-.95C25.54,44,19.42,40,15.43,29.91l-.12-.29-.12-.31a.51.51,0,0,1,0-.24,7.84,7.84,0,0,1-.38-2.33,8.1,8.1,0,1,1,16.2,0,.5.5,0,0,1-1,0,7.1,7.1,0,1,0-14.2,0,7,7,0,0,0,.4,2.24.5.5,0,0,1,0,.19l0,.07.1.24c3.9,9.82,9.77,13.74,10.42,14.16a2.52,2.52,0,0,0,1.74.73,2.4,2.4,0,0,0,1.55-4.25l-.05,0c-3.82-3.44-1.33-9.07-.79-10.16a.5.5,0,0,1,.9.44c-.48,1-2.74,6.06.6,9l0,0a3.4,3.4,0,0,1-2.25,6Z" style="fill:#1d212b"/><path d="M45.8,45.36a3.4,3.4,0,0,1-2.36-1C42.84,44,36.72,40,32.73,29.91l-.12-.29-.12-.31a.51.51,0,0,1,0-.24,7.83,7.83,0,0,1-.38-2.33,8.1,8.1,0,0,1,16.2,0,.5.5,0,0,1-1,0,7.1,7.1,0,0,0-14.2,0,7,7,0,0,0,.4,2.24.49.49,0,0,1,0,.19l0,.07.1.24c3.9,9.83,9.77,13.74,10.42,14.16a2.52,2.52,0,0,0,1.74.73,2.4,2.4,0,0,0,1.56-4.25l0,0C43.48,36.63,46,31,46.51,29.9a.5.5,0,0,1,.9.44c-.48,1-2.74,6.06.6,9l0,0a3.4,3.4,0,0,1-2.25,6Z" style="fill:#1d212b"/></svg>