<svg id="Calque_1" data-name="Calque 1" xmlns="http://www.w3.org/2000/svg" viewBox="0 0 64 64"><title>random</title><path d="M37.54,28.71a.5.5,0,0,1-.39-.81,38.74,38.74,0,0,1,7-7,.5.5,0,1,1,.6.8,37.77,37.77,0,0,0-6.82,6.82A.5.5,0,0,1,37.54,28.71Z" style="fill:#1d212b"/><path d="M44.45,21.68a.5.5,0,0,1-.3-.1,38.76,38.76,0,0,1-7-7,.5.5,0,1,1,.78-.62,37.79,37.79,0,0,0,6.82,6.82.5.5,0,0,1-.3.9Z" style="fill:#1d212b"/><path d="M12.18,37.36a.5.5,0,0,1-.5-.5A16.15,16.15,0,0,1,27.81,20.73H43.44a.5.5,0,0,1,0,1H27.81A15.15,15.15,0,0,0,12.68,36.86.5.5,0,0,1,12.18,37.36Z" style="fill:#1d212b"/><path d="M19.55,43.2a.5.5,0,0,1-.3-.9,37.77,37.77,0,0,0,6.82-6.82.5.5,0,0,1,.78.62,38.74,38.74,0,0,1-7,7A.5.5,0,0,1,19.55,43.2Z" style="fill:#1d212b"/><path d="M26.46,50.23a.5.5,0,0,1-.39-.19,37.79,37.79,0,0,0-6.82-6.82.5.5,0,1,1,.6-.8,38.76,38.76,0,0,1,7,7,.5.5,0,0,1-.39.81Z" style="fill:#1d212b"/><path d="M36.19,43.27H20.56a.5.5,0,0,1,0-1H36.19A15.15,15.15,0,0,0,51.32,27.14a.5.5,0,1,1,1,0A16.15,16.15,0,0,1,36.19,43.27Z" style="fill:#1d212b"/></svg>