<svg id="Calque_1" data-name="Calque 1" xmlns="http://www.w3.org/2000/svg" viewBox="0 0 64 64"><title>account</title><path d="M32,52.85a20.74,20.74,0,0,1-16.43-8,1,1,0,1,1,1.58-1.23A18.76,18.76,0,1,0,14,37.53a1,1,0,0,1-1.91.59A20.85,20.85,0,1,1,32,52.85Z" style="fill:#1d212b"/><path d="M16.35,45.22a1,1,0,0,1-.79-1.62,20.85,20.85,0,0,1,32.87,0,1,1,0,0,1-1.58,1.23,18.85,18.85,0,0,0-29.72,0A1,1,0,0,1,16.35,45.22Z" style="fill:#1d212b"/><path d="M32,32.54a7.66,7.66,0,1,1,7.66-7.66A7.66,7.66,0,0,1,32,32.54Zm0-13.31a5.66,5.66,0,1,0,5.66,5.66A5.66,5.66,0,0,0,32,19.23Z" style="fill:#1d212b"/></svg>