<svg id="Calque_1" data-name="Calque 1" xmlns="http://www.w3.org/2000/svg" viewBox="0 0 64 64"><title>basket</title><path d="M46.23,52.52H17.77a.5.5,0,0,1-.5-.5v-27a.5.5,0,0,1,.5-.5H38.71a.5.5,0,0,1,0,1H18.27v26H45.73v-26H43a.5.5,0,0,1,0-1h3.27a.5.5,0,0,1,.5.5V52A.5.5,0,0,1,46.23,52.52Z" style="fill:#1d212b"/><path d="M38.88,31.81a.5.5,0,0,1-.5-.5v-12a6.79,6.79,0,1,0-13.57,0v12a.5.5,0,0,1-1,0v-12a7.79,7.79,0,1,1,15.57,0v12A.5.5,0,0,1,38.88,31.81Z" style="fill:#1d212b"/><circle cx="24.25" cy="31.2" r="1.84" style="fill:#1d212b"/><circle cx="38.94" cy="31.2" r="1.84" style="fill:#1d212b"/></svg>