<svg id="Calque_1" data-name="Calque 1" xmlns="http://www.w3.org/2000/svg" viewBox="0 0 64 64"><title>basket</title><path d="M46.23,53H17.77a1,1,0,0,1-1-1v-27a1,1,0,0,1,1-1H38.71a1,1,0,0,1,0,2H18.77V51H45.23v-25H43a1,1,0,0,1,0-2h3.27a1,1,0,0,1,1,1V52A1,1,0,0,1,46.23,53Z" style="fill:#1d212b"/><path d="M38.88,32.31a1,1,0,0,1-1-1v-12a6.29,6.29,0,1,0-12.57,0v12a1,1,0,0,1-2,0v-12a8.29,8.29,0,1,1,16.57,0v12A1,1,0,0,1,38.88,32.31Z" style="fill:#1d212b"/><circle cx="24.25" cy="31.2" r="1.84" style="fill:#1d212b"/><circle cx="38.94" cy="31.2" r="1.84" style="fill:#1d212b"/></svg>