<svg id="Calque_1" data-name="Calque 1" xmlns="http://www.w3.org/2000/svg" viewBox="0 0 64 64"><title>boy</title><path d="M35.63,55.36a2.12,2.12,0,0,1-2.11-2.11V49.12H31.17v4.12a2.11,2.11,0,0,1-4.23,0V42.88a.5.5,0,0,1,1,0V53.25a1.11,1.11,0,0,0,2.23,0V48.62a.5.5,0,0,1,.5-.5H34a.5.5,0,0,1,.5.5v4.62a1.11,1.11,0,0,0,2.23,0V39.83a.5.5,0,0,1,.89-.32l3.54,4.27a1.12,1.12,0,0,0,1.58.15,1.12,1.12,0,0,0,.15-1.58l-4.39-5.3a1.1,1.1,0,0,0-1.14-.37.51.51,0,0,1-.43-.09.5.5,0,0,1-.19-.39.51.51,0,0,1,.48-.51,2.13,2.13,0,0,1,2.05.72l4.39,5.3a2.12,2.12,0,0,1-3.26,2.71l-2.65-3.21v12A2.12,2.12,0,0,1,35.63,55.36Z" style="fill:#1d212b"/><path d="M22.31,45.28a2.12,2.12,0,0,1-1.63-3.47l4.39-5.3a2.14,2.14,0,0,1,.4-.37A14.52,14.52,0,1,1,42.66,33a.5.5,0,1,1-.73-.68,13.54,13.54,0,1,0-14.69,3.45.5.5,0,0,1-.29,1,1.12,1.12,0,0,0-1.11.37l-4.39,5.3A1.12,1.12,0,0,0,21.6,44a1.08,1.08,0,0,0,.82.25,1.11,1.11,0,0,0,.76-.4l3.88-4.68a.5.5,0,0,1,.77.64l-3.88,4.68a2.11,2.11,0,0,1-1.43.76Z" style="fill:#1d212b"/><path d="M23.79,18.74a.5.5,0,0,1,0-1h16a10.2,10.2,0,0,0,9-6.82.5.5,0,0,1,.94.35,11.39,11.39,0,0,1-9.88,7.47Z" style="fill:#1d212b"/></svg>