<svg id="Calque_1" data-name="Calque 1" xmlns="http://www.w3.org/2000/svg" viewBox="0 0 64 64"><title>boy</title><path d="M35.63,55.86A2.62,2.62,0,0,1,33,53.25V49.62H31.67v3.62a2.61,2.61,0,0,1-5.23,0V42.88a1,1,0,0,1,2,0V53.25a.61.61,0,0,0,1.23,0V48.62a1,1,0,0,1,1-1H34a1,1,0,0,1,1,1v4.62a.61.61,0,0,0,1.23,0V39.83A1,1,0,0,1,38,39.19l3.54,4.27a.62.62,0,0,0,.87.08.62.62,0,0,0,.08-.87l-4.39-5.3a.61.61,0,0,0-.63-.2,1,1,0,1,1-.33-2,2.63,2.63,0,0,1,2.5.9L44,41.39a2.62,2.62,0,0,1-4,3.34L38.25,42.6V53.25A2.62,2.62,0,0,1,35.63,55.86Z" style="fill:#1d212b"/><path d="M22.3,45.78a2.62,2.62,0,0,1-2-4.29l4.34-5.24A15,15,0,1,1,43,33.39,1,1,0,0,1,41.56,32a13,13,0,1,0-14.14,3.33,1,1,0,0,1-.58,1.91.62.62,0,0,0-.61.2l-4.39,5.3a.62.62,0,1,0,1,.79l3.88-4.68a1,1,0,1,1,1.54,1.28l-3.88,4.68a2.6,2.6,0,0,1-1.77.94Z" style="fill:#1d212b"/><path d="M23.79,19.24a1,1,0,0,1,0-2h16a9.72,9.72,0,0,0,8.48-6.49,1,1,0,1,1,1.88.69,11.7,11.7,0,0,1-10.34,7.8Z" style="fill:#1d212b"/></svg>