<svg id="Calque_1" data-name="Calque 1" xmlns="http://www.w3.org/2000/svg" viewBox="0 0 64 64"><title>delivery</title><path d="M43,47.86A5.07,5.07,0,1,1,48,42.79,5.08,5.08,0,0,1,43,47.86Zm0-8.15A3.07,3.07,0,1,0,46,42.79,3.08,3.08,0,0,0,43,39.71Z" style="fill:#1d212b"/><path d="M25.52,47.86a5.07,5.07,0,1,1,5.07-5.07A5.08,5.08,0,0,1,25.52,47.86Zm0-8.15a3.07,3.07,0,1,0,3.07,3.07A3.08,3.08,0,0,0,25.52,39.71Z" style="fill:#1d212b"/><path d="M51.85,43.61H47.72a1,1,0,1,1,0-2h3.13V30.68a3.59,3.59,0,0,0-3.59-3.59H41.52a1,1,0,0,1,0-2h5.74a5.6,5.6,0,0,1,5.59,5.59V42.61A1,1,0,0,1,51.85,43.61Z" style="fill:#1d212b"/><path d="M41.52,39.71a1,1,0,0,1-1-1V18.14H16.85a1,1,0,0,1,0-2H41.52a1,1,0,0,1,1,1V38.71A1,1,0,0,1,41.52,39.71Z" style="fill:#1d212b"/><path d="M38.89,43.61h-9.3a1,1,0,0,1,0-2h9.3a1,1,0,0,1,0,2Z" style="fill:#1d212b"/><path d="M21.44,43.61H16.85a1,1,0,0,1-1-1V30.94a1,1,0,0,1,2,0V41.61h3.59a1,1,0,0,1,0,2Z" style="fill:#1d212b"/><path d="M27.64,23H12.15a1,1,0,0,1,0-2H27.64a1,1,0,0,1,0,2Z" style="fill:#1d212b"/><path d="M27.64,27.32H16.74a1,1,0,0,1,0-2h10.9a1,1,0,1,1,0,2Z" style="fill:#1d212b"/></svg>