<svg id="Calque_1" data-name="Calque 1" xmlns="http://www.w3.org/2000/svg" viewBox="0 0 64 64"><title>email</title><path d="M47.49,53.84h-31a5.23,5.23,0,0,1-5.22-5.22v-19a1,1,0,0,1,2,0v19a3.22,3.22,0,0,0,3.22,3.22h31a3.22,3.22,0,0,0,3.22-3.22V27.34L32.59,40.42a1,1,0,0,1-1.17,0L13.16,27.21a1,1,0,0,1-.08-1.56,5.07,5.07,0,0,1,3.44-1.26H47.4a6.51,6.51,0,0,0,1-.12L32,12.4,20.51,20.69a1,1,0,1,1-1.17-1.62l12.07-8.71a1,1,0,0,1,1.17,0L50.84,23.57a1,1,0,0,1,.41.93,1,1,0,0,1,1.46.89V48.62A5.23,5.23,0,0,1,47.49,53.84ZM15.59,26.51,32,38.38,48.84,26.22a5.5,5.5,0,0,1-1.26.16H16.51A3.53,3.53,0,0,0,15.59,26.51Z" style="fill:#1d212b"/></svg>