<svg id="Calque_1" data-name="Calque 1" xmlns="http://www.w3.org/2000/svg" viewBox="0 0 64 64"><title>girl</title><path d="M35.63,55.86A2.62,2.62,0,0,1,33,53.25V51.62H31.67v1.62a2.61,2.61,0,0,1-5.23,0V51.33H25.37a1,1,0,0,1-1-1.19l1.33-7a1,1,0,1,1,2,.37l-1.1,5.83h.86a1,1,0,0,1,1,1v2.91a.61.61,0,1,0,1.23,0V50.62a1,1,0,0,1,1-1H34a1,1,0,0,1,1,1v2.62a.61.61,0,0,0,1.23,0V50.33a1,1,0,0,1,1-1H38l-1.72-9.25a1,1,0,0,1,1.75-.82l3.48,4.2a.62.62,0,0,0,1.09-.34.61.61,0,0,0-.14-.45l-4.39-5.3a.62.62,0,0,0-.63-.2,1,1,0,1,1-.33-2,2.63,2.63,0,0,1,2.5.9L44,41.39a2.62,2.62,0,0,1-4,3.34L39,43.5l1.24,6.65a1,1,0,0,1-1,1.18h-1v1.91A2.62,2.62,0,0,1,35.63,55.86Z" style="fill:#1d212b"/><path d="M22.3,45.78a2.62,2.62,0,0,1-2-4.29l4.34-5.24A15,15,0,1,1,43,33.39,1,1,0,0,1,41.56,32a13,13,0,1,0-14.14,3.33,1,1,0,0,1-.58,1.91.62.62,0,0,0-.61.2l-4.39,5.3a.62.62,0,0,0,.08.87.6.6,0,0,0,.45.14.62.62,0,0,0,.42-.22l3.85-4.64a1,1,0,1,1,1.54,1.28l-3.85,4.64a2.61,2.61,0,0,1-1.77.94Z" style="fill:#1d212b"/><path d="M17.22,33a1,1,0,0,1-.37-1.93c.14-.06,14.41-5.85,14.41-18.22a1,1,0,0,1,.87-1,1,1,0,0,1,1.1.73c0,.18,5.1,18.11,15.3,18.11a1,1,0,0,1,0,2C40.1,32.74,35,23,32.72,17.27A21.24,21.24,0,0,1,25.39,28.2,31.6,31.6,0,0,1,17.59,33,1,1,0,0,1,17.22,33Z" style="fill:#1d212b"/></svg>