<svg id="Calque_1" data-name="Calque 1" xmlns="http://www.w3.org/2000/svg" viewBox="0 0 64 64"><title>group</title><path d="M31.5,49.81a20.74,20.74,0,0,1-16.43-8,1,1,0,1,1,1.58-1.23,18.86,18.86,0,0,0,25.72,3.81A1,1,0,0,1,43.51,46,20.72,20.72,0,0,1,31.5,49.81Z" style="fill:#1d212b"/><path d="M47.15,42.18a1,1,0,0,1-.79-.38,18.85,18.85,0,0,0-29.72,0,1,1,0,0,1-1.58-1.23,20.85,20.85,0,0,1,32.87,0,1,1,0,0,1-.79,1.62Z" style="fill:#1d212b"/><path d="M31.5,29.5a7.66,7.66,0,1,1,7.66-7.66A7.66,7.66,0,0,1,31.5,29.5Zm0-13.31a5.66,5.66,0,1,0,5.66,5.66A5.66,5.66,0,0,0,31.5,16.19Z" style="fill:#1d212b"/><path d="M60.5,38a1,1,0,0,1-.79-.38,14.23,14.23,0,0,0-22.42,0,1,1,0,1,1-1.58-1.23,16.23,16.23,0,0,1,25.58,0A1,1,0,0,1,60.5,38Z" style="fill:#1d212b"/><path d="M48.5,28.32a6.1,6.1,0,1,1,6.1-6.1A6.11,6.11,0,0,1,48.5,28.32Zm0-10.21a4.1,4.1,0,1,0,4.1,4.11A4.11,4.11,0,0,0,48.5,18.11Z" style="fill:#1d212b"/><path d="M27.5,38a1,1,0,0,1-.79-.38,14.23,14.23,0,0,0-22.42,0,1,1,0,1,1-1.58-1.23,16.23,16.23,0,0,1,25.58,0A1,1,0,0,1,27.5,38Z" style="fill:#1d212b"/><path d="M15.5,28.32a6.1,6.1,0,1,1,6.1-6.1A6.11,6.11,0,0,1,15.5,28.32Zm0-10.21a4.1,4.1,0,1,0,4.1,4.11A4.11,4.11,0,0,0,15.5,18.11Z" style="fill:#1d212b"/></svg>