<svg id="Calque_1" data-name="Calque 1" xmlns="http://www.w3.org/2000/svg" viewBox="0 0 64 64"><title>group</title><path d="M31.5,49.31a20.24,20.24,0,0,1-16-7.82.5.5,0,0,1,.79-.62,19.36,19.36,0,0,0,26.4,3.91.5.5,0,1,1,.58.82A20.22,20.22,0,0,1,31.5,49.31Z" style="fill:#1d212b"/><path d="M47.15,41.68a.5.5,0,0,1-.39-.19,19.36,19.36,0,0,0-30.5,0,.5.5,0,1,1-.79-.62,20.35,20.35,0,0,1,32.08,0,.5.5,0,0,1-.09.7A.49.49,0,0,1,47.15,41.68Z" style="fill:#1d212b"/><path d="M31.5,29a7.16,7.16,0,1,1,7.16-7.16A7.16,7.16,0,0,1,31.5,29Zm0-13.31a6.16,6.16,0,1,0,6.16,6.16A6.16,6.16,0,0,0,31.5,15.69Z" style="fill:#1d212b"/><path d="M60.5,37.54a.5.5,0,0,1-.39-.19,14.73,14.73,0,0,0-23.21,0,.5.5,0,0,1-.79-.62,15.73,15.73,0,0,1,24.79,0,.5.5,0,0,1-.09.7A.49.49,0,0,1,60.5,37.54Z" style="fill:#1d212b"/><path d="M48.5,27.82a5.6,5.6,0,1,1,5.6-5.6A5.61,5.61,0,0,1,48.5,27.82Zm0-10.21a4.6,4.6,0,1,0,4.6,4.61A4.61,4.61,0,0,0,48.5,17.61Z" style="fill:#1d212b"/><path d="M27.5,37.54a.5.5,0,0,1-.39-.19,14.73,14.73,0,0,0-23.21,0,.5.5,0,0,1-.79-.62,15.73,15.73,0,0,1,24.79,0,.5.5,0,0,1-.09.7A.49.49,0,0,1,27.5,37.54Z" style="fill:#1d212b"/><path d="M15.5,27.82a5.6,5.6,0,1,1,5.6-5.6A5.61,5.61,0,0,1,15.5,27.82Zm0-10.21a4.6,4.6,0,1,0,4.6,4.61A4.61,4.61,0,0,0,15.5,17.61Z" style="fill:#1d212b"/></svg>