<svg id="Calque_1" data-name="Calque 1" xmlns="http://www.w3.org/2000/svg" viewBox="0 0 64 64"><title>hanger</title><path d="M47,46.63H17c-2.76,0-5-1.49-5.54-3.63-.43-1.81.53-3.55,2.5-4.53l17-8.78-.12-3.06a1,1,0,0,1,.55-.93l2.54-1.28a2.66,2.66,0,1,0-3.71-3.21,1,1,0,1,1-1.9-.63,4.66,4.66,0,1,1,6.51,5.62l-2,1L33,30.25a1,1,0,0,1-.55.93l-1.08.54L14.81,40.25c-1.14.57-1.67,1.4-1.46,2.29s1.46,2.09,3.6,2.09H47c2.13,0,3.36-1.08,3.6-2.09s-.32-1.72-1.45-2.29l-14.88-7.5a1,1,0,0,1,.9-1.79l14.88,7.5c2,1,2.92,2.72,2.5,4.53C52.09,45.14,49.81,46.63,47,46.63Z" style="fill:#1d212b"/></svg>