<svg id="Calque_1" data-name="Calque 1" xmlns="http://www.w3.org/2000/svg" viewBox="0 0 64 64"><title>hanger</title><path d="M47,46.13H17c-2.95,0-4.69-1.68-5.06-3.24s.48-3.09,2.24-4L31.44,30l-.13-3.38a.5.5,0,0,1,.27-.47l2.54-1.28A3.16,3.16,0,1,0,29.71,21a.5.5,0,1,1-.95-.31,4.16,4.16,0,1,1,5.81,5l-2.25,1.14.13,3.38a.5.5,0,0,1-.27.47l-1.08.54L14.58,39.8c-1.34.67-2,1.74-1.72,2.85s1.68,2.47,4.08,2.47H47c2.41,0,3.8-1.28,4.08-2.47s-.38-2.18-1.71-2.85L34.54,32.3a.5.5,0,0,1,.45-.89l14.88,7.5c1.75.88,2.61,2.4,2.23,4S50,46.13,47,46.13Z" style="fill:#1d212b"/></svg>