<svg id="Calque_1" data-name="Calque 1" xmlns="http://www.w3.org/2000/svg" viewBox="0 0 64 64"><title>heading</title><path d="M23,47.53a.5.5,0,0,1-.5-.5V16.79a.5.5,0,0,1,1,0V47A.5.5,0,0,1,23,47.53Z" style="fill:#1d212b"/><path d="M26.63,47.92H19.44a.5.5,0,1,1,0-1h7.19a.5.5,0,0,1,0,1Z" style="fill:#1d212b"/><path d="M26.63,17.08H19.44a.5.5,0,0,1,0-1h7.19a.5.5,0,0,1,0,1Z" style="fill:#1d212b"/><path d="M40.93,47.53a.5.5,0,0,1-.5-.5V16.79a.5.5,0,1,1,1,0V47A.5.5,0,0,1,40.93,47.53Z" style="fill:#1d212b"/><path d="M44.56,47.92H37.37a.5.5,0,0,1,0-1h7.19a.5.5,0,0,1,0,1Z" style="fill:#1d212b"/><path d="M44.56,17.08H37.37a.5.5,0,0,1,0-1h7.19a.5.5,0,0,1,0,1Z" style="fill:#1d212b"/><path d="M36.88,32.55H23.09a.5.5,0,0,1,0-1H36.88a.5.5,0,0,1,0,1Z" style="fill:#1d212b"/></svg>