<svg id="Calque_1" data-name="Calque 1" xmlns="http://www.w3.org/2000/svg" viewBox="0 0 64 64"><title>heading</title><path d="M23,48a1,1,0,0,1-1-1V16.79a1,1,0,1,1,2,0V47A1,1,0,0,1,23,48Z" style="fill:#1d212b"/><path d="M26.63,48.42H19.44a1,1,0,1,1,0-2h7.19a1,1,0,0,1,0,2Z" style="fill:#1d212b"/><path d="M26.63,17.58H19.44a1,1,0,0,1,0-2h7.19a1,1,0,0,1,0,2Z" style="fill:#1d212b"/><path d="M40.93,48a1,1,0,0,1-1-1V16.79a1,1,0,1,1,2,0V47A1,1,0,0,1,40.93,48Z" style="fill:#1d212b"/><path d="M44.56,48.42H37.37a1,1,0,0,1,0-2h7.19a1,1,0,0,1,0,2Z" style="fill:#1d212b"/><path d="M44.56,17.58H37.37a1,1,0,0,1,0-2h7.19a1,1,0,0,1,0,2Z" style="fill:#1d212b"/><path d="M36.88,33H23.09a1,1,0,0,1,0-2H36.88a1,1,0,0,1,0,2Z" style="fill:#1d212b"/></svg>