<svg id="Calque_1" data-name="Calque 1" xmlns="http://www.w3.org/2000/svg" viewBox="0 0 64 64"><title>heart</title><path d="M16.25,35.26A1,1,0,0,1,15.6,35,12.52,12.52,0,0,1,28.28,13.81a1,1,0,0,1-.73,1.86A10.52,10.52,0,0,0,16.89,33.49a1,1,0,0,1-.65,1.76Z" style="fill:#1d212b"/><path d="M48.73,34.33A1,1,0,0,1,48,32.64,10.52,10.52,0,1,0,31.05,20.47a1,1,0,0,1-1.76-1A12.52,12.52,0,1,1,49.46,34,1,1,0,0,1,48.73,34.33Z" style="fill:#1d212b"/><path d="M32,51.06a1,1,0,0,1-.71-.29L15.12,34.59a1,1,0,1,1,1.41-1.41L32,48.65l16-16A1,1,0,0,1,49.45,34L32.71,50.77A1,1,0,0,1,32,51.06Z" style="fill:#1d212b"/></svg>