<svg id="Calque_1" data-name="Calque 1" xmlns="http://www.w3.org/2000/svg" viewBox="0 0 64 64"><title>house</title><path d="M50.06,31.91a1,1,0,0,1-.62-.22A100.1,100.1,0,0,1,31.36,13.6,1,1,0,1,1,33,12.4,98.17,98.17,0,0,0,50.69,30.13a1,1,0,0,1-.62,1.78Z" style="fill:#1d212b"/><path d="M13.94,31.91a1,1,0,0,1-.62-1.78A98.17,98.17,0,0,0,31,12.4a1,1,0,1,1,1.6,1.2A100.1,100.1,0,0,1,14.55,31.69,1,1,0,0,1,13.94,31.91Z" style="fill:#1d212b"/><path d="M45,52H36.54a1,1,0,0,1,0-2H44V27.18a1,1,0,1,1,2,0V51A1,1,0,0,1,45,52Z" style="fill:#1d212b"/><path d="M27.46,52H19a1,1,0,0,1-1-1V27.18a1,1,0,0,1,2,0V50h6.51V39.66a5.54,5.54,0,1,1,11.07,0,1,1,0,0,1-2,0,3.54,3.54,0,0,0-7.07,0V51A1,1,0,0,1,27.46,52Z" style="fill:#1d212b"/></svg>