<svg id="Calque_1" data-name="Calque 1" xmlns="http://www.w3.org/2000/svg" viewBox="0 0 64 64"><title>icon_okaidi</title><path d="M34.88,13.55h-7A2.42,2.42,0,0,0,25.45,16v10.1a2.43,2.43,0,0,0,2.43,2.43h7a2.43,2.43,0,0,0,2.43-2.43V16A2.42,2.42,0,0,0,34.88,13.55Z" style="fill:#333"/><path d="M0,0V64H64V0ZM40.35,51.09a1.63,1.63,0,0,1-.6,2.25,1.66,1.66,0,0,1-2.27-.61L32.16,42.37,25.26,53a1.67,1.67,0,0,1-1,.77A1.64,1.64,0,0,1,23,53.55a1.65,1.65,0,0,1-.6-2.26l7.07-10.88h0a1.27,1.27,0,0,0,.09-.45,1.13,1.13,0,0,0-1.12-1.14H23.82a1.65,1.65,0,0,1,0-3.3H38.93a1.65,1.65,0,1,1,0,3.3h-5Zm.23-24.59a5.33,5.33,0,0,1-5.33,5.32H27.5a5.33,5.33,0,0,1-5.32-5.32v-11a5.32,5.32,0,0,1,5.32-5.31h7.76a5.33,5.33,0,0,1,5.33,5.31Zm3.84,15a1.66,1.66,0,1,1,1.66-1.66A1.66,1.66,0,0,1,44.42,41.46Zm0-5.47a1.67,1.67,0,1,1,1.66-1.66A1.67,1.67,0,0,1,44.42,36Z" style="fill:#333"/></svg>