<svg id="Calque_1" data-name="Calque 1" xmlns="http://www.w3.org/2000/svg" viewBox="0 0 64 64"><title>icon_njoy</title><path d="M32,14.32A17.68,17.68,0,1,0,49.68,32,17.68,17.68,0,0,0,32,14.32ZM28.69,26.48a4.29,4.29,0,0,1,3.79,2.29,4.29,4.29,0,0,1,8.09,2,4.39,4.39,0,0,1-.39,1.79c-.77,2-4.28,4.78-6.08,6.27L33,39.82a.73.73,0,0,1-.93,0l-1.24-1c-1-.79-5.09-3.94-6-6.23a4.46,4.46,0,0,1-.41-1.84A4.31,4.31,0,0,1,28.69,26.48ZM32,45.83a9.94,9.94,0,0,1-9.26-6.4H25.3a7.55,7.55,0,0,0,13.39,0h2.57A9.94,9.94,0,0,1,32,45.83Zm11.79-22.5-2.22.59-.09,2.29a.28.28,0,0,1-.21.26h-.07a.28.28,0,0,1-.24-.13l-1.24-1.93L37.5,25a.28.28,0,0,1-.3-.45l1.45-1.78L37.38,20.9a.28.28,0,0,1,.34-.42l2.14.83,1.42-1.8a.28.28,0,0,1,.51.19L41.66,22l2.15.8a.28.28,0,0,1,0,.54Z" style="fill:#333"/><path d="M0,0V64H64V0ZM32,52.8A20.8,20.8,0,1,1,52.8,32,20.82,20.82,0,0,1,32,52.8Z" style="fill:#333"/></svg>