<svg id="Calque_1" data-name="Calque 1" xmlns="http://www.w3.org/2000/svg" viewBox="0 0 64 64"><title>icon_oxybul</title><path d="M32,12.59A19.51,19.51,0,1,0,51.5,32.11,19.5,19.5,0,0,0,32,12.59ZM30.76,47.31,20.12,41.22a4.6,4.6,0,0,1-2.4-4.1V25.66L30.4,32.84l.37.19ZM29.67,29.78,18.89,23.6l10.8-6.17A4.36,4.36,0,0,1,32,16.75a4.45,4.45,0,0,1,2.25.64L45.11,23.6,34.32,29.78a4.65,4.65,0,0,1-2.33.64A4.58,4.58,0,0,1,29.67,29.78ZM43.86,41.22,33.24,47.3V33l.34-.18,12.68-7.19V37.14A4.56,4.56,0,0,1,43.86,41.22Z"/></svg>