<svg id="Calque_1" data-name="Calque 1" xmlns="http://www.w3.org/2000/svg" viewBox="0 0 64 64"><title>icon_rclv</title><path d="M0,0V64H64V0ZM41.34,14.38l-1.52-3a.39.39,0,0,1,.42-.56l3.37.65a.31.31,0,0,0,.29-.09L46,9.05a.39.39,0,0,1,.68.21l.45,3.25a.31.31,0,0,0,.17.24l3,1.45a.39.39,0,0,1,0,.71l-3,1.44a.31.31,0,0,0-.17.23l-.51,3.31a.39.39,0,0,1-.66.22L43.56,17.8a.31.31,0,0,0-.26-.08l-3.11.44a.39.39,0,0,1-.4-.57l1.55-2.93A.31.31,0,0,0,41.34,14.38ZM32,53.83a20.8,20.8,0,0,1,0-41.6,21.07,21.07,0,0,1,2.73.18,1.6,1.6,0,0,1-.42,3.17A17.88,17.88,0,0,0,32,15.42a17.6,17.6,0,0,0-.77,35.19,14.86,14.86,0,0,1,.23-9s-8.15-6.17-9.42-9.3l0-.08A5.91,5.91,0,0,1,32.59,27a5.91,5.91,0,0,1,10.6,5.21v0C42.12,35,37,38.95,34.81,40.77s-2.33,6.1-.59,9.72A17.63,17.63,0,0,0,49.61,33a17.41,17.41,0,0,0-1.93-8l2.84-1.46A20.81,20.81,0,0,1,32,53.83Z" style="fill:#333"/></svg>