<svg id="Calque_1" data-name="Calque 1" xmlns="http://www.w3.org/2000/svg" viewBox="0 0 64 64"><title>icon_obaibi</title><path d="M28.2,37.52c-1.67,0-3,3-2.95,6.63s1.43,6.52,3.1,6.47,3-3,2.94-6.61S29.86,37.48,28.2,37.52Z" style="fill:#333"/><path d="M32.35,29.53c3.95,0,7.16-3.6,7.16-8s-3.21-8-7.16-8-7.17,3.6-7.17,8S28.39,29.53,32.35,29.53Z" style="fill:#333"/><path d="M36.72,37.52c-1.66,0-3,3-2.94,6.63s1.43,6.52,3.09,6.47,3-3,3-6.61S38.39,37.48,36.72,37.52Z" style="fill:#333"/><path d="M0,0V64H64V0ZM32.33,10.22c5.56,0,10.07,5.06,10.07,11.27S37.89,32.78,32.33,32.78,22.28,27.72,22.28,21.49,26.79,10.22,32.33,10.22ZM42.47,44.08c.08,5.37-2.36,9.63-5.53,9.69a4.1,4.1,0,0,1-3-1.27,7.73,7.73,0,0,1-1.45-2c-1,2-2.5,3.25-4.21,3.3a4.13,4.13,0,0,1-3-1.27c-1.7-1.65-2.78-4.79-2.83-8.2a14.43,14.43,0,0,1,1.07-5.86h0a.11.11,0,0,1,0-.05c.05-.12.09-.23.15-.34a.85.85,0,0,0-.43-1L23.2,37,23.11,37h0a1.14,1.14,0,0,1-.59-1c0-1,1.51-1.55,3-1.56v0c8.71-.05,13.6,0,13.6,0v0h.09c1.59,0,3.2.53,3.2,1.56,0,.69-.72,1.17-1.68,1.41A13.76,13.76,0,0,1,42.47,44.08Zm3.74-3.55a1.86,1.86,0,1,1,1.51-1.83A1.7,1.7,0,0,1,46.2,40.53Zm0-5.68A1.87,1.87,0,1,1,47.71,33,1.7,1.7,0,0,1,46.2,34.86Z" style="fill:#333"/></svg>