<svg id="Calque_1" data-name="Calque 1" xmlns="http://www.w3.org/2000/svg" viewBox="0 0 64 64"><title>icon_oxybul</title><path d="M0,0V64H64V0ZM32,51.6A19.51,19.51,0,1,1,51.5,32.11,19.49,19.49,0,0,1,32,51.6Z" style="fill:#333"/><path d="M45.11,23.6,34.25,17.39A4.45,4.45,0,0,0,32,16.75a4.36,4.36,0,0,0-2.31.68L18.89,23.6l10.78,6.18a4.58,4.58,0,0,0,2.32.64,4.65,4.65,0,0,0,2.33-.64Z" style="fill:#333"/><path d="M17.73,25.66V37.12a4.6,4.6,0,0,0,2.4,4.1l10.64,6.09V33l-.37-.19Z" style="fill:#333"/><path d="M33.24,33V47.3l10.62-6.09a4.56,4.56,0,0,0,2.41-4.07V25.66L33.59,32.85Z" style="fill:#333"/></svg>