<svg id="Calque_1" data-name="Calque 1" xmlns="http://www.w3.org/2000/svg" viewBox="0 0 64 64"><title>icon_joybox</title><path d="M0,0V64H64V0ZM45.4,18.45l.75.75L41,24.35l-.75-.75ZM32,9a6.58,6.58,0,1,1-6.58,6.58A6.58,6.58,0,0,1,32,9ZM9,32a6.58,6.58,0,1,1,6.58,6.58A6.58,6.58,0,0,1,9,32ZM19.82,45.55l-.75-.75,5.14-5.14.75.75Zm4.39-21.2-5.14-5.14.75-.75L25,23.6ZM32,55a6.58,6.58,0,1,1,6.58-6.58A6.58,6.58,0,0,1,32,55Zm0-16.13A6.87,6.87,0,1,1,38.87,32,6.87,6.87,0,0,1,32,38.87Zm13.4,6.67L40.26,40.4l.75-.75,5.14,5.14Zm3-7A6.58,6.58,0,1,1,55,32,6.58,6.58,0,0,1,48.42,38.58Z" style="fill:#333"/><path d="M30.09,16.28a1.59,1.59,0,0,0,3.17,0v-3.7h1.44v3.7a3,3,0,0,1-6.05,0Z" style="fill:#333"/><path d="M30.42,52H28.57l2.76-3.41-2.64-3.31h1.84l1.73,2.16L34,45.32h1.85Z" style="fill:#333"/><path d="M50.25,35.37,48.44,33.1l-1.83,2.27H44.75l2.76-3.42-2.64-3.31h1.84l1.73,2.16,1.74-2.16H52L49.36,32l2.73,3.41Z" style="fill:#333"/><path d="M32,28.4A3.6,3.6,0,1,0,35.54,32,3.58,3.58,0,0,0,32,28.4Zm0,5.76A2.16,2.16,0,1,1,34.1,32,2.13,2.13,0,0,1,32,34.16Z" style="fill:#333"/><path d="M31.68,19.29a3,3,0,0,0,3-3v-3.7H33.27v3.7a1.59,1.59,0,0,1-3.17,0H28.65A3,3,0,0,0,31.68,19.29Z" style="fill:#333"/><polygon points="52.04 28.64 50.19 28.64 48.44 30.8 46.72 28.64 44.87 28.64 47.52 31.95 44.75 35.37 46.61 35.37 48.44 33.1 50.25 35.37 52.09 35.37 49.36 31.95 52.04 28.64" style="fill:#333"/><polygon points="32.26 47.48 30.53 45.32 28.69 45.32 31.33 48.63 28.57 52.05 30.43 52.05 35.86 45.32 34 45.32 32.26 47.48" style="fill:#333"/><path d="M18.86,30.63a2,2,0,0,0-2-2l-4.72,0v6.72l4.8,0a2.1,2.1,0,0,0,1.51-3.55A2,2,0,0,0,18.86,30.63Zm-2-.57a.57.57,0,0,1,0,1.14H13.57V30.06m3.36,3.89H13.57V32.64h3.36a.66.66,0,0,1,0,1.31Z" style="fill:#333"/></svg>