<svg id="Calque_1" data-name="Calque 1" xmlns="http://www.w3.org/2000/svg" viewBox="0 0 64 64"><title>icon_joybox</title><path d="M32,22.16a6.58,6.58,0,1,0-6.58-6.58A6.58,6.58,0,0,0,32,22.16Zm-1.91-5.87a1.59,1.59,0,0,0,3.17,0v-3.7h1.44v3.7a3,3,0,0,1-6.05,0Z"/><ellipse cx="32" cy="32" rx="2.1" ry="2.16"/><path d="M32,25.13A6.87,6.87,0,1,0,38.87,32,6.87,6.87,0,0,0,32,25.13ZM32,35.6A3.6,3.6,0,1,1,35.54,32,3.58,3.58,0,0,1,32,35.6Z"/><path d="M32,41.84a6.58,6.58,0,1,0,6.58,6.58A6.58,6.58,0,0,0,32,41.84ZM30.42,52H28.57l2.76-3.41-2.64-3.31h1.84l1.73,2.16L34,45.32h1.85Z"/><path d="M48.42,25.42A6.58,6.58,0,1,0,55,32,6.58,6.58,0,0,0,48.42,25.42Zm1.83,9.94L48.44,33.1l-1.83,2.27H44.75l2.76-3.42-2.64-3.31h1.84l1.73,2.16,1.74-2.16H52L49.36,32l2.73,3.41Z"/><path d="M16.93,32.64H13.57v1.31h3.36a.66.66,0,0,0,0-1.31Z"/><path d="M22.16,32a6.58,6.58,0,1,0-6.58,6.58A6.58,6.58,0,0,0,22.16,32Zm-5.22,3.39-4.8,0V28.64l4.72,0a2,2,0,0,1,1.6,3.23,2.1,2.1,0,0,1-1.51,3.55Z"/><path d="M17.41,30.63a.57.57,0,0,0-.57-.57H13.57V31.2h3.28A.57.57,0,0,0,17.41,30.63Z"/><rect x="39.58" y="20.87" width="7.27" height="1.07" transform="translate(-2.48 36.82) rotate(-45)"/><rect x="42.68" y="38.96" width="1.07" height="7.27" transform="translate(-17.47 43.03) rotate(-45)"/><rect x="18.38" y="42.06" width="7.27" height="1.07" transform="translate(-23.67 28.04) rotate(-45)"/><rect x="21.48" y="17.77" width="1.07" height="7.27" transform="translate(-8.69 21.84) rotate(-45)"/></svg>