<svg id="Calque_1" data-name="Calque 1" xmlns="http://www.w3.org/2000/svg" viewBox="0 0 64 64"><title>icon_rclv</title><path d="M50.52,23.55,47.68,25a17.41,17.41,0,0,1,1.93,8A17.63,17.63,0,0,1,34.22,50.49c-1.74-3.62-1.56-8,.59-9.72s7.31-5.76,8.36-8.56v0A5.91,5.91,0,0,0,32.59,27,5.91,5.91,0,0,0,22,32.21l0,.08c1.28,3.14,9.42,9.3,9.42,9.3a14.86,14.86,0,0,0-.23,9A17.6,17.6,0,0,1,32,15.42a17.88,17.88,0,0,1,2.32.15,1.6,1.6,0,0,0,.42-3.17A21.06,21.06,0,0,0,32,12.23,20.79,20.79,0,1,0,50.52,23.55Z"/><path d="M39.8,17.58a.39.39,0,0,0,.4.57l3.11-.44a.31.31,0,0,1,.26.08L46,20.11a.39.39,0,0,0,.66-.22l.51-3.31a.31.31,0,0,1,.17-.23l3-1.44a.39.39,0,0,0,0-.71l-3-1.45a.31.31,0,0,1-.17-.24l-.45-3.25A.39.39,0,0,0,46,9.05l-2.13,2.32a.31.31,0,0,1-.29.09l-3.37-.65a.39.39,0,0,0-.42.56l1.52,3a.31.31,0,0,1,0,.28Z"/></svg>