<svg id="Calque_1" data-name="Calque 1" xmlns="http://www.w3.org/2000/svg" viewBox="0 0 64 64"><title>icon_bubble</title><path d="M0,0V64H64V0ZM31.86,56.44A23.43,23.43,0,1,1,55.29,33,23.46,23.46,0,0,1,31.86,56.44Z" style="fill:#333"/><path d="M31.86,10.45A22.55,22.55,0,1,0,54.42,33,22.55,22.55,0,0,0,31.86,10.45Zm10.5,34.23L38.8,46l-1.15-3.15,3.56-1.3a6,6,0,0,0,3.56-7.63,6,6,0,0,0-7.63-3.56l-.13.06a5.66,5.66,0,0,0,1-5.51,5.51,5.51,0,0,0-7-3.37l-9.27,3.38,8.68,23.84L27.19,49.9l-9.83-27,12.43-4.53a8.87,8.87,0,0,1,11.33,5.38A9,9,0,0,1,41.67,27a9.3,9.3,0,0,1,.69,17.71Z" style="fill:#333"/></svg>