<svg id="Calque_1" data-name="Calque 1" xmlns="http://www.w3.org/2000/svg" viewBox="0 0 64 64"><title>icon_jacadi</title><path d="M19,47.32c-3,5.27,3,7.67,7.36,2a45.5,45.5,0,0,0,5.32-9.72C31.46,39.61,22.66,40.95,19,47.32Z" style="fill:#333"/><path d="M0,0V64H64V0ZM35.4,36.64s1.61-.2,3-.25c0,0-.89,2.42-.9,2.42l-3.06.29s-4,10.54-8.56,14.28c-3.28,2.67-7.95,2.62-9.56-1.22-2-4.79,3.55-13.25,16.24-15.22h.13l3.62-9.77H29.75l-1-2.64H39.92L35.29,36.65Zm9.28-24.4A69.36,69.36,0,0,0,41,21.48H27.63a68,68,0,0,0-3.71-9.24C23.81,12,24,12,24,12a20.72,20.72,0,0,1,5.73,2.43,27.08,27.08,0,0,1,4.46-5.71.13.13,0,0,1,.07,0h0a.19.19,0,0,1,.08,0,28.18,28.18,0,0,1,4.45,5.71A20.61,20.61,0,0,1,44.57,12C44.63,12,44.79,12,44.67,12.24Z" style="fill:#333"/></svg>