<svg id="Calque_1" data-name="Calque 1" xmlns="http://www.w3.org/2000/svg" viewBox="0 0 64 64"><title>list</title><path d="M49.05,22.81H19a1,1,0,0,1,0-2H49.05a1,1,0,0,1,0,2Z" style="fill:#1d212b"/><path d="M15.63,22.81h-.68a1,1,0,1,1,0-2h.68a1,1,0,0,1,0,2Z" style="fill:#1d212b"/><path d="M49.05,33H19a1,1,0,0,1,0-2H49.05a1,1,0,0,1,0,2Z" style="fill:#1d212b"/><path d="M15.63,33h-.68a1,1,0,0,1,0-2h.68a1,1,0,0,1,0,2Z" style="fill:#1d212b"/><path d="M49.05,43.19H19a1,1,0,0,1,0-2H49.05a1,1,0,0,1,0,2Z" style="fill:#1d212b"/><path d="M15.63,43.19h-.68a1,1,0,0,1,0-2h.68a1,1,0,0,1,0,2Z" style="fill:#1d212b"/></svg>