<svg id="Calque_1" data-name="Calque 1" xmlns="http://www.w3.org/2000/svg" viewBox="0 0 160 64"><title>logo_jacadi</title><path d="M59,26.11a3.1,3.1,0,0,0-1.28-.25h-.12c-2,0-3.87,1.94-4.73,3.86s-1.08,3.6-.55,4.78A2.78,2.78,0,0,0,54,36.11a3.45,3.45,0,0,0,1.4.31,5.23,5.23,0,0,0,4.42-3.22,8.16,8.16,0,0,0,.75-5.2A2.94,2.94,0,0,0,59,26.11Z" style="fill:#333"/><path d="M27.08,45.49c-.87,1.71-1,3.29-.34,4.38a2.71,2.71,0,0,0,2.43,1.2c2.87,0,5.5-3.6,5.51-3.61A43.91,43.91,0,0,0,40,36.88c-.1,0-.2.05-.34.09C37.29,37.65,30.08,39.62,27.08,45.49Z" style="fill:#333"/><path d="M92.78,26.11a3.23,3.23,0,0,0-1.29-.25h-.13c-2,0-3.86,1.94-4.74,3.86a6.38,6.38,0,0,0-.56,4.78,2.9,2.9,0,0,0,1.66,1.61,3.32,3.32,0,0,0,1.38.31,5.23,5.23,0,0,0,4.44-3.22,8,8,0,0,0,.73-5.2A2.94,2.94,0,0,0,92.78,26.11Z" style="fill:#333"/><path d="M0,0V64H160V0ZM125.77,17.14a2.18,2.18,0,0,1,2.42-.87,2.55,2.55,0,0,1,.67.36,2.13,2.13,0,0,1,.82,1.48,2.35,2.35,0,0,1-.41,1.71,2.16,2.16,0,0,1-2.42.83,2.29,2.29,0,0,1-.66-.32A2.34,2.34,0,0,1,125.77,17.14ZM48.9,10.6a2.25,2.25,0,0,1,2.44-.85,2.17,2.17,0,0,1,.63.35,2.11,2.11,0,0,1,.85,1.48,2.41,2.41,0,0,1-.41,1.71,2.19,2.19,0,0,1-2.43.82,1.91,1.91,0,0,1-.64-.33A2.32,2.32,0,0,1,48.9,10.6Zm-.21,21.88a2.43,2.43,0,0,0-.13.27c-.93,2.56-.93,2.56-1,2.56s0,0,0,0c-1.27.15-2.79.34-3.89.54,0,.09-.07.16-.12.31-2.74,7.87-5.87,13.39-9.07,16a9.43,9.43,0,0,1-5.69,2.17A5.48,5.48,0,0,1,23.59,51a7.85,7.85,0,0,1,.55-6.89C26.74,39,33,35,41.23,33.39L45.38,22l-7,5.15-1.92-2.54,11-8.11h3.34l-2.88,7.83c-1.31,3.51-3,8.28-3.08,8.4.62-.09,2.5-.29,3.75-.35h.16Zm82.22,3c-2.24,2.73-4.39,4.06-6.54,4.06a5.71,5.71,0,0,1-.94-.09,4.11,4.11,0,0,1-2.58-1.77,7.8,7.8,0,0,1-4.78,1.89h-.13a4.3,4.3,0,0,1-1.65-.31,3.58,3.58,0,0,1-1.43-1.09,3.29,3.29,0,0,1-.42-.5,7.15,7.15,0,0,1-4.9,1.89,7,7,0,0,1-2.81-.57,5.93,5.93,0,0,1-2.37-2,7.6,7.6,0,0,1-5.06,2.48,4.47,4.47,0,0,1-1.58-.29,4,4,0,0,1-1.81-1.5A7.13,7.13,0,0,1,89,39.57,7,7,0,0,1,86.19,39a6.14,6.14,0,0,1-3.08-3.34,23.81,23.81,0,0,1-3.3,2.23,13.44,13.44,0,0,1-6.09,1.68,7.51,7.51,0,0,1-2.79-.49,5.53,5.53,0,0,1-2.42-2,7.56,7.56,0,0,1-5,2.39A4.38,4.38,0,0,1,62,39.17a4,4,0,0,1-1.8-1.5A7.3,7.3,0,0,1,52.43,39a6.46,6.46,0,0,1-3.57-5.85,11.07,11.07,0,0,1,1.26-4.94,8.93,8.93,0,0,1,7.81-5.55A5.68,5.68,0,0,1,61,23.5a4.11,4.11,0,0,1,1.68,1.75l.8-2.2h3.37l-.07.21c0,.08-3.64,9.89-3.86,10.35-.5,1.26-.65,2,0,2.41a1.13,1.13,0,0,0,.75.27c.95,0,2.4-1,3.71-2.46a10.78,10.78,0,0,1,1.12-5.62c1.62-3.39,4.62-5.49,7.79-5.49a6.08,6.08,0,0,1,6.14,5.81h0v.06c0,.05,0,.05-.9.05H80c-.9,0-.9,0-.9-.09v0a2.81,2.81,0,0,0-2.81-2.68h-.07c-2,.06-3.92,1.59-4.95,4a6.18,6.18,0,0,0-.36,4.86,2.38,2.38,0,0,0,1.59,1.35,5.84,5.84,0,0,0,1.61.22,10.34,10.34,0,0,0,5.67-2.12c.95-.68,2.12-1.67,2.92-2.38a12.72,12.72,0,0,1,1.17-3.59,8.93,8.93,0,0,1,7.81-5.55,5.67,5.67,0,0,1,3.06.84,4.48,4.48,0,0,1,1.69,1.75l.8-2.2h3.38l-.09.21c0,.08-3.64,9.89-3.84,10.35-.5,1.26-.66,2,0,2.41a1.07,1.07,0,0,0,.73.27c1,0,2.45-1,3.8-2.54a3.75,3.75,0,0,1,0-.61,11.06,11.06,0,0,1,1.25-4.94,8.93,8.93,0,0,1,7.81-5.55,5.63,5.63,0,0,1,3.07.84A4.63,4.63,0,0,1,115,25.23l3.19-8.65h3.42l-.06.18c-.07.16-6.09,16.39-6.3,16.86-.48,1.26-.61,2,.06,2.42a1.06,1.06,0,0,0,.68.26,5.23,5.23,0,0,0,4-2.2s0,0,0,0a.65.65,0,0,1,.13-.24c0-.06.05-.07.07-.11.63-1.06,4.08-10.51,4.14-10.63v0h3.42l0,.14c-.15.41-3.73,10.26-3.92,10.66-.49,1.3-.43,1.87.24,2.2a.89.89,0,0,0,.46.14c1.07,0,2.91-1.31,4.29-3l.12-.13L131,35.39Z" style="fill:#333"/><path d="M111.32,26.11a3.35,3.35,0,0,0-1.3-.25c-2.31,0-4,2-4.92,3.91a6.25,6.25,0,0,0-.49,4.72,2.83,2.83,0,0,0,1.65,1.61,3.27,3.27,0,0,0,1.39.31,5.19,5.19,0,0,0,4.42-3.22,8.07,8.07,0,0,0,.75-5.2A3,3,0,0,0,111.32,26.11Z" style="fill:#333"/></svg>