<svg id="Calque_1" data-name="Calque 1" xmlns="http://www.w3.org/2000/svg" viewBox="0 0 160 64"><title>logo_njoy</title><path d="M99.55,27a6.75,6.75,0,0,0-2.15-1.51A6.56,6.56,0,0,0,94.68,25,6.67,6.67,0,0,0,92,25.5a6.24,6.24,0,0,0-2.1,1.5,7.06,7.06,0,0,0-1.37,2.22A7.31,7.31,0,0,0,88,31.9V32a7.43,7.43,0,0,0,.49,2.71A6.73,6.73,0,0,0,92,38.43a6.52,6.52,0,0,0,2.73.56,6.7,6.7,0,0,0,2.71-.54,6.19,6.19,0,0,0,2.12-1.5,7.09,7.09,0,0,0,1.37-2.22,7.32,7.32,0,0,0,.49-2.69V32a7.45,7.45,0,0,0-.49-2.71A6.76,6.76,0,0,0,99.55,27Z" style="fill:#333"/><path d="M0,0V64H160V0ZM53.6,43.13H49.42L38.61,28.94V43.13H33.77V20.81H38.3L48.75,34.55V20.81H53.6Zm9.34-14.37a7.18,7.18,0,0,1-2.32,1.41,7.59,7.59,0,0,1-1.32.37V28.95a5.6,5.6,0,0,0,2.07-1.09h-.07A3.72,3.72,0,1,1,65,24.53a5.89,5.89,0,0,1-.53,2.15A6.55,6.55,0,0,1,62.94,28.76ZM77.55,32a11.28,11.28,0,0,1-.89,4.48,11.42,11.42,0,0,1-6.23,6.15,12.29,12.29,0,0,1-4.74.91h-.83V39h.86a6.7,6.7,0,0,0,2.71-.54A6.19,6.19,0,0,0,70.55,37a7.09,7.09,0,0,0,1.37-2.22,7.32,7.32,0,0,0,.49-2.69V20.81h5.13Zm29-.07a11.28,11.28,0,0,1-.89,4.48,11.42,11.42,0,0,1-6.23,6.15,12.3,12.3,0,0,1-4.77.91,12.17,12.17,0,0,1-4.75-.91,11.81,11.81,0,0,1-3.75-2.46,11,11,0,0,1-2.45-3.63A11.44,11.44,0,0,1,82.85,32V32a11.27,11.27,0,0,1,.89-4.48A11.42,11.42,0,0,1,90,21.33a12.91,12.91,0,0,1,9.52,0,11.82,11.82,0,0,1,3.75,2.45,11,11,0,0,1,2.46,3.64,11.45,11.45,0,0,1,.88,4.48Zm14.34,2.26v8.9H116v-8.8l-8.58-13.52h5.74l5.33,9,5.42-9h5.58Z" style="fill:#333"/></svg>