<svg id="Calque_1" data-name="Calque 1" xmlns="http://www.w3.org/2000/svg" viewBox="0 0 160 64"><title>logo_joybox</title><path d="M44.82,42.58A10.55,10.55,0,1,1,55.19,32,10.48,10.48,0,0,1,44.82,42.58Zm0-16.88A6.33,6.33,0,1,0,51,32,6.25,6.25,0,0,0,44.82,25.7Z" style="fill:#221f1f"/><path d="M115.27,42.58A10.55,10.55,0,1,1,125.64,32,10.48,10.48,0,0,1,115.27,42.58Zm0-16.88A6.33,6.33,0,1,0,121.42,32,6.25,6.25,0,0,0,115.27,25.7Z" style="fill:#221f1f"/><path d="M20.09,41.86A8.85,8.85,0,0,1,11.22,33h4.22a4.65,4.65,0,0,0,9.29,0V22.21H29V33A8.85,8.85,0,0,1,20.09,41.86Z" style="fill:#221f1f"/><polygon points="140.79 31.88 148.62 22.18 143.19 22.18 138.09 28.5 133.03 22.18 127.63 22.18 135.37 31.86 127.29 41.87 132.71 41.87 138.07 35.24 143.38 41.87 148.78 41.87 140.79 31.88" style="fill:#221f1f"/><polygon points="73.65 22.18 68.54 28.51 63.48 22.18 58.08 22.18 65.82 31.87 57.74 41.87 63.17 41.87 79.08 22.18 73.65 22.18" style="fill:#221f1f"/><path d="M99.26,31.53a5.88,5.88,0,0,0-4.68-9.45l-13.82.06V41.83l14.07.08a6.14,6.14,0,0,0,4.43-10.39Zm-3-3.56a1.67,1.67,0,0,1-1.67,1.67H85V26.3h9.6A1.67,1.67,0,0,1,96.24,28ZM94.83,37.7H85V33.86h9.85a1.92,1.92,0,0,1,0,3.84Z" style="fill:#221f1f"/><path d="M44.82,21.46A10.54,10.54,0,1,0,55.36,32,10.54,10.54,0,0,0,44.82,21.46Zm0,16.07A5.52,5.52,0,1,1,50.25,32,5.49,5.49,0,0,1,44.82,37.52Z" style="fill:#221f1f"/><ellipse cx="44.82" cy="32" rx="3.22" ry="3.31" style="fill:#221f1f"/><rect x="56.26" y="39.92" width="1.21" height="8.27" transform="translate(-14.49 53.11) rotate(-45)" style="fill:#221f1f"/><rect x="28.63" y="43.44" width="8.27" height="1.21" transform="translate(-21.55 36.07) rotate(-45)" style="fill:#221f1f"/><rect x="32.16" y="15.81" width="1.21" height="8.27" transform="translate(-4.51 29.01) rotate(-45)" style="fill:#221f1f"/><rect x="52.73" y="19.34" width="8.27" height="1.21" transform="translate(2.55 46.05) rotate(-45)" style="fill:#221f1f"/></svg>