<svg id="Calque_1" data-name="Calque 1" xmlns="http://www.w3.org/2000/svg" viewBox="0 0 160 64"><title>logo_joybox</title><path d="M94.83,33.86H85V37.7h9.85a1.92,1.92,0,1,0,0-3.84Z" style="fill:#333"/><ellipse cx="115.27" cy="32.03" rx="6.16" ry="6.33" style="fill:#333"/><path d="M0,0V64H160V0ZM59.36,16.6l.86.86L54.37,23.3l-.86-.86Zm-29.09,0,5.85,5.85-.86.86-5.85-5.85ZM29,33a8.87,8.87,0,0,1-17.73,0h4.22a4.65,4.65,0,0,0,9.29,0V22.21H29ZM30.27,47.4l-.86-.86,5.85-5.85.86.86Zm14.55-4.83a10.17,10.17,0,0,1-4.08-.85,10.54,10.54,0,1,1,8.17,0A10.17,10.17,0,0,1,44.82,42.58ZM59.36,47.4l-5.85-5.85.86-.86,5.85,5.85Zm3.8-5.53H57.74l8.08-10-7.74-9.69h5.4l5.05,6.33,5.11-6.33h5.42Zm31.66,0-14.07-.08V22.14l13.82-.06a5.88,5.88,0,0,1,4.68,9.45,6.14,6.14,0,0,1-4.43,10.39Zm20.44.66A10.55,10.55,0,1,1,125.64,32,10.48,10.48,0,0,1,115.27,42.58Zm28.11-.7-5.31-6.63-5.36,6.63h-5.42l8.09-10-7.74-9.68H133l5.06,6.32,5.11-6.32h5.42l-7.83,9.7,8,10Z" style="fill:#333"/><path d="M96.24,28a1.67,1.67,0,0,0-1.67-1.67H85v3.34h9.6A1.67,1.67,0,0,0,96.24,28Z" style="fill:#333"/></svg>