<svg id="Calque_1" data-name="Calque 1" xmlns="http://www.w3.org/2000/svg" viewBox="0 0 160 64"><title>logo_okaidi</title><path d="M41.28,27H30.84a2.58,2.58,0,0,0-2.6,2.57v7.27a2.59,2.59,0,0,0,2.6,2.57H41.28a2.58,2.58,0,0,0,2.57-2.57V29.53A2.57,2.57,0,0,0,41.28,27Z" style="fill:#333"/><path d="M106.26,29.75v7.12a2.47,2.47,0,0,0,2.46,2.46h10.36a2.47,2.47,0,0,0,2.47-2.46V27.29H108.72A2.47,2.47,0,0,0,106.26,29.75Z" style="fill:#333"/><path d="M0,0V64H160V0ZM47.23,37.17a5.51,5.51,0,0,1-5.5,5.51H30.4a5.53,5.53,0,0,1-5.51-5.51v-8a5.53,5.53,0,0,1,5.51-5.5H41.73a5.51,5.51,0,0,1,5.5,5.5Zm21.68,4.66a1.74,1.74,0,0,1-1.46.85,1.79,1.79,0,0,1-.85-.25l-11-7.18h0a1,1,0,0,0-.46-.1,1.17,1.17,0,0,0-1.16,1.14V41a1.68,1.68,0,1,1-3.35,0V25.3a1.68,1.68,0,1,1,3.35,0v5.42l12.49-6.54a1.74,1.74,0,0,1,.82-.21,1.68,1.68,0,0,1,.83,3.14L57.54,32.5l10.76,7a1.7,1.7,0,0,1,.61,2.3Zm23.7-4.58a5.43,5.43,0,0,1-5.4,5.42H76.06a5.29,5.29,0,0,1-5.41-5.26V36.14a5.17,5.17,0,0,1,3.6-4.92,5.28,5.28,0,0,1,1.82-.32H89.24V29.75a2.48,2.48,0,0,0-2.47-2.46H74.62A1.67,1.67,0,0,1,73,25.63a1.61,1.61,0,0,1,.24-.87,1.66,1.66,0,0,1,1.41-.8H87.21a5.42,5.42,0,0,1,5.4,5.41Zm.61-17.2a1.7,1.7,0,1,1,1.7,1.69A1.7,1.7,0,0,1,93.22,20.06Zm6.19,21a1.7,1.7,0,0,1-3.4,0V25.29a1.7,1.7,0,1,1,3.4,0Zm1.07-19.31a1.69,1.69,0,1,1,1.7-1.69A1.69,1.69,0,0,1,100.48,21.75Zm24.43,15.51a5.43,5.43,0,0,1-5.4,5.42H108.3a5.44,5.44,0,0,1-5.42-5.42V29.38A5.43,5.43,0,0,1,108.3,24h13.25V20a1.68,1.68,0,0,1,3.36,0Zm6.74,3.8A1.67,1.67,0,0,1,130,42.75a1.7,1.7,0,0,1-1.71-1.68V25.29A1.72,1.72,0,0,1,130,23.59a1.68,1.68,0,0,1,1.67,1.71ZM130,21.75a1.69,1.69,0,1,1,1.7-1.69A1.7,1.7,0,0,1,130,21.75Z" style="fill:#333"/><path d="M74,36.54V37a2.18,2.18,0,0,0,2.29,2.3H86.77a2.47,2.47,0,0,0,2.47-2.46V34.24H76.34A2.18,2.18,0,0,0,74,36.54Z" style="fill:#333"/></svg>