<svg id="Calque_1" data-name="Calque 1" xmlns="http://www.w3.org/2000/svg" viewBox="0 0 160 64"><title>logo_bubble</title><path d="M79.73,30.19a7.83,7.83,0,0,0,.44-2.57,7.74,7.74,0,0,0-7.68-7.78H64.78V23.3h7.72a4.28,4.28,0,0,1,4.22,4.33,4.43,4.43,0,0,1-2.16,3.78l-.91.59h1.2a4.71,4.71,0,0,1,4.64,4.65,4.65,4.65,0,0,1-4.64,4.65H68.52v3.44h6.32a8.09,8.09,0,0,0,4.89-14.53Z" style="fill:#221f1f"/><path d="M59.59,34.67a6.72,6.72,0,0,1-13.44,0V19.86H42.69V34.67a10.17,10.17,0,0,0,20.34,0V19.86H59.59Z" style="fill:#221f1f"/><path d="M103.93,30.19a7.93,7.93,0,0,0,.43-2.57,7.74,7.74,0,0,0-7.68-7.78H85.31V44.48h3.46V23.3h7.91a4.28,4.28,0,0,1,4.23,4.33,4.42,4.42,0,0,1-2.16,3.78l-.92.59H99a4.71,4.71,0,0,1,4.65,4.65A4.66,4.66,0,0,1,99,41.28H95.54v3.44H99a8.09,8.09,0,0,0,4.9-14.53Z" style="fill:#221f1f"/><path d="M37.31,30.19a7.82,7.82,0,0,0,.43-2.58,7.73,7.73,0,0,0-7.67-7.78H18.71V44.48h3.44V23.3h7.93a4.28,4.28,0,0,1,4.22,4.33,4.43,4.43,0,0,1-2.16,3.78l-.92.59h1.2a4.72,4.72,0,0,1,4.65,4.65,4.66,4.66,0,0,1-4.65,4.65H28.93v3.44h3.48a8.09,8.09,0,0,0,4.9-14.53Z" style="fill:#221f1f"/><path d="M112.81,34.67V19.86h-3.45V34.67a10.18,10.18,0,0,0,10.17,10.17h.32V41.38h-.32A6.72,6.72,0,0,1,112.81,34.67Z" style="fill:#221f1f"/><path d="M139.68,37a9.14,9.14,0,1,1-.42-10.16L130.65,31l1.5,3.15,11.78-5.66-.09-.27a12.63,12.63,0,1,0-.38,9.13l.2-.45h-3.88Z" style="fill:#221f1f"/></svg>