<svg id="Calque_1" data-name="Calque 1" xmlns="http://www.w3.org/2000/svg" viewBox="0 0 160 64"><title>logo_bubble</title><path d="M0,0V64H160V0Zm32.4,44.73H28.93V41.28h3.48a4.66,4.66,0,0,0,4.65-4.65A4.72,4.72,0,0,0,32.42,32h-1.2l.92-.59a4.43,4.43,0,0,0,2.16-3.78,4.28,4.28,0,0,0-4.22-4.33H22.15V44.48H18.71V19.85H30.08a7.73,7.73,0,0,1,7.67,7.78,7.82,7.82,0,0,1-.43,2.58,8.09,8.09,0,0,1-4.9,14.53ZM63,34.67a10.17,10.17,0,0,1-20.34,0V19.86h3.45V34.67a6.72,6.72,0,0,0,13.44,0V19.86H63ZM74.84,44.73H68.52V41.28h6.32a4.65,4.65,0,0,0,4.64-4.65A4.71,4.71,0,0,0,74.84,32h-1.2l.91-.59a4.43,4.43,0,0,0,2.16-3.78,4.28,4.28,0,0,0-4.22-4.33H64.78V19.85h7.72a7.74,7.74,0,0,1,7.68,7.78,7.83,7.83,0,0,1-.44,2.57,8.09,8.09,0,0,1-4.89,14.53Zm24.19,0H95.54V41.28H99a4.66,4.66,0,0,0,4.65-4.65A4.71,4.71,0,0,0,99,32h-1.2l.92-.59a4.42,4.42,0,0,0,2.16-3.78,4.28,4.28,0,0,0-4.23-4.33H88.77V44.48H85.31V19.85H96.68a7.74,7.74,0,0,1,7.68,7.78,7.93,7.93,0,0,1-.43,2.57A8.09,8.09,0,0,1,99,44.73Zm20.83.11h-.32a10.18,10.18,0,0,1-10.17-10.17V19.86h3.45V34.67a6.72,6.72,0,0,0,6.72,6.71h.32Zm12-21.7A9.14,9.14,0,1,0,139.68,37l.09-.15h3.88l-.2.45a12.63,12.63,0,1,1,.38-9.13l.09.27-11.78,5.66L130.65,31l8.61-4.1A9.13,9.13,0,0,0,131.88,23.14Z" style="fill:#333"/></svg>