<svg id="Calque_1" data-name="Calque 1" xmlns="http://www.w3.org/2000/svg" viewBox="0 0 160 64"><title>logo_obaibi</title><path d="M0,0V64H160V0ZM37.4,43c-6.45,0-11.71-4.67-11.71-10.42S30.95,22.19,37.4,22.19s11.7,4.68,11.7,10.43S43.84,43,37.4,43ZM71,36.77A4.5,4.5,0,0,1,69.66,40h0c-1.6,1.68-4.61,2.7-8,2.76h-.22A13.5,13.5,0,0,1,55,41.39a1.63,1.63,0,0,1-3.24-.27V24.39a1.62,1.62,0,0,1,1.63-1.62,1.59,1.59,0,0,1,1.54,1.12,13.8,13.8,0,0,1,6.44-1.51h.23c5.43,0,9.29,2.34,9.38,5.71a4.51,4.51,0,0,1-1.33,3.28h0a7,7,0,0,1-1.51,1.17A5.07,5.07,0,0,1,71,36.77ZM95.44,41.1a1.62,1.62,0,1,1-3.24,0V39.94a12.2,12.2,0,0,1-7.88,2.82c-6.28,0-11.4-4.56-11.4-10.15S78,22.44,84.31,22.44a12.13,12.13,0,0,1,7.88,2.83v-.89a1.62,1.62,0,1,1,3.24,0Zm1.16-21.93a1.72,1.72,0,1,1,1.73,1.72A1.72,1.72,0,0,1,96.59,19.18Zm6.19,21.95a1.63,1.63,0,0,1-3.26,0V24.45a1.63,1.63,0,1,1,3.26,0ZM104,20.89a1.72,1.72,0,1,1,0-3.44,1.72,1.72,0,1,1,0,3.44Zm22,15.87A4.5,4.5,0,0,1,124.65,40h0c-1.61,1.68-4.61,2.7-8,2.76h-.22A13.32,13.32,0,0,1,110,41.38a1.65,1.65,0,0,1-1.6,1.36,1.63,1.63,0,0,1-1.64-1.62V24.39a1.63,1.63,0,0,1,3.19-.5,13.64,13.64,0,0,1,6.42-1.51h.23c5.45,0,9.31,2.34,9.39,5.71a4.5,4.5,0,0,1-1.33,3.28h0a6.82,6.82,0,0,1-1.52,1.17A5.07,5.07,0,0,1,126,36.77Zm6.43,4.36a1.62,1.62,0,0,1-3.25,0V24.45a1.62,1.62,0,1,1,3.25,0Zm-1.66-20.23a1.72,1.72,0,1,1,0-3.44,1.72,1.72,0,0,1,0,3.44Z" style="fill:#333"/><path d="M116.59,25.11h-.19c-2.64,0-5,.78-6.11,1.89a1.83,1.83,0,0,0-.59,1.31c0,1.74,3,3.09,6.66,3.09h.19c2.62,0,5-.8,6.1-1.9a1.76,1.76,0,0,0,.58-1.32C123.2,26.47,120.29,25.11,116.59,25.11Z" style="fill:#333"/><path d="M37.4,25.06c-4.67,0-8.46,3.39-8.46,7.55s3.79,7.55,8.46,7.55,8.44-3.39,8.44-7.55S42.06,25.06,37.4,25.06Z" style="fill:#333"/><path d="M116.59,33.79h-.19c-2.64,0-5,.77-6.11,1.9A1.81,1.81,0,0,0,109.7,37c0,1.71,3,3.06,6.66,3.06h.19c2.62,0,5-.77,6.1-1.89a1.7,1.7,0,0,0,.58-1.31C123.2,35.14,120.29,33.79,116.59,33.79Z" style="fill:#333"/><path d="M61.6,33.79h-.2c-2.64,0-5,.77-6.1,1.9a1.78,1.78,0,0,0-.6,1.31c0,1.71,3,3.06,6.67,3.06h.19c2.64,0,5-.78,6.11-1.91a1.75,1.75,0,0,0,.59-1.3C68.21,35.14,65.29,33.79,61.6,33.79Z" style="fill:#333"/><path d="M61.6,25.11h-.2c-2.64,0-5,.78-6.1,1.89a1.82,1.82,0,0,0-.6,1.31c0,1.74,3,3.09,6.67,3.09h.19c2.64,0,5-.8,6.11-1.9a1.82,1.82,0,0,0,.59-1.32C68.21,26.47,65.29,25.11,61.6,25.11Z" style="fill:#333"/><path d="M84.31,25.34c-4.49,0-8.14,3.25-8.14,7.27s3.65,7.27,8.14,7.27,8.14-3.26,8.14-7.27S88.8,25.34,84.31,25.34Z" style="fill:#333"/></svg>