<svg id="Calque_1" data-name="Calque 1" xmlns="http://www.w3.org/2000/svg" viewBox="0 0 160 64"><title>logo_oxybul</title><path d="M105.08,26.56a4.89,4.89,0,1,0,4.89,4.9A4.92,4.92,0,0,0,105.08,26.56Z" style="fill:#333"/><path d="M0,0V64H160V0ZM39.89,48.87A17.27,17.27,0,1,1,57.16,31.6,17.26,17.26,0,0,1,39.89,48.87Zm32.18-9.18L67,34.22l-5.08,5.47H57l7.51-8.23L57,23.1h4.88L67,28.69l4.94-5.59H76.8l-7.38,8.36,7.52,8.23Zm22,1.45a8.53,8.53,0,0,1-8.53,8.52V46a4.89,4.89,0,0,0,4.88-4.86V38.62a8.32,8.32,0,0,1-4.5,1.3,8,8,0,0,1-8.15-7.83v-9h3.65v9a4.51,4.51,0,0,0,9,0v-9h3.66Zm11-1.12a8.6,8.6,0,0,1-8.59-8.57V15.18h3.71v9.26A8.56,8.56,0,1,1,105.08,40Zm26.38-7.87a8.2,8.2,0,0,1-16.39,0v-9h3.69v9a4.52,4.52,0,0,0,9,0v-9h3.7Zm5.89,6.16a1.84,1.84,0,1,1-3.69,0V15.18h3.69Z" style="fill:#333"/><path d="M51.5,24.08l-9.58-5.45,0,0a4,4,0,0,0-2-.56,3.87,3.87,0,0,0-2,.6l0,0-9.52,5.42,9.55,5.47a4,4,0,0,0,4.12,0Z" style="fill:#333"/><path d="M38.46,32.26,27.25,25.89V36a4.08,4.08,0,0,0,2.12,3.63l9.42,5.4V32.42l-.06,0A2.87,2.87,0,0,1,38.46,32.26Z" style="fill:#333"/><path d="M41.4,32.44l-.21.11V44.71l9.11-5.22a3.83,3.83,0,0,0,2-3.42V26.24Z" style="fill:#333"/></svg>