<svg id="Calque_1" data-name="Calque 1" xmlns="http://www.w3.org/2000/svg" viewBox="0 0 256 64"><title>logo_idkidscommunity_sbrame</title><path d="M241.43,26.89a4.28,4.28,0,1,0-4.28,4.28A4.36,4.36,0,0,0,241.43,26.89Z" style="fill:#4f5455"/><path d="M255,27.28v-.59h-7.11v.59h0a10.73,10.73,0,1,1-21.47,0h0v-.59h-7.11v.59a17.85,17.85,0,1,0,35.69,0" style="fill:#4f5455"/><rect x="3.11" y="26.95" width="3.42" height="15.87" style="fill:#4f5455"/><rect x="42.82" y="26.95" width="3.42" height="15.87" style="fill:#4f5455"/><rect x="27.41" y="26.95" width="3.42" height="15.87" style="fill:#4f5455"/><polygon points="35.84 26.95 31.36 34.79 31.29 34.85 35.84 42.82 39.52 42.82 35.05 34.85 39.52 26.95 35.84 26.95" style="fill:#4f5455"/><rect x="50.79" y="26.95" width="3.42" height="15.87" style="fill:#4f5455"/><path d="M55.86,27h-.4v3.42h.46a4.54,4.54,0,0,1,0,9.09h-.46v3.42h.4a8,8,0,0,0,0-15.94Z" style="fill:#4f5455"/><path d="M92.34,42.82h1.32V39.4H92.27a4.54,4.54,0,0,1,0-9.09h1.38V27H92.34a7.94,7.94,0,1,0,0,15.87Z" style="fill:#4f5455"/><rect x="11.21" y="26.95" width="3.42" height="15.87" style="fill:#4f5455"/><path d="M16.28,27h-.4v3.42h.46a4.54,4.54,0,0,1,0,9.09h-.46v3.42h.4a8,8,0,1,0,0-15.94Z" style="fill:#4f5455"/><path d="M71.66,26.42a5.07,5.07,0,0,0-.79,10.08l.2.07V33.08L71,33l-.07-.07a1.66,1.66,0,0,1-1-1.51,1.65,1.65,0,1,1,3.29,0v.13h3.42v-.13A4.88,4.88,0,0,0,71.66,26.42Z" style="fill:#4f5455"/><path d="M72.45,33.08h-.13v3.49h.07a1.61,1.61,0,0,1,.92,1.51,1.65,1.65,0,0,1-3.29,0v-.13H66.59v.13a5.07,5.07,0,1,0,10.14,0A5,5,0,0,0,72.45,33.08Z" style="fill:#4f5455"/><rect x="1" y="22.34" width="3.23" height="3.23" style="fill:#4f5455"/><rect x="5.41" y="22.34" width="3.23" height="3.23" style="fill:#4f5455"/><rect x="42.82" y="22.34" width="3.42" height="3.23" style="fill:#4f5455"/><polygon points="177.49 42.95 178.81 42.95 178.81 26.82 177.49 26.82 177.49 42.95" style="fill:#4f5455"/><polygon points="170.38 28.86 170.38 31.36 176.24 40.91 176.24 38.34 170.38 28.86" style="fill:#4f5455"/><rect x="167.81" y="26.82" width="1.25" height="16.13" style="fill:#4f5455"/><rect x="183.42" y="26.82" width="1.45" height="16.13" style="fill:#4f5455"/><rect x="188.09" y="26.82" width="11.13" height="1.25" style="fill:#4f5455"/><rect x="192.97" y="29.32" width="1.45" height="13.63" style="fill:#4f5455"/><rect x="205.48" y="37.49" width="1.45" height="5.47" style="fill:#4f5455"/><polygon points="210.22 26.82 206.2 34.85 202.19 26.82 200.6 26.82 205.48 36.24 206.99 36.24 211.8 26.82 210.22 26.82" style="fill:#4f5455"/><polygon points="145.94 29.59 145.94 29.59 145.94 42.95 147.2 42.95 147.2 26.82 145.94 26.82 145.94 29.59" style="fill:#4f5455"/><polygon points="134.22 26.82 134.22 42.95 135.47 42.95 135.47 29.59 135.47 29.59 135.47 26.82 134.22 26.82" style="fill:#4f5455"/><polygon points="140.74 35.18 136.73 28.73 136.73 31.56 140.74 37.88 144.69 31.63 144.69 28.8 140.74 35.18" style="fill:#4f5455"/><polygon points="126.25 32.09 126.25 32.09 126.25 42.95 129.55 42.95 129.55 26.82 126.25 26.82 126.25 32.09" style="fill:#4f5455"/><rect x="114.93" y="26.82" width="3.23" height="16.13" style="fill:#4f5455"/><polygon points="122.24 33.01 119.47 28.73 119.47 33.87 122.24 37.88 125 33.93 125 28.73 122.24 33.01" style="fill:#4f5455"/><rect x="151.87" y="26.82" width="1.45" height="9.81" style="fill:#4f5455"/><path d="M161.68,37.88a3.85,3.85,0,0,1-.13.86,4.23,4.23,0,0,1-3.82,3.1h-.33a4.19,4.19,0,0,1-4-3,3.85,3.85,0,0,1-.13-.86h-1.45v.13a5.71,5.71,0,0,0,5.66,5.07h.07A5.6,5.6,0,0,0,163.2,38v-.07h-1.51Z" style="fill:#4f5455"/><rect x="161.75" y="26.82" width="1.45" height="9.81" style="fill:#4f5455"/><path d="M81.28,38.81A2.17,2.17,0,1,0,83.45,41a2.19,2.19,0,0,0-2.17-2.17" style="fill:#4f5455"/><path d="M99.52,35a4.55,4.55,0,0,1,4-4.48V27.08a7.92,7.92,0,0,0,0,15.81V39.46A4.55,4.55,0,0,1,99.52,35Z" style="fill:#4f5455"/><path d="M112.23,35a7.93,7.93,0,0,0-7.44-7.9v3.42a4.5,4.5,0,0,1,0,9v3.42A7.93,7.93,0,0,0,112.23,35Z" style="fill:#4f5455"/><path d="M241.43,26.89a4.28,4.28,0,1,0-4.28,4.28A4.36,4.36,0,0,0,241.43,26.89Z" style="fill:#d51418"/><path d="M255,27.28v-.59h-7.11v.59h0a10.73,10.73,0,1,1-21.47,0h0v-.59h-7.11v.59a17.85,17.85,0,1,0,35.69,0" style="fill:#4f5455"/><rect x="3.11" y="26.95" width="3.42" height="15.87" style="fill:#4f5455"/><rect x="42.82" y="26.95" width="3.42" height="15.87" style="fill:#4f5455"/><rect x="27.41" y="26.95" width="3.42" height="15.87" style="fill:#4f5455"/><polygon points="35.84 26.95 31.36 34.79 31.29 34.85 35.84 42.82 39.52 42.82 35.05 34.85 39.52 26.95 35.84 26.95" style="fill:#4f5455"/><rect x="50.79" y="26.95" width="3.42" height="15.87" style="fill:#4f5455"/><path d="M55.86,27h-.4v3.42h.46a4.54,4.54,0,0,1,0,9.09h-.46v3.42h.4a8,8,0,0,0,0-15.94Z" style="fill:#4f5455"/><path d="M92.34,42.82h1.32V39.4H92.27a4.54,4.54,0,0,1,0-9.09h1.38V27H92.34a7.94,7.94,0,1,0,0,15.87Z" style="fill:#4f5455"/><rect x="11.21" y="26.95" width="3.42" height="15.87" style="fill:#4f5455"/><path d="M16.28,27h-.4v3.42h.46a4.54,4.54,0,0,1,0,9.09h-.46v3.42h.4a8,8,0,1,0,0-15.94Z" style="fill:#4f5455"/><path d="M71.66,26.42a5.07,5.07,0,0,0-.79,10.08l.2.07V33.08L71,33l-.07-.07a1.66,1.66,0,0,1-1-1.51,1.65,1.65,0,1,1,3.29,0v.13h3.42v-.13A4.88,4.88,0,0,0,71.66,26.42Z" style="fill:#4f5455"/><path d="M72.45,33.08h-.13v3.49h.07a1.61,1.61,0,0,1,.92,1.51,1.65,1.65,0,0,1-3.29,0v-.13H66.59v.13a5.07,5.07,0,1,0,10.14,0A5,5,0,0,0,72.45,33.08Z" style="fill:#4f5455"/><rect x="1" y="22.34" width="3.23" height="3.23" style="fill:#4f5455"/><rect x="5.41" y="22.34" width="3.23" height="3.23" style="fill:#4f5455"/><rect x="42.82" y="22.34" width="3.42" height="3.23" style="fill:#4f5455"/><polygon points="177.49 42.95 178.81 42.95 178.81 26.82 177.49 26.82 177.49 42.95" style="fill:#4f5455"/><polygon points="170.38 28.86 170.38 31.36 176.24 40.91 176.24 38.34 170.38 28.86" style="fill:#4f5455"/><rect x="167.81" y="26.82" width="1.25" height="16.13" style="fill:#4f5455"/><rect x="183.42" y="26.82" width="1.45" height="16.13" style="fill:#4f5455"/><rect x="188.09" y="26.82" width="11.13" height="1.25" style="fill:#4f5455"/><rect x="192.97" y="29.32" width="1.45" height="13.63" style="fill:#4f5455"/><rect x="205.48" y="37.49" width="1.45" height="5.47" style="fill:#4f5455"/><polygon points="210.22 26.82 206.2 34.85 202.19 26.82 200.6 26.82 205.48 36.24 206.99 36.24 211.8 26.82 210.22 26.82" style="fill:#4f5455"/><polygon points="145.94 29.59 145.94 29.59 145.94 42.95 147.2 42.95 147.2 26.82 145.94 26.82 145.94 29.59" style="fill:#4f5455"/><polygon points="134.22 26.82 134.22 42.95 135.47 42.95 135.47 29.59 135.47 29.59 135.47 26.82 134.22 26.82" style="fill:#4f5455"/><polygon points="140.74 35.18 136.73 28.73 136.73 31.56 140.74 37.88 144.69 31.63 144.69 28.8 140.74 35.18" style="fill:#4f5455"/><polygon points="126.25 32.09 126.25 32.09 126.25 42.95 129.55 42.95 129.55 26.82 126.25 26.82 126.25 32.09" style="fill:#4f5455"/><rect x="114.93" y="26.82" width="3.23" height="16.13" style="fill:#4f5455"/><polygon points="122.24 33.01 119.47 28.73 119.47 33.87 122.24 37.88 125 33.93 125 28.73 122.24 33.01" style="fill:#4f5455"/><rect x="151.87" y="26.82" width="1.45" height="9.81" style="fill:#4f5455"/><path d="M161.68,37.88a3.85,3.85,0,0,1-.13.86,4.23,4.23,0,0,1-3.82,3.1h-.33a4.19,4.19,0,0,1-4-3,3.85,3.85,0,0,1-.13-.86h-1.45v.13a5.71,5.71,0,0,0,5.66,5.07h.07A5.6,5.6,0,0,0,163.2,38v-.07h-1.51Z" style="fill:#4f5455"/><rect x="161.75" y="26.82" width="1.45" height="9.81" style="fill:#4f5455"/><path d="M81.28,38.81A2.17,2.17,0,1,0,83.45,41a2.19,2.19,0,0,0-2.17-2.17" style="fill:#d51418"/><path d="M99.52,35a4.55,4.55,0,0,1,4-4.48V27.08a7.92,7.92,0,0,0,0,15.81V39.46A4.55,4.55,0,0,1,99.52,35Z" style="fill:#4f5455"/><path d="M112.23,35a7.93,7.93,0,0,0-7.44-7.9v3.42a4.5,4.5,0,0,1,0,9v3.42A7.93,7.93,0,0,0,112.23,35Z" style="fill:#4f5455"/></svg>