<svg id="Calque_1" data-name="Calque 1" xmlns="http://www.w3.org/2000/svg" viewBox="0 0 160 64"><title>logo_jacadi</title><path d="M128.86,33l-.12.13c-1.38,1.7-3.22,3-4.29,3A.89.89,0,0,1,124,36c-.67-.33-.74-.9-.24-2.2.18-.4,3.76-10.25,3.92-10.66l0-.14h-3.42v0c-.06.12-3.51,9.57-4.14,10.63,0,0,0,0-.07.11h0a.65.65,0,0,0-.13.24s0,0,0,0a5.23,5.23,0,0,1-4,2.2,1.06,1.06,0,0,1-.68-.26c-.66-.46-.54-1.17-.06-2.42.21-.47,6.23-16.69,6.3-16.86l.06-.18h-3.42L115,25.23a4.63,4.63,0,0,0-1.68-1.73,5.63,5.63,0,0,0-3.07-.84,8.93,8.93,0,0,0-7.81,5.55,11.06,11.06,0,0,0-1.25,4.94,3.76,3.76,0,0,0,0,.61c-1.34,1.54-2.83,2.54-3.8,2.54a1.07,1.07,0,0,1-.73-.27c-.66-.45-.5-1.16,0-2.41.2-.47,3.82-10.28,3.84-10.35l.09-.21H97.23l-.8,2.2a4.48,4.48,0,0,0-1.69-1.75,5.67,5.67,0,0,0-3.06-.84,8.93,8.93,0,0,0-7.81,5.55A12.72,12.72,0,0,0,82.7,31.8c-.79.71-2,1.7-2.92,2.38a10.34,10.34,0,0,1-5.67,2.12,5.85,5.85,0,0,1-1.61-.22,2.38,2.38,0,0,1-1.59-1.35,6.18,6.18,0,0,1,.36-4.86c1-2.41,2.95-3.94,4.95-4h.07a2.81,2.81,0,0,1,2.81,2.68v0c0,.09,0,.09.9.09h1.51c.88,0,.88,0,.9-.05v-.06h0a6.08,6.08,0,0,0-6.14-5.81c-3.17,0-6.18,2.1-7.79,5.49a10.78,10.78,0,0,0-1.12,5.62c-1.31,1.5-2.76,2.46-3.71,2.46a1.13,1.13,0,0,1-.75-.27c-.65-.45-.5-1.16,0-2.41.22-.47,3.82-10.28,3.86-10.35l.07-.21H63.47l-.8,2.2A4.11,4.11,0,0,0,61,23.5a5.68,5.68,0,0,0-3.07-.84,8.93,8.93,0,0,0-7.81,5.55,11.07,11.07,0,0,0-1.26,4.94A6.46,6.46,0,0,0,52.43,39a7.3,7.3,0,0,0,7.74-1.33,4,4,0,0,0,1.8,1.5,4.38,4.38,0,0,0,1.56.29,7.56,7.56,0,0,0,5-2.39,5.53,5.53,0,0,0,2.42,2,7.51,7.51,0,0,0,2.79.49,13.44,13.44,0,0,0,6.09-1.68,23.81,23.81,0,0,0,3.3-2.23A6.14,6.14,0,0,0,86.19,39a7,7,0,0,0,2.84.57,7.13,7.13,0,0,0,4.89-1.9,4,4,0,0,0,1.81,1.5,4.47,4.47,0,0,0,1.58.29A7.6,7.6,0,0,0,102.37,37a5.93,5.93,0,0,0,2.37,2,7,7,0,0,0,2.81.57,7.15,7.15,0,0,0,4.9-1.89,3.29,3.29,0,0,0,.42.5,3.58,3.58,0,0,0,1.43,1.09,4.3,4.3,0,0,0,1.65.31h.13a7.8,7.8,0,0,0,4.78-1.89,4.11,4.11,0,0,0,2.58,1.77,5.71,5.71,0,0,0,.94.09c2.16,0,4.31-1.34,6.54-4.06l.1-.08Zm-69.08.16a5.23,5.23,0,0,1-4.42,3.22,3.45,3.45,0,0,1-1.4-.31,2.78,2.78,0,0,1-1.63-1.61c-.53-1.18-.32-2.91.55-4.78s2.77-3.86,4.73-3.86h.12a3.1,3.1,0,0,1,1.28.25A2.94,2.94,0,0,1,60.53,28,8.16,8.16,0,0,1,59.78,33.2Zm33.77,0a5.23,5.23,0,0,1-4.44,3.22,3.32,3.32,0,0,1-1.38-.31,2.9,2.9,0,0,1-1.66-1.61,6.38,6.38,0,0,1,.56-4.78c.88-1.92,2.79-3.86,4.74-3.86h.13a3.23,3.23,0,0,1,1.29.25A2.94,2.94,0,0,1,94.28,28,8,8,0,0,1,93.55,33.2Zm18.53,0a5.19,5.19,0,0,1-4.42,3.22,3.27,3.27,0,0,1-1.39-.31,2.83,2.83,0,0,1-1.65-1.61,6.25,6.25,0,0,1,.49-4.72c.87-1.88,2.61-3.91,4.92-3.91a3.35,3.35,0,0,1,1.3.25A3,3,0,0,1,112.83,28,8.07,8.07,0,0,1,112.08,33.2Z" style="fill:#221f1f"/><path d="M49.34,13.78a1.91,1.91,0,0,0,.64.33h0a2.19,2.19,0,0,0,2.43-.82,2.41,2.41,0,0,0,.41-1.71A2.11,2.11,0,0,0,52,10.09a2.17,2.17,0,0,0-.63-.35,2.25,2.25,0,0,0-2.44.85A2.32,2.32,0,0,0,49.34,13.78Z" style="fill:#221f1f"/><path d="M44.81,32.74c.08-.12,1.77-4.89,3.08-8.4l2.88-7.83H47.44l-11,8.11,1.92,2.54,7-5.15L41.23,33.39C33,35,26.74,39,24.14,44.13A7.85,7.85,0,0,0,23.59,51a5.48,5.48,0,0,0,5.2,3.33h0a9.43,9.43,0,0,0,5.69-2.17c3.2-2.61,6.33-8.13,9.07-16,.05-.14.09-.22.12-.31,1.09-.19,2.61-.39,3.89-.54,0,0,0,0,0,0s.05,0,1-2.56a2.44,2.44,0,0,1,.13-.27l0-.09h-.16C47.31,32.44,45.43,32.65,44.81,32.74ZM34.68,47.45S32,51.07,29.17,51.07a2.71,2.71,0,0,1-2.43-1.2c-.65-1.09-.52-2.67.34-4.38,3-5.87,10.21-7.84,12.58-8.52.14,0,.24-.05.34-.09A43.9,43.9,0,0,1,34.68,47.45Z" style="fill:#221f1f"/><path d="M126.19,20.33a2.29,2.29,0,0,0,.66.32h0a2.16,2.16,0,0,0,2.42-.83,2.35,2.35,0,0,0,.41-1.71,2.13,2.13,0,0,0-.82-1.48,2.55,2.55,0,0,0-.67-.36,2.18,2.18,0,0,0-2.42.87A2.34,2.34,0,0,0,126.19,20.33Z" style="fill:#221f1f"/></svg>