<svg id="Calque_1" data-name="Calque 1" xmlns="http://www.w3.org/2000/svg" viewBox="0 0 256 64"><title>logo_idkidscommunity</title><rect x="4.99" y="25.05" width="4.08" height="18.91" style="fill:#221f1f"/><rect x="52.27" y="25.05" width="4.08" height="18.91" style="fill:#221f1f"/><rect x="33.97" y="25.05" width="4.07" height="18.91" style="fill:#221f1f"/><polygon points="43.94 25.05 38.65 34.39 38.59 34.48 43.94 43.95 48.39 43.95 43.03 34.49 48.39 25.05 43.94 25.05" style="fill:#221f1f"/><rect x="61.79" y="25.05" width="4.07" height="18.91" style="fill:#221f1f"/><path d="M67.86,25h-.49v4.08h.55a5.38,5.38,0,0,1,0,10.76h-.56V44h.49a9.45,9.45,0,1,0,0-18.91Z" style="fill:#221f1f"/><path d="M111.24,44h1.59V39.88h-1.64a5.38,5.38,0,0,1,0-10.76h1.65V25h-1.59a9.45,9.45,0,1,0,0,18.91Z" style="fill:#221f1f"/><rect x="14.61" y="25.05" width="4.07" height="18.91" style="fill:#221f1f"/><path d="M20.68,25h-.49v4.08h.55a5.38,5.38,0,0,1,0,10.76h-.56V44h.49a9.45,9.45,0,1,0,0-18.91Z" style="fill:#221f1f"/><path d="M86.66,24.42a6.05,6.05,0,0,0-1,12l.21,0V32.34l0,0,0,0a2,2,0,1,1,2.82-1.78v.19h4.07v-.19A6.07,6.07,0,0,0,86.66,24.42Z" style="fill:#221f1f"/><path d="M87.6,32.38h-.19v4.16l.11,0a2,2,0,0,1,1.14,1.79,2,2,0,0,1-4,0v-.19H80.61v.19a6.06,6.06,0,1,0,7-6Z" style="fill:#221f1f"/><rect x="2.5" y="19.58" width="3.81" height="3.82" style="fill:#221f1f"/><rect x="7.74" y="19.58" width="3.82" height="3.82" style="fill:#221f1f"/><rect x="52.27" y="19.58" width="4.08" height="3.82" style="fill:#221f1f"/><rect x="212.7" y="24.91" width="1.51" height="19.2" style="fill:#221f1f"/><polygon points="204.19 27.33 204.19 30.34 211.19 41.68 211.19 38.62 204.19 27.33" style="fill:#221f1f"/><rect x="201.18" y="24.91" width="1.5" height="19.2" style="fill:#221f1f"/><rect x="219.76" y="24.91" width="1.74" height="19.2" style="fill:#221f1f"/><rect x="225.31" y="24.91" width="13.24" height="1.49" style="fill:#221f1f"/><rect x="231.06" y="27.9" width="1.74" height="16.2" style="fill:#221f1f"/><rect x="246.02" y="37.6" width="1.75" height="6.51" style="fill:#221f1f"/><polygon points="251.64 24.91 246.89 34.52 242.09 24.91 240.22 24.91 245.98 36.1 247.8 36.1 253.5 24.91 251.64 24.91" style="fill:#221f1f"/><polygon points="175.08 28.22 175.1 28.22 175.1 44.11 176.6 44.11 176.6 24.91 175.08 24.91 175.08 28.22" style="fill:#221f1f"/><polygon points="161.12 24.91 161.12 44.11 162.62 44.11 162.62 28.23 162.63 28.23 162.63 24.91 161.12 24.91" style="fill:#221f1f"/><polygon points="168.94 34.91 164.13 27.2 164.13 30.59 168.9 38.05 173.58 30.61 173.58 27.26 168.94 34.91" style="fill:#221f1f"/><polygon points="151.68 31.19 151.69 31.18 151.69 44.11 155.57 44.11 155.57 24.89 151.68 24.89 151.68 31.19" style="fill:#221f1f"/><rect x="138.16" y="24.89" width="3.88" height="19.22" style="fill:#221f1f"/><polygon points="146.87 32.27 143.54 27.19 143.54 33.32 146.88 38.08 150.18 33.35 150.18 27.21 146.87 32.27" style="fill:#221f1f"/><rect x="182.14" y="24.91" width="1.74" height="11.67" style="fill:#221f1f"/><path d="M193.88,38.09a5.6,5.6,0,0,1-.15,1,5,5,0,0,1-4.54,3.69h-.42a5,5,0,0,1-4.71-3.64,6.37,6.37,0,0,1-.16-1h-1.76s0,.09,0,.14a6.76,6.76,0,0,0,6.72,6h.05a6.76,6.76,0,0,0,6.69-6.11s0,0,0-.07h-1.75Z" style="fill:#221f1f"/><rect x="193.9" y="24.91" width="1.74" height="11.67" style="fill:#221f1f"/><path d="M98.1,39.23a2.59,2.59,0,1,0,2.58,2.59,2.59,2.59,0,0,0-2.58-2.59" style="fill:#221f1f"/><path d="M119.85,34.63a5.4,5.4,0,0,1,4.76-5.34V25.2a9.45,9.45,0,0,0,0,18.86V40A5.41,5.41,0,0,1,119.85,34.63Z" style="fill:#221f1f"/><path d="M135,34.63a9.47,9.47,0,0,0-8.83-9.43v4.09a5.38,5.38,0,0,1,0,10.69v4.08A9.46,9.46,0,0,0,135,34.63Z" style="fill:#221f1f"/></svg>