<?xml version="1.0" encoding="utf-8"?>
<!-- Generator: Adobe Illustrator 21.1.0, SVG Export Plug-In . SVG Version: 6.00 Build 0)  -->
<svg version="1.1" id="Calque_1" xmlns="http://www.w3.org/2000/svg" xmlns:xlink="http://www.w3.org/1999/xlink" x="0px" y="0px"
	 viewBox="0 0 160 64" style="enable-background:new 0 0 160 64;" xml:space="preserve">
<style type="text/css">
	.st0{fill:#F56560;}
	.st1{fill:#FFFFFF;}
</style>
<title>logo_joyvox</title>
<g>
	<g>
		<rect class="st0" width="160" height="64"/>
	</g>
	<g>
		<g>
			<g>
				<path class="st1" d="M49.2,28.8c2.4,0,4.4,2,4.4,4.4s-2,4.4-4.4,4.4s-4.4-2-4.4-4.4S46.7,28.8,49.2,28.8 M49.2,23.2
					c-5.5,0-10,4.5-10,10s4.5,10,10,10s10-4.5,10-10S54.7,23.2,49.2,23.2L49.2,23.2z"/>
			</g>
		</g>
		<g>
			<path class="st1" d="M112,28.8c2.4,0,4.4,2,4.4,4.4s-2,4.4-4.4,4.4c-2.4,0-4.4-2-4.4-4.4S109.6,28.8,112,28.8 M112,23.2
				c-5.5,0-10,4.5-10,10s4.5,10,10,10c5.5,0,10-4.5,10-10S117.5,23.2,112,23.2L112,23.2z"/>
		</g>
		<g>
			<path class="st1" d="M28.3,43.2C28.3,43.2,28.3,43.2,28.3,43.2c-4.8,0-8.7-3.8-8.8-8.6c0-0.2,0.1-0.3,0.3-0.3l5,0
				c0.1,0,0.3,0.1,0.3,0.3c0.1,1.7,1.6,3.1,3.3,3.1c1.8,0,3.3-1.5,3.3-3.3l0-10.8c0-0.2,0.1-0.3,0.3-0.3l5,0c0.2,0,0.3,0.1,0.3,0.3
				l0,10.7c0,2.3-0.9,4.6-2.5,6.3C32.9,42.2,30.7,43.2,28.3,43.2z"/>
		</g>
		<path class="st1" d="M140.2,23.8h-4.6c-1.1,0-2.1,0.5-2.8,1.4l-2.6,3.5l-2.6-3.5c-0.7-0.9-1.7-1.4-2.8-1.4h-4.6
			c-0.2,0-0.4,0.3-0.2,0.4l6.7,9.2l-6.4,8.7c-0.1,0.2,0,0.4,0.2,0.4h4.6c1.1,0,2.1-0.5,2.8-1.4l2.3-3.1l0,0l0,0l3.4-4.7v7.8
			c0,0.8,0.6,1.4,1.4,1.4h4.8c0.2,0,0.4-0.3,0.2-0.4l-6.4-8.7l6.7-9.2C140.6,24,140.5,23.8,140.2,23.8z"/>
		<path class="st1" d="M102.6,23.8h-3.4c-1.4,0-2.6,0.8-3.2,2l-4.5,10l-4.5-10c-0.6-1.2-1.8-2-3.1-2h-3.4c-0.2,0-0.3,0.2-0.3,0.4
			l7.4,16.4c0.6,1.2,1.8,2,3.1,2h1.6c1.4,0,2.6-0.8,3.2-2l7.4-16.4C103,24,102.8,23.8,102.6,23.8z"/>
		<path class="st1" d="M79.1,23.8h-4.2c-1.2,0-2.2,0.6-2.9,1.6l-3.5,5.4l-3.5-5.4c-0.6-1-1.7-1.6-2.9-1.6h-4.2
			c-0.2,0-0.4,0.2-0.2,0.4l7.5,11.6l-4.2,6.4c-0.1,0.2,0,0.4,0.2,0.4h4.2c1.2,0,2.2-0.6,2.9-1.6l11.1-16.8
			C79.4,24,79.3,23.8,79.1,23.8z"/>
	</g>
</g>
</svg>
