<svg id="Calque_1" data-name="Calque 1" xmlns="http://www.w3.org/2000/svg" viewBox="0 0 160 64"><title>logo_rclv</title><path d="M93.48,46a1.33,1.33,0,0,0-1,.36,1.45,1.45,0,0,0-.33,1V49.6a1.72,1.72,0,0,0,.29,1.06,1.17,1.17,0,0,0,1,.38,2.39,2.39,0,0,0,.78-.13,1.85,1.85,0,0,0,.68-.42V47a1,1,0,0,0-.36-.8A1.61,1.61,0,0,0,93.48,46Z" style="fill:#333"/><path d="M100.8,21.55a1.43,1.43,0,0,0,1.11-.39,1.55,1.55,0,0,0,.36-1.09v-.94q0-.21,0-.41a4.94,4.94,0,0,0-.71-.29,2.38,2.38,0,0,0-.72-.11,1.56,1.56,0,0,0-1.19.42A1.71,1.71,0,0,0,99.27,20a1.77,1.77,0,0,0,.36,1.16A1.44,1.44,0,0,0,100.8,21.55Z" style="fill:#333"/><path d="M109.33,23.27a1.48,1.48,0,0,0,1.07-.35,1.3,1.3,0,0,0,.36-1V19.53a1.28,1.28,0,0,0-.36-1,1.82,1.82,0,0,0-2.14,0,1.28,1.28,0,0,0-.36,1V22a1.3,1.3,0,0,0,.36,1A1.47,1.47,0,0,0,109.33,23.27Z" style="fill:#333"/><path d="M94.09,37.33A1.47,1.47,0,0,0,95.17,37a1.3,1.3,0,0,0,.36-1V33.59a1.28,1.28,0,0,0-.36-1,1.82,1.82,0,0,0-2.14,0,1.28,1.28,0,0,0-.36,1V36A1.3,1.3,0,0,0,93,37,1.47,1.47,0,0,0,94.09,37.33Z" style="fill:#333"/><path d="M100.95,27.19a2.32,2.32,0,0,0,1.2-.28.91.91,0,0,0,.47-.83q0-.91-1.6-.91h-.32l-.46,0-.43,0a1.25,1.25,0,0,0-.4.91,1,1,0,0,0,.38.85A1.83,1.83,0,0,0,100.95,27.19Z" style="fill:#333"/><path d="M115.94,48a1.18,1.18,0,0,0,.9-.28,1.11,1.11,0,0,0,.25-.77,1.1,1.1,0,0,0-.3-.87,1.27,1.27,0,0,0-.86-.26,1.41,1.41,0,0,0-1,.32,1.12,1.12,0,0,0-.35.87V48l.78.07Z" style="fill:#333"/><path d="M124.06,23.27a1.48,1.48,0,0,0,1.07-.35,1.3,1.3,0,0,0,.36-1V19.53a1.28,1.28,0,0,0-.36-1,1.82,1.82,0,0,0-2.14,0,1.28,1.28,0,0,0-.36,1V22a1.3,1.3,0,0,0,.36,1A1.47,1.47,0,0,0,124.06,23.27Z" style="fill:#333"/><path d="M89.36,17a2,2,0,0,0-.08-.57,1.21,1.21,0,0,0-.3-.5,1.54,1.54,0,0,0-.59-.36,2.85,2.85,0,0,0-1-.14H85.59v3.09h1.93a2.11,2.11,0,0,0,1.37-.39A1.38,1.38,0,0,0,89.36,17Z" style="fill:#333"/><path d="M0,0V64H160V0ZM114.62,14.72a.75.75,0,0,1,.24-.55.86.86,0,0,1,1.19,0,.75.75,0,0,1,.24.55v8.53h2.56a.81.81,0,0,1,.56.22.7.7,0,0,1,.24.54.73.73,0,0,1-.24.55.8.8,0,0,1-.57.22h-3.32a.92.92,0,0,1-.64-.25.8.8,0,0,1-.27-.62Zm-8.36,4.83a3,3,0,0,1,.2-1.09,2.44,2.44,0,0,1,.59-.87,2.75,2.75,0,0,1,1-.59,4.24,4.24,0,0,1,2.65,0,2.74,2.74,0,0,1,1,.59,2.44,2.44,0,0,1,.59.87,3,3,0,0,1,.2,1.09V22a3,3,0,0,1-.2,1.09,2.42,2.42,0,0,1-.59.88,2.74,2.74,0,0,1-1,.59,4.24,4.24,0,0,1-2.65,0,2.75,2.75,0,0,1-1-.59,2.42,2.42,0,0,1-.59-.88,3,3,0,0,1-.2-1.09ZM93.45,14a1,1,0,0,1,1.36,0,.84.84,0,0,1,.28.63.9.9,0,0,1-.29.64,1,1,0,0,1-1.35,0,.87.87,0,0,1,0-1.27ZM95,17.6v6.34a.7.7,0,0,1-.24.55.91.91,0,0,1-1.17,0,.7.7,0,0,1-.24-.55V17.6a.72.72,0,0,1,.24-.53.87.87,0,0,1,1.17,0A.72.72,0,0,1,95,17.6Zm-3.15,14a2.75,2.75,0,0,1,1-.59,4.24,4.24,0,0,1,2.65,0,2.74,2.74,0,0,1,1,.59,2.44,2.44,0,0,1,.59.87,3,3,0,0,1,.2,1.09V36a3,3,0,0,1-.2,1.09,2.42,2.42,0,0,1-.59.88,2.73,2.73,0,0,1-1,.59,4.24,4.24,0,0,1-2.65,0,2.75,2.75,0,0,1-1-.59,2.42,2.42,0,0,1-.59-.88A3,3,0,0,1,91,36V33.6a3,3,0,0,1,.2-1.09A2.44,2.44,0,0,1,91.81,31.63ZM62.72,15.09l-1.51-3a.39.39,0,0,1,.42-.56l3.36.64a.31.31,0,0,0,.28-.09l2.12-2.31a.39.39,0,0,1,.67.21l.45,3.23a.31.31,0,0,0,.17.23l3,1.45a.39.39,0,0,1,0,.7l-3,1.44a.31.31,0,0,0-.17.23L68,20.57a.39.39,0,0,1-.65.22l-2.43-2.31a.31.31,0,0,0-.25-.08l-3.1.44a.39.39,0,0,1-.4-.57l1.54-2.91A.31.31,0,0,0,62.72,15.09Zm-9.3,39.25a20.69,20.69,0,1,1,0-41.39,21,21,0,0,1,2.72.18,1.59,1.59,0,0,1-.41,3.15,17.78,17.78,0,0,0-2.3-.15,17.51,17.51,0,0,0-.77,35,14.78,14.78,0,0,1,.23-9S44.78,36,43.51,32.91l0-.08A5.88,5.88,0,0,1,54,27.6a5.88,5.88,0,0,1,10.55,5.19v0c-1,2.79-6.11,6.71-8.32,8.52S53.9,47.41,55.63,51A17.54,17.54,0,0,0,70.94,33.64a17.32,17.32,0,0,0-1.92-8l2.83-1.45A20.7,20.7,0,0,1,53.42,54.34ZM89.68,52.1a.8.8,0,0,1-.57.22H84.83a.92.92,0,0,1-.64-.25.8.8,0,0,1-.27-.62v-9.2a.75.75,0,0,1,.24-.55.86.86,0,0,1,1.19,0,.75.75,0,0,1,.24.55v8.53h3.53a.81.81,0,0,1,.56.22.7.7,0,0,1,.24.54A.73.73,0,0,1,89.68,52.1ZM85.26,35.87a1.93,1.93,0,0,0,.34.78,1.54,1.54,0,0,0,.64.49,2.5,2.5,0,0,0,1,.17,2.46,2.46,0,0,0,1.38-.41l.08,0,.28-.17a.64.64,0,0,1,.33-.07.77.77,0,0,1,.55.21.68.68,0,0,1,.22.5.83.83,0,0,1-.24.57,2.11,2.11,0,0,1-.65.46,4.21,4.21,0,0,1-.94.31,5.11,5.11,0,0,1-1.09.11,4.27,4.27,0,0,1-1.63-.28,3,3,0,0,1-1.13-.79,3.28,3.28,0,0,1-.67-1.23,5.53,5.53,0,0,1-.22-1.62V31.72a5.56,5.56,0,0,1,.22-1.61,3.28,3.28,0,0,1,.67-1.24,3,3,0,0,1,1.13-.79,4.27,4.27,0,0,1,1.63-.28,5.11,5.11,0,0,1,1.09.11,4,4,0,0,1,.94.32,2.22,2.22,0,0,1,.65.47.82.82,0,0,1,.24.55.69.69,0,0,1-.22.52.77.77,0,0,1-.55.21.64.64,0,0,1-.33-.07l-.28-.17-.08,0a2.36,2.36,0,0,0-1.38-.43,2.5,2.5,0,0,0-1,.17,1.54,1.54,0,0,0-.64.49,1.93,1.93,0,0,0-.34.78,4.81,4.81,0,0,0-.1,1v3.13A4.81,4.81,0,0,0,85.26,35.87ZM89.6,24.35,87,20.07H85.59v3.86a.76.76,0,0,1-.25.56.83.83,0,0,1-.6.24.8.8,0,0,1-.58-.24.76.76,0,0,1-.24-.57V14.79a.88.88,0,0,1,.27-.64.89.89,0,0,1,.65-.27h2.65a4.5,4.5,0,0,1,1.68.27,3.07,3.07,0,0,1,1.09.71,2.54,2.54,0,0,1,.59,1A3.83,3.83,0,0,1,91,17a2.92,2.92,0,0,1-.6,1.92,3,3,0,0,1-1.63,1q.56.91,1.13,1.79T91,23.49a.4.4,0,0,1,.09.2,1.06,1.06,0,0,1,0,.21.73.73,0,0,1-.28.59.9.9,0,0,1-.59.24A.77.77,0,0,1,89.6,24.35Zm6.83,28a1.34,1.34,0,0,1-1.18-.63,4.56,4.56,0,0,1-1.19.55,3.41,3.41,0,0,1-1,.12,3.2,3.2,0,0,1-1.25-.21,2.08,2.08,0,0,1-.81-.59,2.25,2.25,0,0,1-.44-.9,4.63,4.63,0,0,1-.13-1.13V47.33a3.19,3.19,0,0,1,.19-1.11,2.49,2.49,0,0,1,.56-.9,2.55,2.55,0,0,1,.94-.59,3.73,3.73,0,0,1,1.32-.21,3.78,3.78,0,0,1,1.27.2,2.86,2.86,0,0,1,.94.54,2.33,2.33,0,0,1,.59.8,2.38,2.38,0,0,1,.2,1v3.66c0,.19,0,.32.1.37a.61.61,0,0,0,.27.11.51.51,0,0,1,.46.55Q97.33,52.38,96.43,52.38Zm1.34-26.19a2,2,0,0,1,.21-.92,2.75,2.75,0,0,1,.67-.81,1.92,1.92,0,0,1-.3-.63,2.38,2.38,0,0,1-.08-.59,1.71,1.71,0,0,1,.11-.56,1.48,1.48,0,0,1,.18-.34l-.11-.08a3,3,0,0,1-1-2.33,3.67,3.67,0,0,1,.2-1.23,2.69,2.69,0,0,1,.6-1,2.76,2.76,0,0,1,1-.65,3.66,3.66,0,0,1,1.36-.23,4.56,4.56,0,0,1,1.16.14,4.64,4.64,0,0,1,1.06.42,2.09,2.09,0,0,1,.69-.71,1.41,1.41,0,0,1,.71-.23.88.88,0,0,1,.58.22.7.7,0,0,1,.27.56.56.56,0,0,1-.07.28.87.87,0,0,1-.13.18l-.25.25-.27.29a1.52,1.52,0,0,0-.17.24.79.79,0,0,0-.09.26,1.89,1.89,0,0,0,0,.32v1a3.48,3.48,0,0,1-.2,1.2,2.46,2.46,0,0,1-.62.95,3,3,0,0,1-1,.63,4.08,4.08,0,0,1-1.45.23,5,5,0,0,1-.57,0,2.64,2.64,0,0,1-.42-.09v0a1,1,0,0,0,0,.24.48.48,0,0,0,.21.46.87.87,0,0,0,.41.11H101a5.74,5.74,0,0,1,1.29.14,3.28,3.28,0,0,1,1,.42A2.1,2.1,0,0,1,104,25a2,2,0,0,1,.25,1A2.19,2.19,0,0,1,104,27.1a2.44,2.44,0,0,1-.7.8,3.26,3.26,0,0,1-1.06.51,4.84,4.84,0,0,1-1.34.17,4.58,4.58,0,0,1-1.28-.17,3.18,3.18,0,0,1-1-.47A2.1,2.1,0,0,1,98,27.2,2.2,2.2,0,0,1,97.77,26.18Zm10.63,16.2a.65.65,0,0,1,0,.14l-3,9a1.83,1.83,0,0,1-.36.66.86.86,0,0,1-.67.25.82.82,0,0,1-.66-.26,1.81,1.81,0,0,1-.34-.65l-3-9a.29.29,0,0,1,0-.14c0-.06,0-.11,0-.14a.71.71,0,0,1,.26-.57.91.91,0,0,1,.61-.22.84.84,0,0,1,.46.16A.82.82,0,0,1,102,42q.62,2,1.25,3.95t1.11,4l.21-.9q.11-.46.24-.89l1.9-6.11a.73.73,0,0,1,.33-.42.9.9,0,0,1,1.1.06.73.73,0,0,1,.24.57S108.4,42.33,108.4,42.39Zm.14-4.39a.76.76,0,0,1-.21.54,1,1,0,0,1-1.23,0,.76.76,0,0,1-.21-.54V33.53a1.35,1.35,0,0,0-.29-.87,1,1,0,0,0-.85-.36,1.72,1.72,0,0,0-.77.18,2.52,2.52,0,0,0-.68.49,2,2,0,0,1,0,.26,2.51,2.51,0,0,1,0,.27V38a.76.76,0,0,1-.21.54,1,1,0,0,1-1.23,0,.76.76,0,0,1-.21-.54V33.83a4.64,4.64,0,0,0,0-.62,1.37,1.37,0,0,0-.15-.49.82.82,0,0,0-.31-.32,1.06,1.06,0,0,0-.53-.11,2.29,2.29,0,0,0-.79.14,3.76,3.76,0,0,0-.73.36,1.61,1.61,0,0,1,0,.16q0,.08,0,.16V38a.76.76,0,0,1-.21.54,1,1,0,0,1-1.23,0,.76.76,0,0,1-.21-.54V33.11q0-.24,0-.39a1,1,0,0,0,0-.23.44.44,0,0,0-.07-.13l-.07-.11a2.24,2.24,0,0,1-.14-.23.47.47,0,0,1,0-.21.65.65,0,0,1,.23-.52.81.81,0,0,1,.55-.2.72.72,0,0,1,.4.11,1,1,0,0,1,.3.3,4.86,4.86,0,0,1,1.06-.49,3.51,3.51,0,0,1,1.09-.17,2.51,2.51,0,0,1,1,.18,2.44,2.44,0,0,1,.78.53,5.07,5.07,0,0,1,1.08-.53,3.59,3.59,0,0,1,1.17-.18,2.68,2.68,0,0,1,2,.73,2.62,2.62,0,0,1,.71,1.92Zm2.34,13.67a.7.7,0,0,1-.24.55.91.91,0,0,1-1.17,0,.7.7,0,0,1-.24-.55V45.32a.72.72,0,0,1,.24-.53.87.87,0,0,1,1.17,0,.72.72,0,0,1,.24.53ZM110.72,43a1,1,0,0,1-1.35,0,.87.87,0,0,1,0-1.27,1,1,0,0,1,1.36,0,.84.84,0,0,1,.28.63A.9.9,0,0,1,110.72,43Zm4.23,7.75A1.61,1.61,0,0,0,116,51a2.5,2.5,0,0,0,.76-.11,7.16,7.16,0,0,0,.71-.27.26.26,0,0,1,.11-.05l.22,0a.67.67,0,0,1,.57.23.75.75,0,0,1,.17.46.68.68,0,0,1-.3.57,2.48,2.48,0,0,1-.71.36,4.48,4.48,0,0,1-.88.19,7.17,7.17,0,0,1-.8.05,3.66,3.66,0,0,1-1.25-.2,2.62,2.62,0,0,1-.92-.55,2.35,2.35,0,0,1-.57-.83,2.66,2.66,0,0,1-.2-1V47.15a2.7,2.7,0,0,1,.2-1,2.31,2.31,0,0,1,.58-.83,2.78,2.78,0,0,1,.94-.55,3.76,3.76,0,0,1,1.29-.21,2.79,2.79,0,0,1,2.07.69,2.49,2.49,0,0,1,.68,1.83,2.17,2.17,0,0,1-.65,1.68,3.07,3.07,0,0,1-2.11.6l-.65,0q-.33,0-.7-.08v.7A1,1,0,0,0,114.95,50.74ZM120.14,38a.76.76,0,0,1-.21.54,1,1,0,0,1-1.23,0,.76.76,0,0,1-.21-.54V33.53a1.35,1.35,0,0,0-.29-.87,1,1,0,0,0-.85-.36,1.72,1.72,0,0,0-.77.18,2.52,2.52,0,0,0-.68.49,2,2,0,0,1,0,.26,2.52,2.52,0,0,1,0,.27V38a.76.76,0,0,1-.21.54,1,1,0,0,1-1.23,0,.76.76,0,0,1-.21-.54V33.83a4.65,4.65,0,0,0,0-.62,1.38,1.38,0,0,0-.15-.49.82.82,0,0,0-.31-.32,1.06,1.06,0,0,0-.53-.11,2.29,2.29,0,0,0-.79.14,3.76,3.76,0,0,0-.73.36q0,.08,0,.16c0,.06,0,.11,0,.16V38a.76.76,0,0,1-.21.54,1,1,0,0,1-1.23,0,.76.76,0,0,1-.21-.54V33.11q0-.24,0-.39a1,1,0,0,0,0-.23.44.44,0,0,0-.07-.13l-.07-.11a2.24,2.24,0,0,1-.14-.23.47.47,0,0,1,0-.21.65.65,0,0,1,.23-.52.81.81,0,0,1,.55-.2.72.72,0,0,1,.4.11,1,1,0,0,1,.3.3,4.86,4.86,0,0,1,1.06-.49,3.51,3.51,0,0,1,1.09-.17,2.51,2.51,0,0,1,1,.18,2.44,2.44,0,0,1,.78.53,5.07,5.07,0,0,1,1.08-.53,3.59,3.59,0,0,1,1.17-.18,2.68,2.68,0,0,1,2,.73,2.62,2.62,0,0,1,.71,1.92ZM121,22v-2.4a3,3,0,0,1,.2-1.09,2.44,2.44,0,0,1,.59-.87,2.75,2.75,0,0,1,1-.59,4.24,4.24,0,0,1,2.65,0,2.74,2.74,0,0,1,1,.59,2.44,2.44,0,0,1,.59.87,3,3,0,0,1,.2,1.09V22a3,3,0,0,1-.2,1.09,2.42,2.42,0,0,1-.59.88,2.73,2.73,0,0,1-1,.59,4.24,4.24,0,0,1-2.65,0,2.75,2.75,0,0,1-1-.59,2.42,2.42,0,0,1-.59-.88A3,3,0,0,1,121,22Zm3.94,30.21a1,1,0,0,1-.73.3,1,1,0,0,1-.74-.3,1,1,0,0,1-.3-.71.94.94,0,0,1,.3-.69,1,1,0,0,1,.74-.3,1,1,0,0,1,.73.3.94.94,0,0,1,.3.69A1,1,0,0,1,124.93,52.17Zm-1.6-9.91a.76.76,0,0,1,.24-.55.84.84,0,0,1,1.19,0,.76.76,0,0,1,.24.55l-.15,6.8a.69.69,0,0,1-.22.47.67.67,0,0,1-1.15-.47Zm.16-5.18a1.61,1.61,0,0,0,1.08.3,2.5,2.5,0,0,0,.76-.11,7.16,7.16,0,0,0,.71-.27.26.26,0,0,1,.11-.05l.22,0a.67.67,0,0,1,.57.23.75.75,0,0,1,.17.46.68.68,0,0,1-.3.57,2.48,2.48,0,0,1-.71.36,4.48,4.48,0,0,1-.88.19,7.17,7.17,0,0,1-.8.05,3.66,3.66,0,0,1-1.25-.2,2.62,2.62,0,0,1-.92-.55,2.35,2.35,0,0,1-.57-.83,2.66,2.66,0,0,1-.2-1V33.48a2.7,2.7,0,0,1,.2-1,2.31,2.31,0,0,1,.58-.83,2.78,2.78,0,0,1,.94-.55,3.76,3.76,0,0,1,1.29-.21,2.79,2.79,0,0,1,2.07.69,2.49,2.49,0,0,1,.68,1.83,2.17,2.17,0,0,1-.65,1.68,3.07,3.07,0,0,1-2.11.6l-.65,0q-.33,0-.7-.08v.7A1,1,0,0,0,123.5,37.07Z" style="fill:#333"/><path d="M124.49,34.38a1.18,1.18,0,0,0,.9-.28,1.11,1.11,0,0,0,.25-.77,1.1,1.1,0,0,0-.3-.87,1.27,1.27,0,0,0-.86-.26,1.41,1.41,0,0,0-1,.32,1.11,1.11,0,0,0-.35.87v.9l.78.07Z" style="fill:#333"/></svg>