<svg id="Calque_1" data-name="Calque 1" xmlns="http://www.w3.org/2000/svg" viewBox="0 0 160 64"><title>logo_obaibi</title><path d="M98.32,17.45A1.72,1.72,0,1,0,100,19.18,1.72,1.72,0,0,0,98.32,17.45Z" style="fill:#221f1f"/><path d="M104,17.45a1.72,1.72,0,1,0,1.73,1.72A1.72,1.72,0,0,0,104,17.45Z" style="fill:#221f1f"/><path d="M130.75,17.45a1.72,1.72,0,1,0,1.7,1.72A1.69,1.69,0,0,0,130.75,17.45Z" style="fill:#221f1f"/><path d="M101.15,22.83a1.63,1.63,0,0,0-1.63,1.63V41.13a1.63,1.63,0,0,0,3.26,0V24.45A1.62,1.62,0,0,0,101.15,22.83Z" style="fill:#221f1f"/><path d="M130.79,22.83a1.62,1.62,0,0,0-1.63,1.63V41.13a1.62,1.62,0,0,0,3.25,0V24.45A1.62,1.62,0,0,0,130.79,22.83Z" style="fill:#221f1f"/><path d="M123.11,32.55a6.82,6.82,0,0,0,1.52-1.17h0A4.5,4.5,0,0,0,126,28.09c-.08-3.36-3.94-5.71-9.39-5.71h-.23a13.64,13.64,0,0,0-6.42,1.51,1.63,1.63,0,0,0-3.19.5V41.13a1.63,1.63,0,0,0,1.64,1.62,1.65,1.65,0,0,0,1.6-1.36,13.32,13.32,0,0,0,6.37,1.43h.22c3.43-.06,6.44-1.08,8-2.76h0A4.5,4.5,0,0,0,126,36.77,5.07,5.07,0,0,0,123.11,32.55ZM110.29,27c1.07-1.11,3.46-1.86,6.11-1.89h.19c3.7,0,6.61,1.35,6.65,3.06a1.76,1.76,0,0,1-.58,1.32c-1.08,1.11-3.47,1.86-6.1,1.9h-.19c-3.7,0-6.62-1.35-6.66-3.09A1.83,1.83,0,0,1,110.29,27Zm12.36,11.15c-1.08,1.12-3.47,1.87-6.1,1.89h-.19c-3.7,0-6.62-1.35-6.66-3.06a1.81,1.81,0,0,1,.59-1.31c1.07-1.13,3.46-1.87,6.11-1.9h.19c3.7,0,6.61,1.35,6.65,3.06A1.7,1.7,0,0,1,122.65,38.16Z" style="fill:#221f1f"/><path d="M93.8,22.77a1.61,1.61,0,0,0-1.61,1.62v.89a12.13,12.13,0,0,0-7.88-2.83c-6.28,0-11.4,4.56-11.4,10.17S78,42.76,84.31,42.76a12.2,12.2,0,0,0,7.88-2.82V41.1a1.62,1.62,0,1,0,3.24,0V24.39A1.62,1.62,0,0,0,93.8,22.77ZM84.31,39.88c-4.49,0-8.14-3.26-8.14-7.27s3.65-7.27,8.14-7.27,8.14,3.25,8.14,7.27S88.8,39.88,84.31,39.88Z" style="fill:#221f1f"/><path d="M68.13,32.55a7,7,0,0,0,1.51-1.17h0A4.51,4.51,0,0,0,71,28.09c-.09-3.36-4-5.71-9.38-5.71h-.23a13.8,13.8,0,0,0-6.44,1.51,1.59,1.59,0,0,0-1.54-1.12,1.62,1.62,0,0,0-1.63,1.62V41.13a1.63,1.63,0,0,0,3.24.27,13.5,13.5,0,0,0,6.38,1.42h.22c3.43-.06,6.44-1.08,8-2.76h0A4.5,4.5,0,0,0,71,36.77,5.07,5.07,0,0,0,68.13,32.55ZM55.3,27c1.07-1.11,3.46-1.86,6.1-1.89h.2c3.69,0,6.61,1.35,6.65,3.06a1.82,1.82,0,0,1-.59,1.32c-1.08,1.11-3.47,1.86-6.11,1.9h-.19c-3.68,0-6.63-1.35-6.67-3.09A1.82,1.82,0,0,1,55.3,27ZM67.67,38.16c-1.08,1.12-3.47,1.87-6.11,1.91h-.19c-3.68,0-6.63-1.35-6.67-3.06a1.78,1.78,0,0,1,.6-1.31c1.07-1.13,3.46-1.87,6.1-1.9h.2c3.69,0,6.61,1.35,6.65,3.07A1.75,1.75,0,0,1,67.67,38.16Z" style="fill:#221f1f"/><path d="M37.4,22.19c-6.45,0-11.71,4.68-11.71,10.43S30.95,43,37.4,43s11.7-4.67,11.7-10.42S43.84,22.19,37.4,22.19Zm0,18c-4.67,0-8.46-3.39-8.46-7.55s3.79-7.55,8.46-7.55,8.44,3.39,8.44,7.55S42.06,40.16,37.4,40.16Z" style="fill:#221f1f"/></svg>