<svg id="Calque_1" data-name="Calque 1" xmlns="http://www.w3.org/2000/svg" viewBox="0 0 64 64"><title>map</title><path d="M25,40a1,1,0,0,1-.75-1.66c.09-.11,9.27-10.67,9.27-17.82A8.53,8.53,0,0,0,25,12a1,1,0,0,1,0-2A10.53,10.53,0,0,1,35.56,20.52c0,7.9-9.37,18.68-9.77,19.14A1,1,0,0,1,25,40Z" style="fill:#1d212b"/><path d="M25,40a1,1,0,0,1-.75-.34c-.4-.46-9.77-11.24-9.77-19.14A10.53,10.53,0,0,1,25,10a1,1,0,0,1,0,2,8.53,8.53,0,0,0-8.52,8.52c0,7.15,9.18,17.72,9.27,17.82A1,1,0,0,1,25,40Z" style="fill:#1d212b"/><path d="M25,25.33a4.73,4.73,0,1,1,3.42-1.46,1,1,0,0,1-1.41,0l-.13-.15a1,1,0,0,1,.07.18,1,1,0,0,1-.7,1.23A4.72,4.72,0,0,1,25,25.33Zm1-2.13a1,1,0,0,1,.82.42,1,1,0,0,1,.17-1.13,2.72,2.72,0,1,0-1.25.75A1,1,0,0,1,25.94,23.2Z" style="fill:#1d212b"/><path d="M9.5,53.5a1,1,0,0,1-1-1v-36a1,1,0,0,1,.81-1l4.59-.89a1,1,0,1,1,.38,2l-3.78.73v34L24,48.67V42a1,1,0,0,1,2,0v7.5a1,1,0,0,1-.81,1l-15.5,3Z" style="fill:#1d212b"/><path d="M40.5,53.5l-.19,0-15.5-3a1,1,0,0,1-.81-1V42a1,1,0,0,1,2,0v6.67l13.5,2.61v-34l-3.09-.6a1,1,0,1,1,.38-2l3.9.75a1,1,0,0,1,.81,1v36a1,1,0,0,1-1,1Z" style="fill:#1d212b"/><path d="M40.5,53.5a1,1,0,0,1-1-1v-36a1,1,0,0,1,.81-1l15.5-3a1,1,0,0,1,1.19,1v36a1,1,0,0,1-.81,1l-15.5,3Zm1-36.17v34L55,48.67v-34ZM56,49.5h0Z" style="fill:#1d212b"/></svg>