<svg id="Calque_1" data-name="Calque 1" xmlns="http://www.w3.org/2000/svg" viewBox="0 0 64 64"><title>marker</title><path d="M32.28,51.54h-.56l-.15-.17C31,50.76,18.5,36.33,18.5,25.9A13.46,13.46,0,0,1,31.95,12.46h.11A13.46,13.46,0,0,1,45.5,25.9C45.5,36.33,33,50.76,32.43,51.37Zm-.33-38.08A12.46,12.46,0,0,0,19.5,25.9C19.5,35.05,30,48,32,50.33,34,48,44.5,35,44.5,25.9A12.46,12.46,0,0,0,32.05,13.46Z" style="fill:#1d212b"/><path d="M32,32.57a5.57,5.57,0,1,1,4-1.72l-.72-.69A4.57,4.57,0,1,0,32,31.57a4.62,4.62,0,0,0,1.2-.16l.26,1A5.61,5.61,0,0,1,32,32.57Z" style="fill:#1d212b"/></svg>