<svg id="Calque_1" data-name="Calque 1" xmlns="http://www.w3.org/2000/svg" viewBox="0 0 64 64"><title>marker</title><path d="M32.51,52h-1l-.3-.34C30.66,51.09,18,36.52,18,25.9A14,14,0,0,1,31.95,12h.11A14,14,0,0,1,46,25.9c0,10.61-12.66,25.18-13.19,25.8ZM31.95,14A12,12,0,0,0,20,25.9c0,8.5,9.34,20.42,12,23.65C34.66,46.33,44,34.4,44,25.9A12,12,0,0,0,32.05,14Z" style="fill:#1d212b"/><path d="M32,33.07a6.07,6.07,0,1,1,4.39-1.87l-1.45-1.38A4.07,4.07,0,1,0,32,31.07a4.1,4.1,0,0,0,1.07-.14l.52,1.93A6.12,6.12,0,0,1,32,33.07Z" style="fill:#1d212b"/></svg>