<svg id="Calque_1" data-name="Calque 1" xmlns="http://www.w3.org/2000/svg" viewBox="0 0 64 64"><title>mobile</title><path d="M37.89,50H26.11a4.62,4.62,0,0,1-4.61-4.61V17.61A4.62,4.62,0,0,1,26.11,13H37.89a4.62,4.62,0,0,1,4.61,4.61.5.5,0,1,1-1,0A3.62,3.62,0,0,0,37.89,14H26.11a3.62,3.62,0,0,0-3.61,3.61V45.39A3.62,3.62,0,0,0,26.11,49H37.89a3.62,3.62,0,0,0,3.61-3.61V22.88a.5.5,0,0,1,1,0V45.39A4.62,4.62,0,0,1,37.89,50Z" style="fill:#1d212b"/><path d="M38.5,41h-13a.5.5,0,0,1-.5-.5v-22a.5.5,0,0,1,.5-.5h13a.5.5,0,0,1,.5.5v2a.5.5,0,0,1-1,0V19H26V40H38V24.92a.5.5,0,1,1,1,0V40.5A.5.5,0,0,1,38.5,41Z" style="fill:#1d212b"/><path d="M32,47a2.5,2.5,0,0,1,0-5,.5.5,0,0,1,0,1,1.5,1.5,0,1,0,1.5,1.5.5.5,0,0,1,1,0A2.5,2.5,0,0,1,32,47Z" style="fill:#1d212b"/></svg>