<svg id="Calque_1" data-name="Calque 1" xmlns="http://www.w3.org/2000/svg" viewBox="0 0 64 64"><title>mobile</title><path d="M37.89,50.5H26.11A5.12,5.12,0,0,1,21,45.39V17.61a5.12,5.12,0,0,1,5.11-5.11H37.89A5.12,5.12,0,0,1,43,17.61a1,1,0,1,1-2,0,3.12,3.12,0,0,0-3.11-3.11H26.11A3.12,3.12,0,0,0,23,17.61V45.39a3.12,3.12,0,0,0,3.11,3.11H37.89A3.12,3.12,0,0,0,41,45.39V22.88a1,1,0,0,1,2,0V45.39A5.12,5.12,0,0,1,37.89,50.5Z" style="fill:#1d212b"/><path d="M37.32,37.5H26.68a1,1,0,0,1-1-1v-18a1,1,0,0,1,1-1H37.32a1,1,0,0,1,1,1v1.64a1,1,0,0,1-2,0V19.5H27.68v16h8.64V23.75a1,1,0,0,1,2,0V36.5A1,1,0,0,1,37.32,37.5Z" style="fill:#1d212b"/><path d="M32,46.5a3,3,0,0,1,0-6,1,1,0,0,1,0,2,1,1,0,1,0,1,1,1,1,0,0,1,2,0A3,3,0,0,1,32,46.5Z" style="fill:#1d212b"/></svg>