<svg id="Calque_1" data-name="Calque 1" xmlns="http://www.w3.org/2000/svg" viewBox="0 0 64 64"><title>padlock</title><path d="M32,46.53a.5.5,0,0,1-.5-.5V42.37a.5.5,0,0,1,1,0V46A.5.5,0,0,1,32,46.53Z" style="fill:#1d212b"/><path d="M47.66,52.64H16.34a.5.5,0,0,1-.5-.5V30.57a.5.5,0,0,1,.5-.5H47.66a.5.5,0,0,1,.5.5V52.14A.5.5,0,0,1,47.66,52.64Zm-30.83-1H47.16V31.07H16.84Z" style="fill:#1d212b"/><path d="M22.49,31a.5.5,0,0,1-.5-.5V20.94a9.59,9.59,0,0,1,9.58-9.58h.87A9.59,9.59,0,0,1,42,20.94V26a.5.5,0,0,1-1,0V20.94a8.59,8.59,0,0,0-8.58-8.58h-.87A8.59,8.59,0,0,0,23,20.94v9.57A.5.5,0,0,1,22.49,31Z" style="fill:#1d212b"/><circle cx="31.98" cy="40.89" r="1.84" style="fill:#1d212b"/></svg>