<svg id="Calque_1" data-name="Calque 1" xmlns="http://www.w3.org/2000/svg" viewBox="0 0 64 64"><title>padlock</title><path d="M32,47a1,1,0,0,1-1-1V42.37a1,1,0,1,1,2,0V46A1,1,0,0,1,32,47Z" style="fill:#1d212b"/><path d="M47.66,53.14H16.34a1,1,0,0,1-1-1V30.57a1,1,0,0,1,1-1H47.66a1,1,0,0,1,1,1V52.14A1,1,0,0,1,47.66,53.14Zm-30.33-2H46.66V31.57H17.34Z" style="fill:#1d212b"/><path d="M22.49,31.51a1,1,0,0,1-1-1V20.94A10.09,10.09,0,0,1,31.57,10.86h.87A10.09,10.09,0,0,1,42.51,20.94V26a1,1,0,0,1-2,0V20.94a8.09,8.09,0,0,0-8.08-8.08h-.87a8.09,8.09,0,0,0-8.08,8.08v9.57A1,1,0,0,1,22.49,31.51Z" style="fill:#1d212b"/><circle cx="31.98" cy="40.89" r="1.84" style="fill:#1d212b"/></svg>