<svg id="Calque_1" data-name="Calque 1" xmlns="http://www.w3.org/2000/svg" viewBox="0 0 64 64"><title>pencil</title><path d="M24.57,46.28a.5.5,0,0,1-.35-.15l-6.36-6.36a.5.5,0,0,1,0-.71L42.7,14.23a.5.5,0,0,1,.71,0l6.36,6.36a.5.5,0,0,1,0,.71L24.93,46.14A.5.5,0,0,1,24.57,46.28Zm-5.66-6.86,5.66,5.66L48.71,20.94,43,15.29Z" style="fill:#1d212b"/><path d="M14.59,49.92a.5.5,0,0,1-.47-.67l3.63-10a.5.5,0,0,1,.82-.18l6.36,6.36a.5.5,0,0,1-.18.82l-10,3.63A.49.49,0,0,1,14.59,49.92Zm3.83-9.58-3,8.25,8.25-3Z" style="fill:#1d212b"/><polygon points="16.42 44.03 19.98 47.59 15.37 48.64 16.42 44.03" style="fill:#1d212b"/><path d="M43.11,22.55a.5.5,0,0,1-.35-.15L39,18.64a.5.5,0,0,1,.71-.71l3.76,3.76a.5.5,0,0,1-.35.85Z" style="fill:#1d212b"/></svg>