<svg id="Calque_1" data-name="Calque 1" xmlns="http://www.w3.org/2000/svg" viewBox="0 0 64 64"><title>pencil</title><path d="M24.57,46.78a1,1,0,0,1-.71-.29L17.5,40.13a1,1,0,0,1,0-1.41L42.34,13.87a1,1,0,0,1,1.41,0l6.36,6.36a1,1,0,0,1,0,1.41L25.28,46.49A1,1,0,0,1,24.57,46.78Zm-4.95-7.36,4.95,4.95L48,20.94,43,16Z" style="fill:#1d212b"/><path d="M14.59,50.42a1,1,0,0,1-.94-1.34l3.63-10a1,1,0,0,1,1.65-.37l6.36,6.36a1,1,0,0,1-.37,1.65l-10,3.63A1,1,0,0,1,14.59,50.42Zm4-9.17-2.36,6.5,6.5-2.36Z" style="fill:#1d212b"/><polygon points="16.42 44.03 19.98 47.59 15.37 48.64 16.42 44.03" style="fill:#1d212b"/><path d="M43.11,23a1,1,0,0,1-.71-.29L38.64,19a1,1,0,0,1,1.41-1.41l3.76,3.76A1,1,0,0,1,43.11,23Z" style="fill:#1d212b"/></svg>