<svg id="Calque_1" data-name="Calque 1" xmlns="http://www.w3.org/2000/svg" viewBox="0 0 64 64"><title>phone</title><path d="M38.21,50.61c-3.94,0-11.65-1.62-18.1-12.8-8.9-15.42-.86-23.82-.52-24.17a1,1,0,0,1,.21-.16l3.14-1.81a1,1,0,1,1,1,1.73l-3,1.74c-.83.92-6.82,8.29.91,21.67S38.93,48.69,40.16,48.43l5.74-3.31-5.51-9.55-5.69,3.29-.14.07c-1,.4-2.89-.32-6.12-5.92s-3-7.76-2.49-8.46a1,1,0,0,1,.32-.29L32,21,26.17,11a1,1,0,0,1,1.73-1l6.28,10.88a1,1,0,0,1-.37,1.37l-6.17,3.56c0,.57.25,2.3,2.52,6.23s3.44,4.73,3.84,4.94l6.25-3.61a1,1,0,0,1,1.37.37L48.13,45a1,1,0,0,1-.37,1.37L41,50.24a1,1,0,0,1-.25.1A10.85,10.85,0,0,1,38.21,50.61Z" style="fill:#1d212b"/></svg>