<svg id="Calque_1" data-name="Calque 1" xmlns="http://www.w3.org/2000/svg" viewBox="0 0 64 64"><title>picture</title><path d="M40.86,42.85H15.08a1,1,0,0,1-1-1V15.48a1,1,0,0,1,1-1H48.92a1,1,0,0,1,1,1l-.07,17.63a1,1,0,0,1-1.71.7L40,25.68l-7,7,8.51,8.51a1,1,0,0,1-.71,1.71Zm-24.77-2H38.44L26.52,28.93,16.08,39.37Zm0-24.37V36.54l9.73-9.73a1,1,0,0,1,1.41,0l4.41,4.41,7.66-7.66a1,1,0,0,1,1.41,0l7.14,7.14.05-14.23Z" style="fill:#1d212b"/><path d="M32.54,26.23a3.65,3.65,0,1,1,3.65-3.65A3.65,3.65,0,0,1,32.54,26.23Zm0-5.3a1.65,1.65,0,1,0,1.65,1.65A1.65,1.65,0,0,0,32.54,20.93Z" style="fill:#1d212b"/><path d="M53.74,54.74H10.26a1,1,0,0,1-1-1V10.26a1,1,0,0,1,1-1H53.74a1,1,0,0,1,1,1V16a1,1,0,0,1-2,0V11.26H11.26V52.74H52.74V25.19a1,1,0,0,1,2,0V53.74A1,1,0,0,1,53.74,54.74Z" style="fill:#1d212b"/></svg>