<svg id="Calque_1" data-name="Calque 1" xmlns="http://www.w3.org/2000/svg" viewBox="0 0 64 64"><title>postalbox</title><path d="M35.56,51.74H28.44a.5.5,0,0,1-.5-.5V36.59a.5.5,0,0,1,.5-.5h7.12a.5.5,0,0,1,.5.5V51.24A.5.5,0,0,1,35.56,51.74Zm-6.62-1h6.12V37.09H28.94Z" style="fill:#1d212b"/><path d="M33.9,37.09H15.39a.5.5,0,0,1-.5-.5V22A9.76,9.76,0,1,1,34.4,22v7a.5.5,0,0,1-1,0V22a8.76,8.76,0,1,0-17.51,0V36.09h18a.5.5,0,0,1,0,1Z" style="fill:#1d212b"/><path d="M48.61,37.09H34.1a.5.5,0,0,1,0-1h14V22a8.77,8.77,0,0,0-8.76-8.76H24.64a.5.5,0,1,1,0-1H39.36A9.77,9.77,0,0,1,49.11,22V36.59A.5.5,0,0,1,48.61,37.09Z" style="fill:#1d212b"/><path d="M26.35,27.63H16.56a.5.5,0,0,1-.47-.67,11.1,11.1,0,0,1,2.69-3.86.5.5,0,0,1,.33-.13c9.91-.08,9.94,0,10.14.15a.5.5,0,0,1,0,.72,10.25,10.25,0,0,0-2.42,3.45A.5.5,0,0,1,26.35,27.63Zm-9-1H26a10.34,10.34,0,0,1,1.75-2.69c-1.84,0-5.65,0-8.44,0A11,11,0,0,0,17.32,26.63Z" style="fill:#1d212b"/><path d="M28.94,26h-1.7a.5.5,0,0,1,0-1h1.2V22.3H19.62v1.16a.5.5,0,0,1-1,0V21.8a.5.5,0,0,1,.5-.5h9.82a.5.5,0,0,1,.5.5v3.67A.5.5,0,0,1,28.94,26Z" style="fill:#1d212b"/><path d="M32.61,46a.5.5,0,0,1-.5-.5V36.61a.5.5,0,0,1,1,0v8.93A.5.5,0,0,1,32.61,46Z" style="fill:#1d212b"/></svg>