<svg id="Calque_1" data-name="Calque 1" xmlns="http://www.w3.org/2000/svg" viewBox="0 0 64 64"><title>postalbox</title><path d="M35.56,52.24H28.44a1,1,0,0,1-1-1V36.59a1,1,0,0,1,1-1h7.12a1,1,0,0,1,1,1V51.24A1,1,0,0,1,35.56,52.24Zm-6.12-2h5.12V37.59H29.44Z" style="fill:#1d212b"/><path d="M33.9,37.59H15.39a1,1,0,0,1-1-1V22A10.26,10.26,0,1,1,34.9,22v7a1,1,0,0,1-2,0V22a8.26,8.26,0,1,0-16.51,0V35.59H33.9a1,1,0,0,1,0,2Z" style="fill:#1d212b"/><path d="M48.61,37.59H34.1a1,1,0,0,1,0-2H47.61V22a8.27,8.27,0,0,0-8.26-8.26H24.64a1,1,0,1,1,0-2H39.36A10.27,10.27,0,0,1,49.61,22V36.59A1,1,0,0,1,48.61,37.59Z" style="fill:#1d212b"/><path d="M26.35,28.13H16.56a1,1,0,0,1-.94-1.34,11.67,11.67,0,0,1,2.82-4.06,1,1,0,0,1,.66-.26c10.11-.09,10.12-.09,10.5.29a1,1,0,0,1,0,1.45,9.76,9.76,0,0,0-2.29,3.25A1,1,0,0,1,26.35,28.13Zm-8.16-2h7.49a10.23,10.23,0,0,1,1-1.69l-7.19,0A11.28,11.28,0,0,0,18.19,26.13Z" style="fill:#1d212b"/><path d="M28.94,26.47h-1.7a1,1,0,0,1,0-2h.7V22.8H20.12v.66a1,1,0,0,1-2,0V21.8a1,1,0,0,1,1-1h9.82a1,1,0,0,1,1,1v3.67A1,1,0,0,1,28.94,26.47Z" style="fill:#1d212b"/><path d="M32.61,46.54a1,1,0,0,1-1-1V36.61a1,1,0,0,1,2,0v8.93A1,1,0,0,1,32.61,46.54Z" style="fill:#1d212b"/></svg>