<svg id="Calque_1" data-name="Calque 1" xmlns="http://www.w3.org/2000/svg" viewBox="0 0 64 64"><title>quote</title><path d="M28.5,45.86a3.89,3.89,0,0,1-2.62-1c-1-.66-7-4.87-10.91-14.75l-.12-.28-.13-.32a1,1,0,0,1-.07-.36,8.26,8.26,0,0,1-.37-2.39,8.6,8.6,0,1,1,17.2,0,1,1,0,0,1-2,0,6.6,6.6,0,0,0-13.2,0,6.54,6.54,0,0,0,.37,2.08,1,1,0,0,1,0,.24l.09.23C20.64,39,26.38,42.8,27,43.21l.16.12a1.91,1.91,0,1,0,2.55-2.83l-.08-.08c-4.06-3.68-1.45-9.59-.89-10.74a1,1,0,0,1,1.79.88c-.46.93-2.58,5.7.49,8.42l.05.05a3.9,3.9,0,0,1-2.6,6.83Z" style="fill:#1d212b"/><path d="M45.8,45.86a3.89,3.89,0,0,1-2.62-1c-1-.65-7-4.87-10.91-14.75l-.11-.28L32,29.49a1,1,0,0,1-.07-.36,8.22,8.22,0,0,1-.37-2.39,8.6,8.6,0,0,1,17.2,0,1,1,0,0,1-2,0,6.6,6.6,0,0,0-13.2,0A6.5,6.5,0,0,0,34,28.82a1,1,0,0,1,0,.24l.09.23C37.94,39,43.68,42.8,44.32,43.21l.16.12A1.91,1.91,0,1,0,47,40.5L47,40.43c-4.07-3.68-1.46-9.59-.89-10.75a1,1,0,0,1,1.79.88c-.46.93-2.58,5.7.49,8.42l0,0a3.9,3.9,0,0,1-2.59,6.83Z" style="fill:#1d212b"/></svg>