<svg id="Calque_1" data-name="Calque 1" xmlns="http://www.w3.org/2000/svg" viewBox="0 0 64 64"><title>random</title><path d="M37.54,29.21a1,1,0,0,1-.78-1.62,39.24,39.24,0,0,1,7.1-7.09A1,1,0,0,1,45,22.1a37.26,37.26,0,0,0-6.73,6.73A1,1,0,0,1,37.54,29.21Z" style="fill:#1d212b"/><path d="M44.45,22.18a1,1,0,0,1-.6-.2,39.25,39.25,0,0,1-7.1-7.09,1,1,0,0,1,1.57-1.24A37.29,37.29,0,0,0,45,20.38a1,1,0,0,1-.6,1.8Z" style="fill:#1d212b"/><path d="M12.18,37.86a1,1,0,0,1-1-1A16.65,16.65,0,0,1,27.81,20.23H43.44a1,1,0,0,1,0,2H27.81A14.65,14.65,0,0,0,13.18,36.86,1,1,0,0,1,12.18,37.86Z" style="fill:#1d212b"/><path d="M19.55,43.7a1,1,0,0,1-.6-1.8,37.26,37.26,0,0,0,6.73-6.73,1,1,0,0,1,1.57,1.24,39.24,39.24,0,0,1-7.1,7.09A1,1,0,0,1,19.55,43.7Z" style="fill:#1d212b"/><path d="M26.46,50.73a1,1,0,0,1-.78-.38A37.29,37.29,0,0,0,19,43.62a1,1,0,0,1,1.2-1.6,39.25,39.25,0,0,1,7.1,7.09,1,1,0,0,1-.78,1.62Z" style="fill:#1d212b"/><path d="M36.19,43.77H20.56a1,1,0,0,1,0-2H36.19A14.65,14.65,0,0,0,50.82,27.14a1,1,0,1,1,2,0A16.65,16.65,0,0,1,36.19,43.77Z" style="fill:#1d212b"/></svg>