<svg id="Calque_1" data-name="Calque 1" xmlns="http://www.w3.org/2000/svg" viewBox="0 0 64 64"><title>settings</title><path d="M33.47,53.17H30.53a3.39,3.39,0,0,1-3.39-3.39V49A1.69,1.69,0,0,0,26,47.42l-.72-.3a1.69,1.69,0,0,0-1.89.33l-.56.56a3.39,3.39,0,0,1-4.79,0L16,45.93a3.39,3.39,0,0,1,0-4.79l.56-.56a1.69,1.69,0,0,0,.33-1.89q-.16-.36-.3-.72A1.69,1.69,0,0,0,15,36.86h-.8a3.39,3.39,0,0,1-3.39-3.39V30.53a3.39,3.39,0,0,1,3.39-3.39H15A1.69,1.69,0,0,0,16.58,26q.14-.36.3-.72a1.69,1.69,0,0,0-.33-1.89L16,22.86a3.39,3.39,0,0,1,0-4.79L18.07,16a3.48,3.48,0,0,1,4.79,0l.56.56a1.69,1.69,0,0,0,1.89.33l.72-.3A1.69,1.69,0,0,0,27.14,15v-.8a3.39,3.39,0,0,1,3.39-3.39h2.94a3.39,3.39,0,0,1,3.39,3.39V15A1.69,1.69,0,0,0,38,16.58l.72.3a1.69,1.69,0,0,0,1.89-.33l.56-.56a3.48,3.48,0,0,1,4.79,0L48,18.07a3.39,3.39,0,0,1,0,4.79l-.56.56a1.69,1.69,0,0,0-.33,1.89q.16.36.3.72A1.69,1.69,0,0,0,49,27.14h.8a3.39,3.39,0,0,1,3.39,3.39v2.94a3.39,3.39,0,0,1-3.39,3.39H49A1.69,1.69,0,0,0,47.42,38q-.14.36-.3.72a1.69,1.69,0,0,0,.33,1.89l.56.56a3.4,3.4,0,0,1,0,4.79L45.93,48a3.4,3.4,0,0,1-4.79,0l-.56-.57a1.69,1.69,0,0,0-1.89-.33l-.72.3A1.69,1.69,0,0,0,36.86,49v.8A3.39,3.39,0,0,1,33.47,53.17ZM24.59,45a3.8,3.8,0,0,1,1.53.33l.63.26A3.67,3.67,0,0,1,29.14,49v.8a1.39,1.39,0,0,0,1.39,1.39h2.94a1.39,1.39,0,0,0,1.39-1.39V49a3.68,3.68,0,0,1,2.39-3.44l.63-.26A3.68,3.68,0,0,1,42,46l.56.57a1.39,1.39,0,0,0,2,0l2.08-2.08a1.39,1.39,0,0,0,0-2L46,42a3.68,3.68,0,0,1-.74-4.12q.14-.31.26-.63A3.67,3.67,0,0,1,49,34.86h.8a1.39,1.39,0,0,0,1.39-1.39V30.53a1.39,1.39,0,0,0-1.39-1.39H49a3.67,3.67,0,0,1-3.44-2.39q-.12-.32-.26-.63A3.68,3.68,0,0,1,46,22l.56-.56a1.39,1.39,0,0,0,0-2L44.52,17.4a1.43,1.43,0,0,0-2,0L42,18a3.68,3.68,0,0,1-4.12.74l-.63-.26A3.68,3.68,0,0,1,34.86,15v-.8a1.39,1.39,0,0,0-1.39-1.39H30.53a1.39,1.39,0,0,0-1.39,1.39V15a3.68,3.68,0,0,1-2.39,3.44l-.63.26A3.67,3.67,0,0,1,22,18l-.56-.56a1.43,1.43,0,0,0-2,0L17.4,19.48a1.39,1.39,0,0,0,0,2L18,22a3.68,3.68,0,0,1,.74,4.12q-.14.31-.26.63A3.67,3.67,0,0,1,15,29.14h-.8a1.39,1.39,0,0,0-1.39,1.39v2.94a1.39,1.39,0,0,0,1.39,1.39H15a3.67,3.67,0,0,1,3.44,2.39q.12.32.26.63A3.68,3.68,0,0,1,18,42l-.56.56a1.39,1.39,0,0,0,0,2l2.08,2.08a1.39,1.39,0,0,0,2,0L22,46A3.64,3.64,0,0,1,24.59,45ZM32,40.28A8.28,8.28,0,1,1,40.28,32,8.28,8.28,0,0,1,32,40.28Zm0-14.55A6.28,6.28,0,1,0,38.28,32,6.28,6.28,0,0,0,32,25.72Z" style="fill:#1d212b"/></svg>