<svg id="Calque_1" data-name="Calque 1" xmlns="http://www.w3.org/2000/svg" viewBox="0 0 64 64"><title>star_filed</title><polygon points="32 13.16 38.12 25.56 51.81 27.55 41.91 37.21 44.24 50.84 32 44.4 19.76 50.84 22.09 37.21 12.19 27.55 25.88 25.56 32 13.16" style="fill:#d51317"/><path d="M44.24,51.34a.49.49,0,0,1-.23-.06L32,45,20,51.28a.5.5,0,0,1-.73-.53l2.29-13.37-9.72-9.47a.5.5,0,0,1,.28-.85l13.43-2,6-12.17a.52.52,0,0,1,.9,0l6,12.17,13.43,2a.5.5,0,0,1,.28.85l-9.72,9.47,2.29,13.37a.5.5,0,0,1-.49.58ZM32,43.9a.5.5,0,0,1,.23.06l11.35,6L41.41,37.29a.5.5,0,0,1,.14-.44l9.18-8.95L38,26.06a.5.5,0,0,1-.38-.27L32,14.29l-5.67,11.5a.5.5,0,0,1-.38.27L13.27,27.9l9.18,8.95a.5.5,0,0,1,.14.44L20.42,49.93l11.35-6A.5.5,0,0,1,32,43.9Z" style="fill:#d51317"/></svg>