<svg id="Calque_1" data-name="Calque 1" xmlns="http://www.w3.org/2000/svg" viewBox="0 0 64 64"><title>tablette</title><path d="M42.39,53.5H21.61A4.62,4.62,0,0,1,17,48.89V15.11a4.62,4.62,0,0,1,4.61-4.61H42.39A4.62,4.62,0,0,1,47,15.11a.5.5,0,1,1-1,0,3.62,3.62,0,0,0-3.61-3.61H21.61A3.62,3.62,0,0,0,18,15.11V48.89a3.62,3.62,0,0,0,3.61,3.61H42.39A3.62,3.62,0,0,0,46,48.89V20.38a.5.5,0,0,1,1,0V48.89A4.62,4.62,0,0,1,42.39,53.5Z" style="fill:#1d212b"/><path d="M43,44.5H21a.5.5,0,0,1-.5-.5V16a.5.5,0,0,1,.5-.5H43a.5.5,0,0,1,.5.5v2a.5.5,0,0,1-1,0V16.5h-21v27h21V22.42a.5.5,0,1,1,1,0V44A.5.5,0,0,1,43,44.5Z" style="fill:#1d212b"/><path d="M33.5,50.5a2.5,2.5,0,0,1,0-5,.5.5,0,0,1,0,1A1.5,1.5,0,1,0,35,48a.5.5,0,0,1,1,0A2.5,2.5,0,0,1,33.5,50.5Z" style="fill:#1d212b"/></svg>