<svg id="Calque_1" data-name="Calque 1" xmlns="http://www.w3.org/2000/svg" viewBox="0 0 64 64"><title>trash</title><path d="M39.8,48H24.2a2.88,2.88,0,0,1-2.86-2.66L19.5,20.54A.5.5,0,0,1,20,20H44a.5.5,0,0,1,0,1H20.54l1.8,24.27A1.88,1.88,0,0,0,24.2,47H39.8a1.88,1.88,0,0,0,1.87-1.73l1.48-19.69a.5.5,0,1,1,1,.07L42.66,45.34A2.88,2.88,0,0,1,39.8,48Z" style="fill:#1d212b"/><path d="M46.5,21h-29a.5.5,0,0,1,0-1h29a.5.5,0,0,1,0,1Z" style="fill:#1d212b"/><path d="M36.5,21h-9a.5.5,0,0,1-.48-.62l.58-2.3A2.74,2.74,0,0,1,30.25,16h3.5a2.74,2.74,0,0,1,2.66,2.08l.58,2.3a.5.5,0,0,1-.48.62Zm-8.36-1h7.72l-.42-1.68A1.74,1.74,0,0,0,33.75,17h-3.5a1.74,1.74,0,0,0-1.69,1.32Z" style="fill:#1d212b"/><path d="M32,44a.5.5,0,0,1-.5-.5v-19a.5.5,0,0,1,1,0v19A.5.5,0,0,1,32,44Z" style="fill:#1d212b"/><path d="M37,44.11h0a.5.5,0,0,1-.47-.53l1.28-19.26a.5.5,0,0,1,.53-.47.5.5,0,0,1,.47.53L37.49,43.65A.5.5,0,0,1,37,44.11Z" style="fill:#1d212b"/><path d="M27.19,44.11a.5.5,0,0,1-.5-.46L25,24.4a.5.5,0,0,1,1-.09l1.72,19.26a.5.5,0,0,1-.45.54Z" style="fill:#1d212b"/></svg>