<svg id="Calque_1" data-name="Calque 1" xmlns="http://www.w3.org/2000/svg" viewBox="0 0 64 64"><title>trash</title><path d="M39.8,48.5H24.2a3.38,3.38,0,0,1-3.36-3.12L19,20.57a1,1,0,0,1,1-1.07H44a1,1,0,0,1,0,2H21.08l1.76,23.73A1.38,1.38,0,0,0,24.2,46.5H39.8a1.38,1.38,0,0,0,1.37-1.27l1.48-19.69a1,1,0,0,1,1.07-.92,1,1,0,0,1,.92,1.07L43.16,45.38A3.39,3.39,0,0,1,39.8,48.5Z" style="fill:#1d212b"/><path d="M46.5,21.5h-29a1,1,0,0,1,0-2h29a1,1,0,0,1,0,2Z" style="fill:#1d212b"/><path d="M36.5,21.5h-9a1,1,0,0,1-1-1.24l.58-2.3a3.24,3.24,0,0,1,3.14-2.46h3.5A3.24,3.24,0,0,1,36.89,18l.58,2.3a1,1,0,0,1-1,1.24Zm-7.72-2h6.44L35,18.44a1.24,1.24,0,0,0-1.2-.94h-3.5a1.24,1.24,0,0,0-1.2.94Z" style="fill:#1d212b"/><path d="M32,44.5a1,1,0,0,1-1-1v-19a1,1,0,0,1,2,0v19A1,1,0,0,1,32,44.5Z" style="fill:#1d212b"/><path d="M37,44.61h-.07A1,1,0,0,1,36,43.55l1.28-19.26a1,1,0,0,1,2,.13L38,43.68A1,1,0,0,1,37,44.61Z" style="fill:#1d212b"/><path d="M27.19,44.61a1,1,0,0,1-1-.91L24.47,24.45a1,1,0,0,1,2-.18l1.72,19.26a1,1,0,0,1-.91,1.08Z" style="fill:#1d212b"/></svg>