<svg id="Calque_1" data-name="Calque 1" xmlns="http://www.w3.org/2000/svg" viewBox="0 0 64 64"><title>video</title><path d="M45.81,48.14H18.19a6.07,6.07,0,0,1-6.06-6.06V21.92a6.07,6.07,0,0,1,6.06-6.06H45.81a6.07,6.07,0,0,1,6.06,6.06.5.5,0,0,1-1,0,5.06,5.06,0,0,0-5.06-5.06H18.19a5.06,5.06,0,0,0-5.06,5.06V42.08a5.06,5.06,0,0,0,5.06,5.06H45.81a5.06,5.06,0,0,0,5.06-5.06V27.48a.5.5,0,0,1,1,0V42.08A6.07,6.07,0,0,1,45.81,48.14Z" style="fill:#1d212b"/><path d="M27.93,42.52a2.66,2.66,0,0,1-1.16-.27,2.63,2.63,0,0,1-1.49-2.38V24.13A2.65,2.65,0,0,1,29.54,22l10.15,7.81a2.65,2.65,0,0,1,0,4.18L29.56,42A2.63,2.63,0,0,1,27.93,42.52Zm0-20a1.66,1.66,0,0,0-.73.17,1.62,1.62,0,0,0-.92,1.48V39.87a1.65,1.65,0,0,0,2.66,1.3l10.15-7.93a1.65,1.65,0,0,0,0-2.6L28.93,22.83A1.63,1.63,0,0,0,27.93,22.48Z" style="fill:#1d212b"/></svg>