<svg id="Calque_1" data-name="Calque 1" xmlns="http://www.w3.org/2000/svg" viewBox="0 0 64 64"><title>video</title><path d="M45.81,48.64H18.19a6.57,6.57,0,0,1-6.56-6.56V21.92a6.57,6.57,0,0,1,6.56-6.56H45.81a6.57,6.57,0,0,1,6.56,6.56,1,1,0,0,1-2,0,4.56,4.56,0,0,0-4.56-4.56H18.19a4.56,4.56,0,0,0-4.56,4.56V42.08a4.56,4.56,0,0,0,4.56,4.56H45.81a4.56,4.56,0,0,0,4.56-4.56V27.48a1,1,0,0,1,2,0V42.08A6.57,6.57,0,0,1,45.81,48.64Z" style="fill:#1d212b"/><path d="M27.93,43a3.16,3.16,0,0,1-3.15-3.15V24.13a3.15,3.15,0,0,1,5.07-2.49L40,29.45a3.15,3.15,0,0,1,0,5L29.87,42.35A3.14,3.14,0,0,1,27.93,43Zm0-20a1.15,1.15,0,0,0-.51.12,1.13,1.13,0,0,0-.64,1V39.87a1.15,1.15,0,0,0,1.85.9l10.15-7.93a1.15,1.15,0,0,0,0-1.81L28.63,23.22A1.13,1.13,0,0,0,27.93,23Z" style="fill:#1d212b"/></svg>