<svg id="Calque_1" data-name="Calque 1" xmlns="http://www.w3.org/2000/svg" viewBox="0 0 64 64"><title>write</title><path d="M48.6,48.75H16.11a.5.5,0,0,1-.5-.5V15.76a.5.5,0,0,1,.5-.5H35.83a.5.5,0,0,1,0,1H16.61V47.75H48.1V20.53a.5.5,0,0,1,1,0V48.25A.5.5,0,0,1,48.6,48.75Z" style="fill:#1d212b"/><path d="M35.19,34.26a.5.5,0,0,1-.35-.15l-5.3-5.3a.5.5,0,0,1,0-.71L50.23,7.4a.51.51,0,0,1,.71,0l5.3,5.3a.5.5,0,0,1,0,.71l-20.7,20.7A.5.5,0,0,1,35.19,34.26Zm-4.6-5.8,4.6,4.6,20-20-4.6-4.6Z" style="fill:#1d212b"/><path d="M26.87,37.29a.5.5,0,0,1-.47-.67l3-8.33a.5.5,0,0,1,.82-.18l5.3,5.3a.5.5,0,0,1-.18.82l-8.33,3A.49.49,0,0,1,26.87,37.29Zm3.23-7.92L27.7,36l6.58-2.39Z" style="fill:#1d212b"/><polygon points="28.39 32.3 31.36 35.27 27.52 36.14 28.39 32.3" style="fill:#1d212b"/><path d="M50.64,14.48a.5.5,0,0,1-.35-.15l-3.14-3.14a.5.5,0,0,1,.71-.71L51,13.62a.5.5,0,0,1-.35.85Z" style="fill:#1d212b"/></svg>