<svg id="Calque_1" data-name="Calque 1" xmlns="http://www.w3.org/2000/svg" viewBox="0 0 64 64"><title>write</title><path d="M48.6,49.25H16.11a1,1,0,0,1-1-1V15.76a1,1,0,0,1,1-1H35.83a1,1,0,0,1,0,2H17.11V47.25H47.6V20.53a1,1,0,0,1,2,0V48.25A1,1,0,0,1,48.6,49.25Z" style="fill:#1d212b"/><path d="M35.19,34.76a1,1,0,0,1-.71-.29l-5.3-5.3a1,1,0,0,1,0-1.41L49.88,7a1,1,0,0,1,1.41,0l5.3,5.3a1,1,0,0,1,0,1.41l-20.7,20.7A1,1,0,0,1,35.19,34.76Zm-3.89-6.3,3.89,3.89L54.48,13.06,50.59,9.17Z" style="fill:#1d212b"/><path d="M26.87,37.79a1,1,0,0,1-.94-1.34l3-8.33a1,1,0,0,1,1.65-.37l5.3,5.3a1,1,0,0,1-.37,1.65l-8.33,3A1,1,0,0,1,26.87,37.79Zm3.43-7.51-1.76,4.84,4.84-1.76Z" style="fill:#1d212b"/><polygon points="28.39 32.3 31.36 35.27 27.52 36.14 28.39 32.3" style="fill:#1d212b"/><path d="M50.64,15a1,1,0,0,1-.71-.29l-3.14-3.14a1,1,0,0,1,1.41-1.41l3.14,3.14A1,1,0,0,1,50.64,15Z" style="fill:#1d212b"/></svg>